<svg width="106" height="115" viewBox="0 0 106 115" fill="none" xmlns="http://www.w3.org/2000/svg">
<path d="M42.8428 66.3948C43.8177 74.0116 41.6959 81.4027 33.8396 84.6187C20.5353 90.0915 0.751101 86.7062 0.521719 68.4259C0.407027 60.5834 4.8226 53.5873 9.00884 47.0989C11.6467 43.093 20.5905 29.6655 20.5905 29.6655C20.5905 29.6655 22.1389 26.3929 24.0313 29.6653C28.5616 37.3949 39.3447 52.8538 41.8106 61.4862C42.3267 63.1788 42.6708 64.815 42.8428 66.3948Z" fill="#389E69"/>
<path d="M34.2793 63.0093C33.5358 62.4315 32.392 62.5891 31.8201 63.2719C29.7612 65.6354 27.2447 67.8413 24.8427 69.9422C24.7283 70.0473 24.5567 70.1523 24.4423 70.3099C24.3851 69.4695 24.3851 68.6292 24.3279 67.7888C24.1564 65.5829 24.2707 63.4294 24.3851 61.0659C24.4423 59.5428 24.5567 58.0196 24.5567 56.4965C24.5567 54.3956 24.4995 52.2422 24.4423 50.1413C24.3851 48.0929 24.3279 46.0445 24.3279 43.9961C24.3279 43.1032 23.5273 42.3679 22.555 42.3679C21.5827 42.3679 20.7821 43.1032 20.7821 43.9961C20.7821 46.0445 20.8392 48.1454 20.8964 50.1938C20.9536 52.2947 21.0108 54.3956 21.0108 56.4965C21.0108 57.5469 20.9536 58.5449 20.8964 59.5953C20.4961 59.2802 20.0957 58.9125 19.7526 58.5974C17.6365 56.8116 15.6348 55.1309 14.0906 53.03C13.5759 52.2947 12.4321 52.0846 11.6314 52.5573C10.8307 53.03 10.6019 54.0804 11.1166 54.8158C12.8896 57.2843 15.1773 59.1751 17.3506 61.0134C18.3228 61.8538 19.3523 62.6941 20.2673 63.587C20.3817 63.6921 20.5533 63.7446 20.6676 63.8496C20.6105 65.2152 20.6104 66.6333 20.7248 67.9989C20.8392 69.8897 20.9536 71.8331 20.9536 73.7764C20.8964 73.9865 20.8964 74.2491 20.9536 74.4592C20.9536 76.5076 20.9536 78.6085 20.8964 80.8669C20.782 84.5435 20.7821 88.0625 20.7821 91.7916V112.958C20.7821 113.851 21.5827 114.586 22.555 114.586C23.5273 114.586 24.3279 113.851 24.3279 112.958V91.7916C24.3279 88.115 24.3279 84.596 24.4423 80.972C24.4995 78.8185 24.5567 76.7176 24.5567 74.7218C25.4718 73.934 26.3296 73.1461 27.2447 72.3583C29.7611 70.1523 32.392 67.8939 34.5653 65.3728C35.1372 64.585 35.0228 63.5345 34.2793 63.0093Z" fill="#7F6853"/>
<path d="M105.275 50.6547C106.25 60.7592 104.129 70.5643 96.2722 74.8306C82.968 82.0908 63.1837 77.5999 62.9543 53.3493C62.8396 42.9454 67.2552 33.6643 71.4415 25.0568C74.0794 19.7426 83.0231 1.92963 83.0231 1.92963C83.0231 1.92963 84.5715 -2.41184 86.4639 1.92933C90.9942 12.1835 101.777 32.6913 104.243 44.143C104.759 46.3884 105.103 48.559 105.275 50.6547Z" fill="#2A8054"/>
<path d="M96.7122 46.1634C95.9687 45.3969 94.8248 45.606 94.2529 46.5118C92.194 49.6472 89.6776 52.5736 87.2755 55.3607C87.1612 55.5 86.9895 55.6394 86.8752 55.8484C86.818 54.7336 86.818 53.6187 86.7608 52.5039C86.5892 49.5775 86.7036 46.7208 86.818 43.5853C86.8752 41.5647 86.9896 39.5441 86.9896 37.5235C86.9896 34.7364 86.9323 31.8797 86.8752 29.0926C86.818 26.3753 86.7608 23.6579 86.7608 20.9405C86.7608 19.756 85.9601 18.7805 84.9879 18.7805C84.0156 18.7805 83.2149 19.756 83.2149 20.9405C83.2149 23.6579 83.2721 26.4449 83.3293 29.1623C83.3865 31.9494 83.4436 34.7364 83.4436 37.5235C83.4436 38.917 83.3865 40.2409 83.3293 41.6344C82.9289 41.2164 82.5286 40.7286 82.1855 40.3105C80.0694 37.9415 78.0676 35.7119 76.5234 32.9249C76.0087 31.9494 74.8649 31.6707 74.0642 32.2977C73.2636 32.9248 73.0348 34.3184 73.5495 35.2938C75.3224 38.5686 77.6101 41.077 79.7834 43.5157C80.7557 44.6305 81.7851 45.7453 82.7002 46.9298C82.8146 47.0692 82.9861 47.1388 83.1005 47.2782C83.0433 49.0898 83.0433 50.9711 83.1577 52.7826C83.2721 55.291 83.3865 57.869 83.3865 60.4471C83.3293 60.7258 83.3293 61.0741 83.3865 61.3528C83.3865 64.0702 83.3865 66.8573 83.3293 69.8534C83.2149 74.7307 83.2149 79.399 83.2149 84.3461V112.426C83.2149 113.61 84.0156 114.586 84.9879 114.586C85.9601 114.586 86.7608 113.61 86.7608 112.426V84.3461C86.7608 79.4687 86.7608 74.8004 86.8752 69.9927C86.9323 67.136 86.9896 64.3489 86.9896 61.7012C87.9046 60.6561 88.7625 59.6109 89.6776 58.5658C92.194 55.6394 94.8249 52.6433 96.9982 49.2988C97.5701 48.2537 97.4557 46.8601 96.7122 46.1634Z" fill="#7F6853"/>
</svg>
