<svg width="105" height="115" viewBox="0 0 105 115" fill="none" xmlns="http://www.w3.org/2000/svg">
<path d="M103.917 66.3948C104.865 74.0116 102.802 81.4027 95.1626 84.6187C82.2256 90.0915 62.9874 86.7062 62.7643 68.4259C62.6528 60.5834 66.9465 53.5873 71.0172 47.0989C73.5823 43.093 82.2792 29.6655 82.2792 29.6655C82.2792 29.6655 83.7848 26.3929 85.625 29.6653C90.0303 37.3949 100.516 52.8538 102.914 61.4862C103.416 63.1788 103.75 64.815 103.917 66.3948Z" fill="#389E69"/>
<path d="M95.59 63.0093C94.867 62.4315 93.7547 62.5891 93.1986 63.2719C91.1965 65.6354 88.7495 67.8413 86.4138 69.9422C86.3025 70.0473 86.1357 70.1523 86.0244 70.3099C85.9688 69.4695 85.9689 68.6292 85.9132 67.7888C85.7464 65.5829 85.8576 63.4294 85.9688 61.0659C86.0245 59.5428 86.1357 58.0196 86.1357 56.4965C86.1357 54.3956 86.0801 52.2422 86.0244 50.1413C85.9688 48.0929 85.9132 46.0445 85.9132 43.9961C85.9132 43.1032 85.1347 42.3679 84.1892 42.3679C83.2438 42.3679 82.4652 43.1032 82.4652 43.9961C82.4652 46.0445 82.5208 48.1454 82.5764 50.1938C82.6321 52.2947 82.6876 54.3956 82.6876 56.4965C82.6876 57.5469 82.6321 58.5449 82.5764 59.5953C82.1871 59.2802 81.7979 58.9125 81.4642 58.5974C79.4065 56.8116 77.46 55.1309 75.9584 53.03C75.4579 52.2947 74.3457 52.0846 73.5671 52.5573C72.7885 53.03 72.566 54.0804 73.0666 54.8158C74.7906 57.2843 77.0151 59.1751 79.1284 61.0134C80.0739 61.8538 81.0749 62.6941 81.9647 63.587C82.0759 63.6921 82.2427 63.7446 82.354 63.8496C82.2984 65.2152 82.2983 66.6333 82.4096 67.9989C82.5208 69.8897 82.632 71.8331 82.632 73.7764C82.5764 73.9865 82.5764 74.2491 82.632 74.4592C82.632 76.5076 82.6321 78.6085 82.5764 80.8669C82.4652 84.5435 82.4652 88.0625 82.4652 91.7916V112.958C82.4652 113.851 83.2438 114.586 84.1892 114.586C85.1347 114.586 85.9132 113.851 85.9132 112.958V91.7916C85.9132 88.115 85.9132 84.596 86.0244 80.972C86.0801 78.8185 86.1357 76.7176 86.1357 74.7218C87.0255 73.934 87.8597 73.1461 88.7495 72.3583C91.1965 70.1523 93.7547 67.8939 95.868 65.3728C96.4242 64.585 96.313 63.5345 95.59 63.0093Z" fill="#7F6853"/>
<path d="M41.485 50.6547C42.433 60.7592 40.3698 70.5643 32.7302 74.8306C19.7932 82.0908 0.555013 77.5999 0.331961 53.3493C0.220435 42.9454 4.51414 33.6643 8.58484 25.0568C11.1499 19.7426 19.8469 1.92963 19.8469 1.92963C19.8469 1.92963 21.3525 -2.41184 23.1926 1.92933C27.5979 12.1835 38.0835 32.6913 40.4813 44.143C40.9832 46.3884 41.3177 48.559 41.485 50.6547Z" fill="#2A8054"/>
<path d="M33.1581 46.1634C32.4351 45.3969 31.3228 45.606 30.7667 46.5118C28.7646 49.6472 26.3177 52.5736 23.9819 55.3607C23.8707 55.5 23.7038 55.6394 23.5926 55.8484C23.5369 54.7336 23.537 53.6187 23.4814 52.5039C23.3145 49.5775 23.4257 46.7208 23.537 43.5853C23.5926 41.5647 23.7038 39.5441 23.7038 37.5235C23.7038 34.7364 23.6482 31.8797 23.5926 29.0926C23.5369 26.3753 23.4814 23.6579 23.4814 20.9405C23.4814 19.756 22.7028 18.7805 21.7574 18.7805C20.8119 18.7805 20.0334 19.756 20.0334 20.9405C20.0334 23.6579 20.0889 26.4449 20.1446 29.1623C20.2002 31.9494 20.2558 34.7364 20.2558 37.5235C20.2558 38.917 20.2002 40.2409 20.1446 41.6344C19.7553 41.2164 19.366 40.7286 19.0323 40.3105C16.9746 37.9415 15.0281 35.7119 13.5266 32.9249C13.026 31.9494 11.9138 31.6707 11.1352 32.2977C10.3566 32.9248 10.1342 34.3184 10.6347 35.2938C12.3587 38.5686 14.5832 41.077 16.6966 43.5157C17.642 44.6305 18.643 45.7453 19.5328 46.9298C19.644 47.0692 19.8109 47.1388 19.9221 47.2782C19.8665 49.0898 19.8665 50.9711 19.9777 52.7826C20.0889 55.291 20.2002 57.869 20.2002 60.4471C20.1445 60.7258 20.1445 61.0741 20.2002 61.3528C20.2002 64.0702 20.2002 66.8573 20.1446 69.8534C20.0333 74.7307 20.0334 79.399 20.0334 84.3461V112.426C20.0334 113.61 20.8119 114.586 21.7574 114.586C22.7028 114.586 23.4814 113.61 23.4814 112.426V84.3461C23.4814 79.4687 23.4813 74.8004 23.5926 69.9927C23.6482 67.136 23.7038 64.3489 23.7038 61.7012C24.5936 60.6561 25.4278 59.6109 26.3176 58.5658C28.7646 55.6394 31.3229 52.6433 33.4362 49.2988C33.9923 48.2537 33.8811 46.8601 33.1581 46.1634Z" fill="#7F6853"/>
</svg>
