<svg width="44" height="115" viewBox="0 0 44 115" fill="none" xmlns="http://www.w3.org/2000/svg">
<path d="M43.2754 50.6547C44.2503 60.7592 42.1285 70.5643 34.2722 74.8306C20.968 82.0908 1.18372 77.5999 0.954336 53.3493C0.839645 42.9454 5.25522 33.6643 9.44146 25.0568C12.0794 19.7426 21.0231 1.92963 21.0231 1.92963C21.0231 1.92963 22.5715 -2.41184 24.4639 1.92933C28.9942 12.1835 39.7774 32.6913 42.2432 44.143C42.7593 46.3884 43.1034 48.559 43.2754 50.6547Z" fill="#2A8054"/>
<path d="M34.7122 46.1634C33.9687 45.3969 32.8248 45.606 32.2529 46.5118C30.194 49.6472 27.6776 52.5736 25.2755 55.3607C25.1612 55.5 24.9895 55.6394 24.8752 55.8484C24.818 54.7336 24.818 53.6187 24.7608 52.5039C24.5892 49.5775 24.7036 46.7208 24.818 43.5853C24.8752 41.5647 24.9896 39.5441 24.9896 37.5235C24.9896 34.7364 24.9323 31.8797 24.8752 29.0926C24.818 26.3753 24.7608 23.6579 24.7608 20.9405C24.7608 19.756 23.9601 18.7805 22.9879 18.7805C22.0156 18.7805 21.2149 19.756 21.2149 20.9405C21.2149 23.6579 21.2721 26.4449 21.3293 29.1623C21.3865 31.9494 21.4436 34.7364 21.4436 37.5235C21.4436 38.917 21.3865 40.2409 21.3293 41.6344C20.9289 41.2164 20.5286 40.7286 20.1855 40.3105C18.0694 37.9415 16.0676 35.7119 14.5234 32.9249C14.0087 31.9494 12.8649 31.6707 12.0642 32.2977C11.2636 32.9248 11.0348 34.3184 11.5495 35.2938C13.3224 38.5686 15.6101 41.077 17.7834 43.5157C18.7557 44.6305 19.7851 45.7453 20.7002 46.9298C20.8146 47.0692 20.9861 47.1388 21.1005 47.2782C21.0433 49.0898 21.0433 50.9711 21.1577 52.7826C21.2721 55.291 21.3865 57.869 21.3865 60.4471C21.3293 60.7258 21.3293 61.0741 21.3865 61.3528C21.3865 64.0702 21.3865 66.8573 21.3293 69.8534C21.2149 74.7307 21.2149 79.399 21.2149 84.3461V112.426C21.2149 113.61 22.0156 114.586 22.9879 114.586C23.9601 114.586 24.7608 113.61 24.7608 112.426V84.3461C24.7608 79.4687 24.7608 74.8004 24.8752 69.9927C24.9323 67.136 24.9896 64.3489 24.9896 61.7012C25.9046 60.6561 26.7625 59.6109 27.6776 58.5658C30.194 55.6394 32.8249 52.6433 34.9982 49.2988C35.5701 48.2537 35.4557 46.8601 34.7122 46.1634Z" fill="#7F6853"/>
</svg>
