<svg width="70" height="71" viewBox="0 0 70 71" fill="none" xmlns="http://www.w3.org/2000/svg">
<rect x="8.60425" y="18.25" width="46.8" height="31.3" fill="#004F84" stroke="#004F84" stroke-width="3"/>
<path d="M30.2706 49.4608L30.2635 49.4661C29.947 49.6962 29.5722 49.8348 29.1801 49.8646C28.7879 49.8944 28.3961 49.8141 28.048 49.6338C27.7 49.4535 27.4103 49.181 27.2088 48.8482C27.0075 48.5156 26.9014 48.1348 26.9008 47.7475L26.9008 47.7451L26.9008 22.9345V22.9326L30.2706 49.4608ZM30.2706 49.4608L47.1241 37.0511M30.2706 49.4608L47.1241 37.0511M47.1241 37.0511C47.3948 36.8548 47.6142 36.5976 47.7655 36.3017C47.9188 36.002 47.9983 35.6706 47.9983 35.335C47.9983 34.9993 47.9188 34.6679 47.7655 34.3683C47.6141 34.0722 47.3947 33.815 47.1239 33.6187L47.1241 37.0511ZM2.03345 35.2998C2.03345 16.7831 16.8641 1.7998 35.1168 1.7998C53.3695 1.7998 68.2001 16.7831 68.2001 35.2998C68.2001 53.8165 53.3695 68.7998 35.1168 68.7998C16.8641 68.7998 2.03345 53.8165 2.03345 35.2998Z" fill="white" stroke="#004F84" stroke-width="3"/>
<rect x="12" y="16" width="45" height="36" fill="white"/>
<path d="M29.2092 48C29.9692 48 30.4892 47.68 30.8492 47L33.3692 42.44C34.1292 41.04 34.5292 39.84 34.5692 38.88H35.3692L35.4092 39.28C35.5292 39.8 35.9292 41.12 36.6092 42.44L39.0492 47C39.4092 47.68 39.9292 48 40.6892 48H47.0892C48.2092 48 48.6092 47.28 48.0892 46.32L40.6892 33.44L47.4892 21.68C48.0892 20.72 47.6492 20 46.5292 20H40.2892C39.5292 20 38.9692 20.32 38.6092 21L36.5292 24.8C35.8492 26.08 35.4492 27.24 35.4092 28.32H34.6492V28.24C34.6492 27.96 34.4892 26.44 33.4892 24.8L31.4492 21C31.0892 20.32 30.5692 20 29.8092 20H23.3692C22.2492 20 21.8092 20.72 22.4092 21.68L29.2892 33.52L21.9692 46.32C21.3692 47.28 21.8092 48 22.9292 48H29.2092Z" fill="#004F84"/>
</svg>
