<svg xmlns="http://www.w3.org/2000/svg" width="14" height="10" viewBox="0 0 14 10" fill="none"><path fill-rule="evenodd" clip-rule="evenodd" d="M13.1803 5.28001C13.1803 5.05873 13.0009 4.87935 12.7797 4.87935L2.15929 4.87935C1.93801 4.87935 1.75863 5.05873 1.75863 5.28001C1.75863 5.50128 1.93801 5.68066 2.15929 5.68066L12.7797 5.68066C13.0009 5.68066 13.1803 5.50128 13.1803 5.28001Z" fill="#1ABEE7" stroke="#1ABEE7" stroke-width="0.676683" stroke-miterlimit="10" stroke-linecap="round"/><path fill-rule="evenodd" clip-rule="evenodd" d="M5.47698 9.35622C5.63345 9.19976 5.63345 8.94608 5.47698 8.78961L1.9673 5.27993L5.47698 1.77024C5.63345 1.61378 5.63345 1.3601 5.47698 1.20363C5.32051 1.04717 5.06683 1.04717 4.91037 1.20363L1.11738 4.99662C0.960914 5.15309 0.960914 5.40677 1.11738 5.56323L4.91037 9.35622C5.06683 9.51269 5.32052 9.51269 5.47698 9.35622Z" fill="#1ABEE7" stroke="#1ABEE7" stroke-width="0.676683" stroke-linecap="round" stroke-linejoin="round"/></svg>