<svg width="106" height="67" viewBox="0 0 106 67" fill="none" xmlns="http://www.w3.org/2000/svg">
<path d="M80.1291 61.2244C80.1291 61.2244 68.2747 22.2541 45.568 11.1998C17.6656 -2.3317 0.926453 0.332538 0.926453 0.332538C0.926453 0.332538 6.39864 60.0092 80.1291 61.2244Z" fill="#389E69"/>
<path d="M105.727 64.8701C105.713 65.1296 105.648 65.3836 105.536 65.6175C105.424 65.8514 105.268 66.0607 105.077 66.2333C104.885 66.4059 104.662 66.5385 104.419 66.6234C104.177 66.7083 103.921 66.7439 103.665 66.728C93.7173 66.1147 83.9236 63.9387 74.6338 60.2778C74.2238 60.0906 73.8872 59.7698 73.6776 59.3663C72.3297 58.7587 70.7975 58.0342 69.3344 57.2864L50.775 52.6123L64.9451 54.1664C62.2263 52.5538 59.185 50.6608 55.844 48.5808L38.5635 45.6478L51.017 45.4258C47.7682 43.2524 44.4158 41.0205 40.9597 38.5081L21.7667 33.834L37.2616 35.8322C34.8193 34.021 32.3655 32.128 29.9347 30.1766L16.6056 25.9114L27.5269 28.2485C24.5892 25.818 21.6976 23.3056 18.8981 20.7115L9.47445 17.9538L16.6056 18.5497C10.771 13.0483 5.50225 6.96021 0.880249 0.37915C0.880249 0.37915 5.69577 6.66582 18.5756 17.5097L18.7253 7.46042L18.7253 6.50223L20.223 18.8185C22.8035 20.9452 25.6875 23.2394 28.8748 25.7011L26.7666 11.6788L32.3655 28.3653C34.8616 30.235 37.5497 32.1825 40.4298 34.208L39.2777 19.9753L43.5287 36.3464C46.8351 38.6834 50.3603 41.0205 54.139 43.4627L52.7335 28.3537L57.9407 45.8815C60.648 47.611 63.459 49.3871 66.3967 51.175L63.8046 40.0272L70.4749 53.9093C72.0643 54.8657 73.7111 55.7204 75.4056 56.4684C75.6657 56.4638 75.9242 56.5114 76.166 56.6086C85.0498 60.0808 94.4051 62.1536 103.907 62.7551C104.425 62.791 104.907 63.034 105.249 63.4305C105.59 63.8271 105.762 64.3449 105.727 64.8701Z" fill="#2A8054"/>
</svg>
