<svg width="99" height="91" viewBox="0 0 99 91" fill="none" xmlns="http://www.w3.org/2000/svg">
<g clip-path="url(#clip0_413_2552)">
<path d="M71.72 79.819C71.72 79.819 67.0065 36.9712 45.2069 20.7321C18.3011 0.971232 0.23298 0.384277 0.23298 0.384277C0.23298 0.384277 -6.05158 63.5799 71.72 79.819Z" fill="#77BF87"/>
<path d="M98.0366 88.8191C97.8402 89.993 96.6619 90.5799 95.4835 90.3843C78.3973 86.0799 66.6138 78.0582 66.0246 77.8625C65.6318 77.6669 65.239 77.0799 65.239 76.6886C63.8643 75.7104 62.4895 74.7321 61.1148 73.5582L42.4575 64.9495L57.1869 69.4495C54.6338 67.2973 51.6879 64.7538 48.742 61.8191L31.0667 55.1669L44.225 57.5147C41.2791 54.5799 38.1368 51.6451 34.9946 48.3191L15.5517 39.5147L31.4595 44.7973C29.2992 42.4495 26.9424 39.906 24.7821 37.3625L11.6238 30.3191L22.6218 35.0147C20.0687 31.8843 17.5156 28.7538 14.9625 25.4278L5.53564 20.7321L12.9986 22.8843C7.89235 15.2538 3.37532 7.81906 0.233032 0.384277C0.233032 0.384277 3.96449 7.81906 15.5517 21.7104L17.712 11.3408V10.3625L16.73 23.4712C19.0867 26.2104 21.6398 29.1451 24.5857 32.4712L25.1749 17.406L27.728 35.7973C30.0847 38.3408 32.4414 40.8843 34.9946 43.4278L36.7621 28.3625L37.9404 46.3625C40.8863 49.493 44.225 52.6234 47.7601 55.9495L49.3312 39.906L51.2952 59.2756C53.8483 61.6234 56.4014 63.9712 59.1509 66.5147L58.5617 54.3843L62.8823 70.2321C64.4535 71.6017 66.0246 72.7756 67.5958 73.9495C67.7921 73.9495 68.1849 74.1451 68.3813 74.3408C68.5777 74.3408 80.1649 82.1669 96.4655 86.2756C97.6438 86.4712 98.233 87.6451 98.0366 88.8191Z" fill="#489C72"/>
</g>
<defs>
<clipPath id="clip0_413_2552">
<rect width="98" height="90" fill="white" transform="translate(0.0366211 0.384277)"/>
</clipPath>
</defs>
</svg>
