<svg width="39" height="88" viewBox="0 0 39 88" fill="none" xmlns="http://www.w3.org/2000/svg">
<path d="M28.7535 2.78767C28.7535 1.24866 27.504 0 25.965 0H12.9535C11.4137 0 10.165 1.24941 10.165 2.78767V9.2934H28.7535V2.78767Z" fill="#00ABD8"/>
<path d="M0.87207 31.6878V36.3348C0.87207 38.658 3.19527 38.658 3.19527 40.9818C3.19527 43.3067 0.87207 43.3067 0.87207 45.6288C0.87207 47.9537 3.19527 47.9537 3.19527 50.2766C3.19527 52.5996 0.87207 52.5998 0.87207 54.9237C0.87207 57.2485 3.19527 57.2485 3.19527 59.5715C3.19527 61.8945 0.87207 61.8947 0.87207 64.2193V78.1581C0.87207 83.2934 5.03251 87.4514 10.1655 87.4514H28.7539C33.8868 87.4514 38.0473 83.291 38.0473 78.1581V64.2136C38.0473 61.8904 35.7241 61.8904 35.7241 59.5666C35.7241 57.2434 38.0473 57.2434 38.0473 54.9188C38.0473 52.5956 35.7241 52.5956 35.7241 50.2718C35.7241 47.9486 38.0473 47.9486 38.0473 45.624C38.0473 43.3016 35.7241 43.3016 35.7241 40.977C35.7241 38.6538 38.0473 38.6538 38.0473 36.33V31.687L36.5002 28.4341H34.4167H4.50503H2.50024L0.87207 31.6878Z" fill="#F5F5F5" fill-opacity="0.7"/>
<path d="M0 45.1174C0 42.7568 3.10979 42.7569 3.10979 40.3936H35.7886C35.7886 42.7567 38.9158 42.7517 38.9158 45.1125C38.9158 47.4755 36.4838 47.4755 36.4838 49.8371C36.4838 52.1993 38.9158 52.1994 38.9158 54.561C38.9158 56.924 35.7886 57.0669 35.7886 59.2906H3.12716C3.12716 57.0669 0 56.9292 0 54.5659C0 52.2037 2.43197 52.2035 2.43197 49.8421C2.43197 47.4807 0 47.4806 0 45.1174Z" fill="#00ABD8"/>
<path d="M36.5 28.5H2.5L10.5315 12.8889V9H28.4336V12.8889L36.5 28.5Z" fill="#8EDDEE" fill-opacity="0.26"/>
<rect x="10.0068" y="9.25635" width="18.902" height="2.22376" fill="#00ABD8"/>
</svg>
