<svg width="121" height="112" viewBox="0 0 121 112" fill="none" xmlns="http://www.w3.org/2000/svg">
<rect x="63.3713" y="49.0776" width="56.8116" height="33.4728" rx="4" fill="#F1F6F7"/>
<rect x="67.2491" y="53.5" width="49.0556" height="24.7955" rx="3.5" stroke="#95A7B8"/>
<rect x="94.8872" y="59.0972" width="17.7325" height="14.9687" rx="1.5" stroke="#95A7B8"/>
<rect x="66.1351" y="58.5972" width="25.4884" height="39.9217" rx="3" fill="black"/>
<rect x="100.549" y="63.0146" width="2.33388" height="5.8347" rx="1.16694" fill="black"/>
<rect x="106.383" y="63.0146" width="2.33388" height="5.8347" rx="1.16694" fill="black"/>
<rect x="30.5126" y="77.9438" width="4.29926" height="4.60635" rx="2.14963" fill="#D9D9D9"/>
<rect x="29.2843" y="80.7075" width="7.06306" height="8.9056" rx="1" fill="black"/>
<rect x="74.7336" y="92.6841" width="9.82687" height="8.9056" rx="1" fill="black"/>
<path d="M79.3993 91.4086V103.206V106.859C79.3993 109.068 77.6085 110.859 75.3993 110.859H36.7217C34.5125 110.859 32.7217 109.068 32.7217 106.859V87.2134" stroke="black" stroke-width="2"/>
<rect x="13.6227" y="72.4165" width="35.9295" height="6.14179" fill="black"/>
<path d="M51.6307 76.3504L51.6551 10.2757C51.6545 9.11783 51.1951 8.00833 50.3772 7.18974C49.5592 6.37112 48.4496 5.9112 47.292 5.90988L16.3941 5.89833C15.2369 5.89909 14.128 6.35919 13.31 7.17728C12.4914 7.99528 12.0316 9.10422 12.0303 10.2618L12.0059 76.3365C12.0067 77.4937 12.4666 78.6033 13.2847 79.4212C14.1027 80.2399 15.2116 80.7003 16.3691 80.7017L47.267 80.7132L47.2669 80.7139C48.4236 80.7123 49.5332 80.2524 50.3511 79.4342C51.169 78.6168 51.6295 77.5073 51.6307 76.3504ZM47.2665 78.2203L16.3703 78.2091L16.3704 78.2084C15.3378 78.2075 14.5016 77.371 14.5004 76.3387L14.5012 73.2211L49.139 73.2344L49.1384 76.3508C49.1368 77.3833 48.2997 78.2194 47.2673 78.2206L47.2665 78.2203Z" fill="black"/>
<rect x="13.9893" y="7.67725" width="35.6224" height="69.0952" rx="3" fill="#181818"/>
<circle cx="31.954" cy="12.1299" r="1.99608" fill="black"/>
<path d="M34.4821 37.4616H32.2175L34.2539 33.6696C34.296 33.5893 34.258 33.4727 34.1891 33.4727H30.2468C30.218 33.4727 30.1903 33.4954 30.1759 33.5333L27.5124 40.3127C27.4806 40.393 27.5196 40.4945 27.5834 40.4945H29.3761L28.4571 45.912C28.4376 46.0302 28.5342 46.1135 28.5939 46.0287L34.5386 37.6691C34.5921 37.5949 34.5561 37.4616 34.4821 37.4616Z" fill="#EEE03D"/>
<path d="M28.0818 49.9117V52.0117H27.8658V50.1037H27.3708V49.9117H28.0818ZM29.4207 52.0297C29.2587 52.0297 29.1137 51.9867 28.9857 51.9007C28.8597 51.8147 28.7607 51.6917 28.6887 51.5317C28.6187 51.3697 28.5837 51.1797 28.5837 50.9617C28.5837 50.7437 28.6187 50.5547 28.6887 50.3947C28.7607 50.2327 28.8597 50.1087 28.9857 50.0227C29.1137 49.9367 29.2587 49.8937 29.4207 49.8937C29.5827 49.8937 29.7267 49.9367 29.8527 50.0227C29.9807 50.1087 30.0807 50.2327 30.1527 50.3947C30.2247 50.5547 30.2607 50.7437 30.2607 50.9617C30.2607 51.1797 30.2247 51.3697 30.1527 51.5317C30.0807 51.6917 29.9807 51.8147 29.8527 51.9007C29.7267 51.9867 29.5827 52.0297 29.4207 52.0297ZM29.4207 51.8317C29.5427 51.8317 29.6497 51.7977 29.7417 51.7297C29.8357 51.6617 29.9087 51.5627 29.9607 51.4327C30.0127 51.3027 30.0387 51.1457 30.0387 50.9617C30.0387 50.7777 30.0127 50.6207 29.9607 50.4907C29.9087 50.3607 29.8357 50.2617 29.7417 50.1937C29.6497 50.1257 29.5427 50.0917 29.4207 50.0917C29.2987 50.0917 29.1907 50.1257 29.0967 50.1937C29.0047 50.2617 28.9327 50.3607 28.8807 50.4907C28.8287 50.6207 28.8027 50.7777 28.8027 50.9617C28.8027 51.1457 28.8287 51.3027 28.8807 51.4327C28.9327 51.5627 29.0047 51.6617 29.0967 51.7297C29.1907 51.7977 29.2987 51.8317 29.4207 51.8317ZM31.4071 52.0297C31.2451 52.0297 31.1001 51.9867 30.9721 51.9007C30.8461 51.8147 30.7471 51.6917 30.6751 51.5317C30.6051 51.3697 30.5701 51.1797 30.5701 50.9617C30.5701 50.7437 30.6051 50.5547 30.6751 50.3947C30.7471 50.2327 30.8461 50.1087 30.9721 50.0227C31.1001 49.9367 31.2451 49.8937 31.4071 49.8937C31.5691 49.8937 31.7131 49.9367 31.8391 50.0227C31.9671 50.1087 32.0671 50.2327 32.1391 50.3947C32.2111 50.5547 32.2471 50.7437 32.2471 50.9617C32.2471 51.1797 32.2111 51.3697 32.1391 51.5317C32.0671 51.6917 31.9671 51.8147 31.8391 51.9007C31.7131 51.9867 31.5691 52.0297 31.4071 52.0297ZM31.4071 51.8317C31.5291 51.8317 31.6361 51.7977 31.7281 51.7297C31.8221 51.6617 31.8951 51.5627 31.9471 51.4327C31.9991 51.3027 32.0251 51.1457 32.0251 50.9617C32.0251 50.7777 31.9991 50.6207 31.9471 50.4907C31.8951 50.3607 31.8221 50.2617 31.7281 50.1937C31.6361 50.1257 31.5291 50.0917 31.4071 50.0917C31.2851 50.0917 31.1771 50.1257 31.0831 50.1937C30.9911 50.2617 30.9191 50.3607 30.8671 50.4907C30.8151 50.6207 30.7891 50.7777 30.7891 50.9617C30.7891 51.1457 30.8151 51.3027 30.8671 51.4327C30.9191 51.5627 30.9911 51.6617 31.0831 51.7297C31.1771 51.7977 31.2851 51.8317 31.4071 51.8317ZM33.0004 51.0367C32.8584 51.0367 32.7434 50.9847 32.6554 50.8807C32.5694 50.7747 32.5264 50.6367 32.5264 50.4667C32.5264 50.2967 32.5694 50.1597 32.6554 50.0557C32.7434 49.9497 32.8584 49.8967 33.0004 49.8967C33.1404 49.8967 33.2544 49.9487 33.3424 50.0527C33.4304 50.1567 33.4744 50.2947 33.4744 50.4667C33.4744 50.6387 33.4304 50.7767 33.3424 50.8807C33.2544 50.9847 33.1404 51.0367 33.0004 51.0367ZM34.2724 49.9117H34.4494L33.0154 52.0117H32.8384L34.2724 49.9117ZM33.0004 50.9017C33.0984 50.9017 33.1764 50.8637 33.2344 50.7877C33.2944 50.7097 33.3244 50.6027 33.3244 50.4667C33.3244 50.3307 33.2944 50.2247 33.2344 50.1487C33.1764 50.0707 33.0984 50.0317 33.0004 50.0317C32.9004 50.0317 32.8214 50.0707 32.7634 50.1487C32.7054 50.2267 32.6764 50.3327 32.6764 50.4667C32.6764 50.6007 32.7054 50.7067 32.7634 50.7847C32.8214 50.8627 32.9004 50.9017 33.0004 50.9017ZM34.2874 52.0267C34.1474 52.0267 34.0334 51.9747 33.9454 51.8707C33.8574 51.7647 33.8134 51.6267 33.8134 51.4567C33.8134 51.2867 33.8574 51.1497 33.9454 51.0457C34.0334 50.9397 34.1474 50.8867 34.2874 50.8867C34.4294 50.8867 34.5434 50.9397 34.6294 51.0457C34.7174 51.1497 34.7614 51.2867 34.7614 51.4567C34.7614 51.6267 34.7174 51.7647 34.6294 51.8707C34.5434 51.9747 34.4294 52.0267 34.2874 52.0267ZM34.2874 51.8917C34.3874 51.8917 34.4664 51.8527 34.5244 51.7747C34.5824 51.6967 34.6114 51.5907 34.6114 51.4567C34.6114 51.3227 34.5824 51.2167 34.5244 51.1387C34.4664 51.0607 34.3874 51.0217 34.2874 51.0217C34.1894 51.0217 34.1104 51.0607 34.0504 51.1387C33.9924 51.2147 33.9634 51.3207 33.9634 51.4567C33.9634 51.5927 33.9924 51.6997 34.0504 51.7777C34.1104 51.8537 34.1894 51.8917 34.2874 51.8917Z" fill="white"/>
</svg>
