<svg width="153" height="108" viewBox="0 0 153 108" fill="none" xmlns="http://www.w3.org/2000/svg">
<rect x="93.8076" y="5.73096" width="56.3846" height="30.5385" rx="6.5" fill="#FCFCFC" stroke="#EC7140" stroke-width="5"/>
<rect x="100.192" y="38.769" width="42.8077" height="3.23077" fill="#607A95"/>
<rect x="109.885" width="25.8462" height="3.23077" fill="#607A95"/>
<path d="M110.286 25.6924C110.611 25.6924 110.767 25.5364 110.767 25.2244V17.2164C110.767 16.9044 110.611 16.7484 110.286 16.7484H109.012C108.752 16.7484 108.57 16.8784 108.466 17.1514C108.219 17.8404 107.79 18.1524 107.023 18.2434C106.711 18.2824 106.555 18.4384 106.555 18.7244V19.7644C106.555 20.0764 106.711 20.2324 107.023 20.2324H108.154V25.2244C108.154 25.5364 108.31 25.6924 108.635 25.6924H110.286ZM118.349 25.6924C118.648 25.6924 118.804 25.5364 118.804 25.2374V23.8594C118.804 23.5604 118.648 23.4044 118.349 23.4044H117.114C116.451 23.4044 115.749 23.5994 115.554 23.7034L115.333 23.8074L115.229 23.6384C115.424 23.4954 115.658 23.3264 115.957 23.1314L116.646 22.6504C116.971 22.4034 117.517 22.0134 117.764 21.7664C118.024 21.5064 118.362 21.1034 118.505 20.7784C118.648 20.4274 118.765 19.9984 118.765 19.5304C118.765 17.6714 117.543 16.6184 115.411 16.6184C113.227 16.6184 111.979 17.7364 111.979 19.6604V19.8814C111.979 20.1804 112.135 20.3364 112.434 20.3364H113.955C114.267 20.3364 114.423 20.1804 114.423 19.8814V19.6604C114.423 19.1014 114.722 18.8154 115.307 18.8154C115.853 18.8154 116.126 19.0754 116.126 19.5954C116.126 21.2204 112.304 21.9744 111.927 25.2114C111.888 25.5234 112.07 25.6924 112.382 25.6924H118.349ZM121.933 21.0774C122.245 21.0774 122.401 20.9214 122.401 20.6094V18.9974C122.401 18.6724 122.245 18.5164 121.933 18.5164H120.373C120.048 18.5164 119.892 18.6724 119.892 18.9974V20.6094C119.892 20.9214 120.048 21.0774 120.373 21.0774H121.933ZM121.933 25.6924C122.245 25.6924 122.401 25.5364 122.401 25.2244V23.5994C122.401 23.2874 122.245 23.1314 121.933 23.1314H120.373C120.048 23.1314 119.892 23.2874 119.892 23.5994V25.2244C119.892 25.5364 120.048 25.6924 120.373 25.6924H121.933ZM123.559 22.4294C123.559 24.6004 124.885 25.8354 127.173 25.8354C129.461 25.8354 130.774 24.6004 130.774 22.4294V20.0244C130.774 17.8534 129.461 16.6184 127.173 16.6184C124.885 16.6184 123.559 17.8534 123.559 20.0244V22.4294ZM128.161 22.3644C128.161 23.1964 127.849 23.5604 127.16 23.5604C126.484 23.5604 126.185 23.1964 126.185 22.3644V20.0764C126.185 19.2444 126.484 18.8674 127.173 18.8674C127.849 18.8674 128.161 19.2314 128.161 20.0764V22.3644ZM135.19 25.8224C137.426 25.8224 138.661 24.7434 138.661 22.8064V22.0394C138.661 20.3234 137.803 19.4004 136.23 19.4004C135.411 19.4004 134.852 19.7124 134.553 20.3234H134.319C134.436 20.0504 134.514 19.7644 134.527 19.4784L134.592 18.6984H137.894C138.206 18.6984 138.362 18.5424 138.362 18.2304V17.2164C138.362 16.9044 138.206 16.7484 137.894 16.7484H132.785C132.486 16.7484 132.317 16.9044 132.291 17.2034L132.005 21.1814C131.979 21.5064 132.135 21.6624 132.46 21.6624H133.825C134.085 21.6624 134.189 21.5324 134.371 21.3504C134.54 21.1814 134.787 21.1034 135.099 21.1034C135.723 21.1034 136.035 21.4284 136.035 22.0654V22.7024C136.035 23.3524 135.736 23.6774 135.125 23.6774C134.514 23.6774 134.215 23.4304 134.215 22.9494V22.8714C134.215 22.5984 134.059 22.4554 133.747 22.4554H132.226C131.914 22.4554 131.758 22.6114 131.758 22.9234V23.0144C131.758 24.8214 132.98 25.8224 135.19 25.8224Z" fill="#607A95"/>
<path fill-rule="evenodd" clip-rule="evenodd" d="M25.4506 15.8506C26.2792 15.9196 26.9864 16.6921 26.9837 17.5226V23.9337C37.2255 24.0441 48.1211 30.6255 55.5194 42.1559C55.8045 42.1439 56.074 42.1181 56.3554 42.1209C56.9293 42.1264 57.506 42.1926 58.0624 42.2607C61.6244 42.693 64.8377 44.4422 66.5981 47.4873H66.6331C66.8143 47.8074 66.9292 48.1017 67.0515 48.3583C67.4065 49.1051 67.1021 50.0992 66.3894 50.5186L42.1387 64.5247C41.4103 64.945 40.3747 64.7022 39.9093 64.0023C39.7751 63.8009 39.5856 63.5507 39.3869 63.2012C37.6395 60.1579 37.7039 56.4984 39.1083 53.2013C39.4173 52.4747 39.7916 51.7343 40.223 51.0409C38.2327 47.5598 36.2802 45.3194 34.0904 43.8985C32.1139 42.6164 29.8781 41.9496 26.9828 41.6682V50.797C26.9828 51.6726 26.1863 52.4691 25.3108 52.4691H1.89714C1.02158 52.4691 0.225105 51.6726 0.225105 50.797L1.17606 17.5226C1.17606 16.647 1.47632 16.8737 2.35188 16.8737L25.3108 15.8522C25.3577 15.8503 25.4037 15.8503 25.4497 15.8522L25.4506 15.8506ZM23.6387 19.1955H3.57004V49.1251H23.6387V19.1955ZM27.0536 27.2788L26.9846 38.2886C30.4049 38.5893 33.3546 39.4345 35.9388 41.1111C38.4201 42.7205 40.4941 45.0703 42.454 48.2535C43.7084 46.9364 45.1745 45.7177 46.8786 44.7348C48.5093 43.7939 50.2043 43.1115 51.8957 42.6792C45.0697 32.7915 35.5145 27.4323 27.0536 27.2788ZM56.3545 45.4658C53.9064 45.4447 51.138 46.1666 48.5501 47.6611C45.4829 49.4315 43.295 51.9405 42.2086 54.4899C41.2512 56.7386 41.1491 58.9339 41.93 60.7963L63.2531 48.4621C62.0299 46.8526 60.105 45.8649 57.6787 45.5706C57.2493 45.5182 56.8079 45.4704 56.3545 45.4658Z" fill="#7D98AD"/>
<path fill-rule="evenodd" clip-rule="evenodd" d="M88.5795 73.9178C89.0136 73.9306 89.4266 74.1127 89.7291 74.4245L96.7418 81.4482C97.3948 82.1021 97.3939 83.1616 96.74 83.8138C96.0861 84.4667 95.0275 84.4658 94.3745 83.8119L87.3618 76.7882C86.867 76.3072 86.7189 75.5714 86.9884 74.9368C87.2579 74.3013 87.8897 73.8966 88.5795 73.9178L88.5795 73.9178Z" fill="#00ABD8"/>
<path fill-rule="evenodd" clip-rule="evenodd" d="M77.8531 63.1936C78.2881 63.2065 78.7001 63.3877 79.0027 63.6995L83.9534 68.6501V68.6492C84.2725 68.9619 84.4537 69.3886 84.4555 69.8356C84.4583 70.2826 84.2817 70.7112 83.9663 71.0276C83.6508 71.343 83.2213 71.5196 82.7743 71.5178C82.3283 71.515 81.9006 71.3338 81.5879 71.0147L76.6372 66.065H76.6382C76.1434 65.5839 75.9944 64.8491 76.2629 64.2136C76.5324 63.5781 77.1633 63.1725 77.8531 63.1937L77.8531 63.1936Z" fill="#00ABD8"/>
<path fill-rule="evenodd" clip-rule="evenodd" d="M69.1789 54.5173C69.613 54.5302 70.0251 54.7123 70.3285 55.0231L73.2273 57.9219C73.5465 58.2346 73.7267 58.6614 73.7295 59.1083C73.7313 59.5544 73.5557 59.9839 73.2393 60.2994C72.9238 60.6158 72.4952 60.7914 72.0483 60.7896C71.6022 60.7877 71.1746 60.6065 70.8619 60.2874L67.9631 57.3886C67.4692 56.9076 67.3202 56.1728 67.5888 55.5373C67.8582 54.9027 68.4891 54.4971 69.1789 54.5173Z" fill="#00ABD8"/>
<path fill-rule="evenodd" clip-rule="evenodd" d="M51.8905 95.0185C52.6851 94.9808 53.3951 95.5078 53.5901 96.2785L56.1654 105.878H56.1663C56.2859 106.308 56.2289 106.768 56.0081 107.156C55.7865 107.544 55.4195 107.827 54.9882 107.943C54.5569 108.059 54.0979 107.997 53.7116 107.772C53.3263 107.547 53.0467 107.177 52.9354 106.745L50.3601 97.1449C50.2203 96.6538 50.3132 96.1268 50.6112 95.712C50.9101 95.2981 51.381 95.0424 51.8905 95.0185L51.8905 95.0185Z" fill="#00ABD8"/>
<path fill-rule="evenodd" clip-rule="evenodd" d="M47.9659 80.3686C48.7605 80.3309 49.4714 80.857 49.6664 81.6286L51.4837 88.3957C51.6033 88.8252 51.5463 89.2851 51.3246 89.6732C51.1039 90.0604 50.7369 90.3427 50.3065 90.4586C49.8752 90.5745 49.4163 90.5129 49.0309 90.2884C48.6455 90.064 48.365 89.6943 48.2537 89.263L46.4364 82.4959H46.4355C46.2966 82.0048 46.3895 81.4768 46.6875 81.0621C46.9855 80.6482 47.4563 80.3925 47.9659 80.3686V80.3686Z" fill="#00ABD8"/>
<path fill-rule="evenodd" clip-rule="evenodd" d="M44.7895 68.5282C45.5842 68.4914 46.2942 69.0193 46.4892 69.79L47.5487 73.7483L47.5477 73.7474C47.6682 74.1778 47.6103 74.6386 47.3896 75.0257C47.1679 75.4139 46.8 75.6971 46.3687 75.8121C45.9374 75.928 45.4784 75.8654 45.0921 75.6401C44.7068 75.4148 44.4281 75.0451 44.3168 74.6119L43.2573 70.6536V70.6545C43.1185 70.1634 43.2114 69.6355 43.5103 69.2216C43.8082 68.8069 44.28 68.5521 44.7896 68.5282L44.7895 68.5282Z" fill="#00ABD8"/>
<path fill-rule="evenodd" clip-rule="evenodd" d="M60.9434 89.8007C61.7371 89.763 62.449 90.29 62.6439 91.0607L65.2192 100.65H65.2202C65.3351 101.077 65.2753 101.534 65.0537 101.919C64.832 102.303 64.4669 102.584 64.0383 102.699C63.1462 102.938 62.2284 102.409 61.9893 101.517L59.414 91.928V91.9289C59.2742 91.4378 59.3671 90.9099 59.665 90.4951C59.963 90.0813 60.433 89.8256 60.9434 89.8008L60.9434 89.8007Z" fill="#00ABD8"/>
<path fill-rule="evenodd" clip-rule="evenodd" d="M57.0184 75.1518C57.813 75.1141 58.524 75.6402 58.719 76.4109L60.5363 83.1669V83.1678C60.6614 83.5992 60.608 84.0627 60.3873 84.4536C60.1666 84.8454 59.7987 85.1314 59.3646 85.2482C58.9305 85.365 58.4688 85.3015 58.0816 85.0744C57.6944 84.8463 57.4148 84.472 57.3072 84.036L55.4899 77.28C55.3501 76.7889 55.443 76.261 55.74 75.8471C56.038 75.4323 56.5089 75.1766 57.0184 75.1518V75.1518Z" fill="#00ABD8"/>
<path fill-rule="evenodd" clip-rule="evenodd" d="M53.8447 63.2992C54.6384 63.2624 55.3493 63.7894 55.5434 64.5601L56.6029 68.5184C56.7261 68.9497 56.67 69.4114 56.4493 69.8013C56.2276 70.1913 55.8598 70.4764 55.4266 70.5923C54.9934 70.7082 54.5317 70.6456 54.1454 70.4175C53.7592 70.1904 53.4805 69.817 53.3719 69.382L52.3124 65.4244C52.1736 64.9333 52.2665 64.4054 52.5644 63.9915C52.8633 63.5777 53.3342 63.322 53.8447 63.299L53.8447 63.2992Z" fill="#00ABD8"/>
<path fill-rule="evenodd" clip-rule="evenodd" d="M80.3726 78.6574C80.8067 78.6703 81.2196 78.8515 81.5222 79.1623L88.5459 86.175V86.1759C88.8715 86.4868 89.0573 86.9153 89.0619 87.3651C89.0674 87.8148 88.8908 88.2471 88.5735 88.5653C88.2553 88.8835 87.8231 89.061 87.3733 89.0564C86.9236 89.0518 86.495 88.8669 86.1832 88.5423L79.1595 81.5296C78.6647 81.0486 78.5157 80.3138 78.7842 79.6783C79.0519 79.0437 79.6828 78.6381 80.3725 78.6574H80.3726Z" fill="#00ABD8"/>
<path fill-rule="evenodd" clip-rule="evenodd" d="M69.6476 67.9305C70.0817 67.9433 70.4946 68.1245 70.7972 68.4363L75.7479 73.386C76.0633 73.6996 76.2418 74.1254 76.2427 74.5706C76.2436 75.0157 76.0679 75.4424 75.7534 75.757C75.4389 76.0715 75.0112 76.2481 74.567 76.2472C74.1218 76.2463 73.696 76.0678 73.3824 75.7524L68.4318 70.8017C67.9369 70.3207 67.7889 69.5859 68.0574 68.9504C68.326 68.3148 68.9578 67.9102 69.6476 67.9304L69.6476 67.9305Z" fill="#00ABD8"/>
<path fill-rule="evenodd" clip-rule="evenodd" d="M60.9696 59.2565C61.4037 59.2685 61.8166 59.4487 62.1201 59.7596L65.03 62.6584H65.0309C65.6848 63.3104 65.6866 64.3699 65.0346 65.0239C64.3825 65.6787 63.3239 65.6805 62.6691 65.0285L59.7592 62.1297C59.2635 61.6496 59.1136 60.9147 59.3812 60.2792C59.6498 59.6428 60.2798 59.2372 60.9695 59.2565L60.9696 59.2565Z" fill="#00ABD8"/>
<path fill-rule="evenodd" clip-rule="evenodd" d="M70.8698 84.4376C71.4804 84.4321 72.0461 84.7604 72.344 85.2938L77.3168 93.9014C77.544 94.2858 77.6084 94.7447 77.4952 95.177C77.3821 95.6093 77.1007 95.9781 76.7144 96.2016C76.3272 96.4251 75.8674 96.4848 75.436 96.3671C75.0056 96.2494 74.6396 95.9643 74.4207 95.5743L69.4479 86.9668V86.9677C69.1407 86.4526 69.1324 85.8135 69.4258 85.2911C69.7192 84.7677 70.2701 84.4431 70.8697 84.4376L70.8698 84.4376Z" fill="#00ABD8"/>
<path fill-rule="evenodd" clip-rule="evenodd" d="M63.2882 71.3042C63.8989 71.2996 64.4645 71.628 64.7625 72.1614L68.2628 78.2269C68.4937 78.6113 68.5608 79.073 68.4477 79.5071C68.3355 79.9412 68.0531 80.3119 67.665 80.5363C67.2769 80.7597 66.8143 80.8186 66.3821 80.699C65.9498 80.5795 65.5838 80.2916 65.3667 79.8989L61.8654 73.8334C61.5583 73.3193 61.55 72.6792 61.8443 72.1568C62.1377 71.6344 62.6886 71.3098 63.2882 71.3042H63.2882Z" fill="#00ABD8"/>
<path d="M20.292 24.799C26.7018 23.7201 42.3013 25.7129 53.4201 42.315C56.7837 42.7592 63.8536 44.5615 65.2244 48.217L41.9966 62.4964C40.6004 61.7348 38.6457 58.422 41.9966 51.2633C39.2042 46.6304 30.9539 37.7074 20.292 39.0782V24.799Z" fill="#7D98AD"/>
<path d="M0 17.6978C0 16.5932 0.89543 15.6978 2 15.6978H25.4164C26.5209 15.6978 27.4164 16.5932 27.4164 17.6978V50.6337C27.4164 51.7383 26.5209 52.6337 25.4164 52.6337H2C0.895431 52.6337 0 51.7383 0 50.6337V17.6978Z" fill="#607A95"/>
<path d="M41.0001 65.5001L68 50C67.1667 47 63.1 40.8003 55.5 42.0003L39.9997 51.0001C38.1664 54.1667 35.8001 61.9001 41.0001 65.5001Z" fill="#95A7B8"/>
<rect x="68.8652" y="47.9131" width="3.25518" height="34.7415" rx="1.62759" transform="rotate(59.9908 68.8652 47.9131)" fill="#607A95"/>
</svg>
