<svg width="136" height="112" viewBox="0 0 136 112" fill="none" xmlns="http://www.w3.org/2000/svg">
<rect x="68.325" y="30.3403" width="56.8116" height="33.4728" rx="4" fill="#F1F6F7"/>
<rect x="72.2031" y="34.5259" width="49.0556" height="24.7955" rx="3.5" stroke="#95A7B8"/>
<rect x="99.8408" y="40.3608" width="17.7325" height="14.9687" rx="1.5" stroke="#95A7B8"/>
<rect x="135.845" y="86.3535" width="25.4884" height="39.9217" rx="3" transform="rotate(90 135.845 86.3535)" fill="black"/>
<rect x="104.335" y="44.2778" width="2.33388" height="5.8347" rx="1.16694" fill="black"/>
<rect x="110.17" y="44.2778" width="2.33388" height="5.8347" rx="1.16694" fill="black"/>
<rect x="76.5022" y="40.3608" width="17.7325" height="14.9687" rx="1.5" stroke="#95A7B8"/>
<rect x="80.9966" y="44.2778" width="2.33388" height="5.8347" rx="1.16694" fill="black"/>
<rect x="86.8313" y="44.2778" width="2.33388" height="5.8347" rx="1.16694" fill="black"/>
<rect x="132.16" y="89.8545" width="18.7325" height="15.9687" rx="2" transform="rotate(90 132.16 89.8545)" fill="#2C2B2B"/>
<rect x="127.742" y="94.8491" width="2.33388" height="5.8347" rx="1.16694" transform="rotate(90 127.742 94.8491)" fill="#E7E7E7"/>
<rect x="127.742" y="100.684" width="2.33388" height="5.8347" rx="1.16694" transform="rotate(90 127.742 100.684)" fill="#E7E7E7"/>
<rect x="30.9849" y="74.4434" width="4.29926" height="4.60635" rx="2.14963" fill="#D9D9D9"/>
<rect x="29.7563" y="79.5405" width="7.06306" height="8.9056" rx="1" fill="black"/>
<rect x="101.758" y="94.9517" width="9.82687" height="8.9056" rx="1" transform="rotate(90 101.758 94.9517)" fill="black"/>
<path d="M94.0193 100.357H37.1939C34.9847 100.357 33.1938 98.5658 33.1938 96.3567V83.7124" stroke="black" stroke-width="2"/>
<rect x="14.095" y="72.4165" width="35.9295" height="6.14179" fill="black"/>
<path d="M52.103 76.3504L52.1274 10.2757C52.1268 9.11783 51.6674 8.00833 50.8495 7.18974C50.0315 6.37112 48.9219 5.9112 47.7643 5.90988L16.8664 5.89834C15.7092 5.89909 14.6003 6.35919 13.7823 7.17728C12.9637 7.99528 12.5039 9.10422 12.5026 10.2618L12.4782 76.3365C12.479 77.4937 12.9389 78.6033 13.757 79.4213C14.575 80.2399 15.6839 80.7003 16.8414 80.7017L47.7393 80.7132L47.7392 80.7139C48.8959 80.7123 50.0055 80.2524 50.8234 79.4342C51.6412 78.6168 52.1018 77.5073 52.103 76.3504ZM47.7388 78.2203L16.8426 78.2091L16.8427 78.2084C15.8101 78.2075 14.9738 77.371 14.9726 76.3387L14.9735 73.2211L49.6113 73.2344L49.6107 76.3508C49.6091 77.3833 48.772 78.2194 47.7396 78.2206L47.7388 78.2203Z" fill="black"/>
<rect x="14.4614" y="7.67725" width="35.6224" height="69.0952" rx="3" fill="#181818"/>
<circle cx="32.4263" cy="12.1304" r="1.99608" fill="black"/>
<path d="M28.5649 29.3218V32.8218H28.2049V29.6418H27.3799V29.3218H28.5649ZM31.8715 29.3218V29.5768L30.4065 32.8218H30.0165L31.4565 29.6418H29.6565V30.2968H29.3015V29.3218H31.8715ZM32.5182 30.7168C32.4449 30.7168 32.3816 30.6901 32.3282 30.6368C32.2782 30.5834 32.2532 30.5184 32.2532 30.4418C32.2532 30.3651 32.2782 30.3018 32.3282 30.2518C32.3816 30.1984 32.4449 30.1718 32.5182 30.1718C32.5916 30.1718 32.6549 30.1984 32.7082 30.2518C32.7616 30.3018 32.7882 30.3651 32.7882 30.4418C32.7882 30.5184 32.7616 30.5834 32.7082 30.6368C32.6549 30.6901 32.5916 30.7168 32.5182 30.7168ZM32.5182 32.8468C32.4449 32.8468 32.3816 32.8201 32.3282 32.7668C32.2782 32.7134 32.2532 32.6484 32.2532 32.5718C32.2532 32.4951 32.2782 32.4318 32.3282 32.3818C32.3816 32.3284 32.4449 32.3018 32.5182 32.3018C32.5916 32.3018 32.6549 32.3284 32.7082 32.3818C32.7616 32.4318 32.7882 32.4951 32.7882 32.5718C32.7882 32.6484 32.7616 32.7134 32.7082 32.7668C32.6549 32.8201 32.5916 32.8468 32.5182 32.8468ZM34.4978 30.8218C34.8645 30.8418 35.1428 30.9418 35.3328 31.1218C35.5261 31.2984 35.6228 31.5301 35.6228 31.8168C35.6228 32.0168 35.5745 32.1951 35.4778 32.3518C35.3811 32.5051 35.2378 32.6268 35.0478 32.7168C34.8578 32.8068 34.6261 32.8518 34.3528 32.8518C34.0995 32.8518 33.8595 32.8118 33.6328 32.7318C33.4095 32.6484 33.2295 32.5384 33.0928 32.4018L33.2678 32.1168C33.3845 32.2368 33.5395 32.3351 33.7328 32.4118C33.9261 32.4851 34.1328 32.5218 34.3528 32.5218C34.6395 32.5218 34.8611 32.4601 35.0178 32.3368C35.1745 32.2101 35.2528 32.0368 35.2528 31.8168C35.2528 31.6001 35.1745 31.4301 35.0178 31.3068C34.8611 31.1834 34.6245 31.1218 34.3078 31.1218H34.0578V30.8568L35.0278 29.6418H33.2378V29.3218H35.4878V29.5768L34.4978 30.8218ZM39.1051 31.9018H38.4051V32.8218H38.0451V31.9018H36.0701V31.6418L37.9251 29.3218H38.3251L36.5351 31.5818H38.0551V30.7718H38.4051V31.5818H39.1051V31.9018Z" fill="white"/>
<path d="M32.6436 69.8998C32.6436 69.8998 32.3966 68.8496 33.4462 68.8496C34.4959 68.8496 34.2489 69.8998 34.2489 69.8998M32.1497 70.0165H34.7428V71.7669H32.1497V70.0165Z" stroke="white" stroke-width="0.3" stroke-linecap="round" stroke-linejoin="round"/>
</svg>
