<svg width="88" height="109" viewBox="0 0 88 109" fill="none" xmlns="http://www.w3.org/2000/svg">
<path d="M81.165 107.703H5.83486C2.61647 107.703 0 104.929 0 101.522L6 6.18146C6 2.77488 8.61576 0.000998959 11.8349 0.000998959H14.1366C17.355 0.000998959 19.9714 2.77513 19.9714 6.18245V30.4927C19.9714 32.8363 21.5 30.4927 32 34.7426C42.5 38.9925 41.5 30.4927 51.5 30.4927C61.5 30.4927 63.0123 34.7426 63.0123 34.7426C67.0248 36.4389 67.0239 32.8363 67.0239 30.4927L67.0248 6.18146C67.0248 2.77188 69.6434 0 72.8597 0H75.1614C78.3798 0 80.9963 2.77413 80.9963 6.18146L86.9963 101.52C86.999 104.93 84.3824 107.704 81.164 107.704L81.165 107.703Z" fill="#00ABD8"/>
<path d="M79.255 98.6334H7.74503C6.78131 98.6334 6 97.8057 6 96.7847C6 95.7637 6.78131 94.936 7.74503 94.936H79.255C80.2187 94.936 81 95.7637 81 96.7847C81 97.8057 80.2178 98.6334 79.255 98.6334Z" fill="#00ABD8"/>
<rect x="12.6074" y="60" width="4.80222" height="39.1736" rx="2.40111" fill="#95D2DC"/>
<rect x="10.2393" y="7.93115" width="6" height="20" rx="2" transform="rotate(1.36846 10.2393 7.93115)" fill="#C9EEF6"/>
<rect x="70.8271" y="8.05371" width="6" height="20" rx="2" transform="rotate(-0.994145 70.8271 8.05371)" fill="#C9EEF6"/>
<path d="M5.5 107.5L80.5 108C81.6667 108 87.5 108.5 87.5 100L81 5.5C80.5 2.5 79.4 1.3 77 0.5L83 100C83 102 80 104.5 76.5 104H0.5C0.5 105.167 2.5 107.5 5.5 107.5Z" fill="#039FC8"/>
</svg>
