<svg width="79" height="108" viewBox="0 0 79 108" fill="none" xmlns="http://www.w3.org/2000/svg">
<path d="M0 32H79V102C79 105.314 76.3137 108 73 108H5C2.23858 108 0 105.761 0 103V32Z" fill="#E7E7E7"/>
<circle cx="39.5" cy="73.5" r="27.5" fill="#D9D9D9"/>
<rect x="26" width="28" height="9" fill="#CCCCCC"/>
<path d="M17 6L26 0V32H17V6Z" fill="#D9D9D9"/>
<path d="M63 6L54 0V32H63V6Z" fill="#D9D9D9"/>
<path d="M39.7517 80.2101C36.9951 76.9409 37.5745 72.1948 40.9097 69.5998C41.7421 68.9522 43.2295 68.3128 45.4595 67.6479C50.4029 66.1714 57.2912 65.0628 57.5809 65.0165C58.5057 64.8678 59.2617 65.7486 58.9136 66.5974C58.9014 66.6282 57.6548 69.6756 56.0747 72.9528C55.0375 75.1033 52.6951 79.8371 50.7915 81.323C47.426 83.939 42.4782 83.439 39.7517 80.2101Z" fill="#389E69"/>
<path d="M28.2088 81.3191C26.307 79.8374 23.9586 75.095 22.9251 72.951C21.345 69.6748 20.0984 66.6287 20.0861 66.5972C19.7405 65.7549 20.4862 64.8662 21.4189 65.0168C24.9457 65.6154 35.3146 67.439 38.0938 69.5989C41.4576 72.2185 41.9785 76.9764 39.2519 80.2082C36.5253 83.44 31.5706 83.9406 28.2088 81.3191Z" fill="#2A8054"/>
<path d="M76 32H79V105C79 106.657 77.6569 108 76 108V32Z" fill="#D9D9D9"/>
<path d="M77 105L77 108L4.17963 108C2.28717 108 0.605522 106.793 0 105L77 105Z" fill="#D9D9D9"/>
<path d="M69 105C71.4 105 75 105 76 100.5L76.5 106.5L69 105Z" fill="#D9D9D9"/>
</svg>
