<svg width="152" height="55" viewBox="0 0 152 55" fill="none" xmlns="http://www.w3.org/2000/svg">
<ellipse cx="76" cy="49" rx="76" ry="6" fill="#A4C8D0"/>
<path d="M40.1998 10.7356C39.6095 9.79804 39.8938 8.55924 40.8339 7.97296L48.6044 3.12681C48.8749 2.95814 49.1785 2.8568 49.4962 2.83083C56.1237 2.28903 68.5865 1.29886 69.0015 1.38186C69.4131 1.46419 78.5581 2.35012 83.514 2.82455C83.8274 2.85456 84.1291 2.95808 84.395 3.12682L95.0463 9.88628L101.019 13.9994C102.636 15.113 101.848 17.6466 99.8844 17.6466H45.6553C44.9681 17.6466 44.329 17.2938 43.9629 16.7122L40.1998 10.7356Z" fill="#BADAF1"/>
<path d="M119.835 36.7896C118.89 36.7841 118.034 37.3455 117.662 38.2136C117.291 39.0829 117.476 40.0895 118.132 40.7694C118.789 41.4493 119.788 41.6697 120.67 41.3297C121.551 40.9887 122.143 40.1526 122.17 39.208C122.189 38.5757 121.952 37.9623 121.513 37.5071C121.073 37.0509 120.468 36.7929 119.835 36.7896H119.835Z" fill="#0F3653"/>
<path d="M119.835 27.001C116.62 27.001 113.537 28.2766 111.262 30.5479C108.986 32.8191 107.705 35.9009 107.699 39.1156C107.692 42.3302 108.962 45.4165 111.229 47.6966C113.495 49.9766 116.574 51.2633 119.79 51.2766C123.004 51.2888 126.093 50.0242 128.377 47.762C130.662 45.4997 131.954 42.4235 131.973 39.2088C131.992 35.9777 130.721 32.8724 128.443 30.5814C126.165 28.2903 123.066 27.0013 119.835 27.0013L119.835 27.001ZM119.835 44.2846C118.466 44.2879 117.152 43.7453 116.183 42.7775C115.215 41.8085 114.672 40.4941 114.676 39.1242C114.68 37.7545 115.229 36.4434 116.203 35.4801C117.177 34.5167 118.495 33.9818 119.864 33.9929C121.233 34.004 122.542 34.561 123.5 35.5399C124.458 36.5188 124.986 37.8387 124.967 39.2084C124.949 40.5583 124.4 41.8472 123.44 42.7973C122.48 43.7463 121.186 44.2811 119.835 44.2845L119.835 44.2846Z" fill="#0F3653"/>
<path d="M34.3568 27.001C31.1432 27.0087 28.0637 28.2899 25.7936 30.5643C23.5236 32.8388 22.2478 35.9207 22.2467 39.134C22.2456 42.3475 23.5191 45.4304 25.7868 47.7059C28.0558 49.9815 31.1341 51.2662 34.3466 51.2761C37.5601 51.2849 40.6464 50.0203 42.9284 47.7581C45.2106 45.4969 46.5028 42.4218 46.5207 39.2083C46.5362 35.9737 45.2605 32.8665 42.9771 30.5754C40.6938 28.2832 37.591 26.9976 34.3565 27.001H34.3568ZM34.3568 44.2846C32.9881 44.2801 31.6781 43.732 30.7157 42.7609C29.7523 41.7886 29.2164 40.4742 29.2252 39.1054C29.2341 37.7378 29.7867 36.43 30.7622 35.47C31.7367 34.511 33.0544 33.9795 34.422 33.9928C35.7896 34.0072 37.0962 34.5642 38.052 35.5431C39.0077 36.522 39.5347 37.8409 39.5159 39.2085C39.4971 40.5639 38.9456 41.8562 37.9789 42.8073C37.0133 43.7574 35.711 44.2879 34.3568 44.2845L34.3568 44.2846Z" fill="#0F3653"/>
<path d="M34.3567 36.7896C33.4133 36.7951 32.5662 37.3632 32.2029 38.2336C31.8408 39.1029 32.0324 40.1061 32.6913 40.7794C33.3491 41.4538 34.3468 41.6697 35.2249 41.3264C36.103 40.9843 36.691 40.1505 36.7198 39.2081C36.7386 38.5702 36.4972 37.9523 36.0521 37.4961C35.6058 37.041 34.9934 36.7852 34.3567 36.7896H34.3567Z" fill="#0F3653"/>
<path d="M141.187 26.4283C132.237 20.4707 121.121 17.2407 107.067 16.5564L88.0493 3.21601C86.4768 2.1131 84.6742 1.38112 82.7782 1.0766C78.6544 0.485289 74.4975 0.144205 70.3328 0.0556175C70.2542 0.0489735 70.1745 0.0489735 70.0947 0.0556175H69.9131C63.371 -0.143704 56.8242 0.192925 50.3373 1.0622C48.5622 1.33682 46.8681 1.99571 45.373 2.99232L28.9143 13.8987H18.8187C17.4445 13.9031 16.1267 14.4502 15.1544 15.4224C14.1833 16.3947 13.6351 17.7124 13.6318 19.0867V21.2261C13.6318 21.813 13.4181 22.38 13.0305 22.8207L10.5135 25.6179V25.6168C9.49918 26.7263 9.01525 28.2201 9.18469 29.7139L10.3873 39.2083C10.5379 40.4662 11.1447 41.6256 12.0937 42.4661C13.0416 43.3065 14.2663 43.7694 15.5332 43.7672H20.1896C19.7002 42.2966 19.4499 40.7575 19.4488 39.2082C19.4488 33.8731 22.2947 28.9431 26.9157 26.2755C31.5356 23.6079 37.2285 23.6079 41.8495 26.2755C46.4706 28.9431 49.3164 33.8731 49.3164 39.2082C49.3231 40.7807 49.0728 42.3441 48.5756 43.8369H105.669C105.162 42.3464 104.903 40.783 104.899 39.2082C104.899 33.8731 107.746 28.9431 112.366 26.2755C116.987 23.6079 122.68 23.6079 127.301 26.2755C131.921 28.9431 134.768 33.8731 134.768 39.2082C134.774 40.7807 134.523 42.3441 134.026 43.8369H138.222C139.61 43.8369 140.943 43.281 141.919 42.2933C142.897 41.3055 143.439 39.9678 143.423 38.5791V30.6926C143.44 28.9862 142.599 27.3838 141.186 26.4282L141.187 26.4283ZM68.6977 16.5419H45.9472L41.7525 8.79493L46.9394 5.3699C48.1076 4.59475 49.4287 4.07984 50.8128 3.85949C56.7382 3.05332 62.7191 2.71671 68.6977 2.8529V16.5419ZM71.4949 16.5419L71.4938 2.93593C75.1249 3.03227 78.7481 3.3357 82.3446 3.84506C83.824 4.0776 85.2304 4.64677 86.4562 5.5094L102.173 16.5419L71.4949 16.5419Z" fill="#FF4D00"/>
<rect x="46.571" y="19.3477" width="4.25222" height="1.48828" rx="0.744139" fill="#0F3653"/>
<rect x="46.571" y="19.3477" width="4.25222" height="1.48828" rx="0.744139" fill="#0F3653"/>
<rect x="71.6591" y="19.3477" width="4.25222" height="1.48828" rx="0.744139" fill="#0F3653"/>
<path d="M48.4845 44.0107H105.783L105.145 41.7783H49.1224L48.4845 44.0107Z" fill="#D3D3D3"/>
<path d="M20.2072 43.7981L19.6757 41.7783H11.4902C11.7737 42.3807 13.4037 43.9044 16.0613 43.7981H20.2072Z" fill="#D9D9D9"/>
<path d="M133.954 43.9043C135.655 43.6917 139.482 44.3295 141.077 43.0538L142.033 42.2034L142.459 41.6719H134.569L133.954 43.9043Z" fill="#D9D9D9"/>
<path d="M143.415 31.0409C143.557 29.9424 143.224 27.4265 140.758 26.1509H137.462C137.994 27.6392 139.929 30.7008 143.415 31.0409Z" fill="#EEE03D"/>
<path d="M9.15144 29.6594C9.0097 28.561 9.15144 26.4703 11.4115 24.6631H14.707C14.1755 26.1514 12.6383 29.3193 9.15144 29.6594Z" fill="#EEE03D"/>
</svg>
