<svg width="139" height="110" viewBox="0 0 139 110" fill="none" xmlns="http://www.w3.org/2000/svg">
<rect width="138.812" height="68.2941" rx="6" fill="#95A7B8"/>
<path d="M14.6113 0H124.2V16.8706C124.2 20.1843 121.513 22.8706 118.2 22.8706H20.6113C17.2976 22.8706 14.6113 20.1843 14.6113 16.8706V0Z" fill="#F2FAFC"/>
<rect x="14.6113" y="62.2588" width="109.588" height="6.03529" fill="#F2FAFC"/>
<rect x="14.6113" y="54.6353" width="109.588" height="6.03529" fill="#F2FAFC"/>
<rect x="14.6113" y="47.0117" width="109.588" height="6.03529" fill="#F2FAFC"/>
<rect x="54" y="39.7061" width="33.0353" height="3.81176" rx="1.90588" fill="#16628E"/>
<rect x="113.718" y="26.0469" width="10.4824" height="3.81176" rx="1.90588" fill="#16628E"/>
<rect x="100.694" y="26.0469" width="10.4824" height="3.81176" rx="1.90588" fill="#16628E"/>
<path d="M46.3766 74.0117C44.3122 77.6795 40.8027 85.8954 43.28 89.4165C45.2584 91.1281 48.0281 96.1652 43.28 102.621C42.0757 103.436 40.0285 105.653 41.4736 108" stroke="#FCFCFC" stroke-width="3" stroke-linecap="round"/>
<path d="M59.7174 74.0117C57.653 77.6795 54.1435 85.8954 56.6208 89.4165C58.5992 91.1281 61.3689 96.1652 56.6208 102.621C55.4165 103.436 53.3693 105.653 54.8144 108" stroke="#FCFCFC" stroke-width="3" stroke-linecap="round"/>
<path d="M72.4234 74.0117C70.359 77.6795 66.8496 85.8954 69.3268 89.4165C71.3052 91.1281 74.075 96.1652 69.3268 102.621C68.1226 103.436 66.0754 105.653 67.5205 108" stroke="#FCFCFC" stroke-width="3" stroke-linecap="round"/>
<path d="M85.4469 74.0117C83.3825 77.6795 79.873 85.8954 82.3503 89.4165C84.3287 91.1281 87.0984 96.1652 82.3503 102.621C81.146 103.436 79.0988 105.653 80.5439 108" stroke="#FCFCFC" stroke-width="3" stroke-linecap="round"/>
<path d="M98.1529 74.0117C96.0885 77.6795 92.5791 85.8954 95.0563 89.4165C97.0347 91.1281 99.8045 96.1652 95.0563 102.621C93.8521 103.436 91.8049 105.653 93.25 108" stroke="#FCFCFC" stroke-width="3" stroke-linecap="round"/>
</svg>
