<svg width="90" height="107" viewBox="0 0 90 107" fill="none" xmlns="http://www.w3.org/2000/svg">
<ellipse cx="46.1941" cy="47.545" rx="30.8367" ry="28.5753" fill="#EEE03D"/>
<path d="M73.2701 61.3716C64.2448 70.5894 62.1389 75.8897 58.7293 86.9511H32.1546C32.4053 83.0335 30.6504 72.8939 21.625 63.676L73.2701 61.3716Z" fill="#EEE03D"/>
<rect x="35.4141" y="61.3716" width="22.062" height="5.99159" rx="2.99579" fill="#CCC031"/>
<rect x="37.9209" y="79.8071" width="17.0479" height="5.99159" rx="2.99579" fill="#CCC031"/>
<path d="M53.4639 64.1367C52.0433 66.4412 49.4025 73.078 50.2048 81.1897" stroke="#CCC031" stroke-width="3"/>
<path d="M39.4252 64.1367C40.8459 66.4412 43.4866 73.078 42.6844 81.1897" stroke="#CCC031" stroke-width="3"/>
<rect x="39.4253" y="99.165" width="13.0366" height="7.83515" rx="3.91758" fill="#0D506E"/>
<rect x="31.9038" y="83.0337" width="28.0789" height="9.21783" rx="4.60891" fill="#95A7B8"/>
<rect x="31.9038" y="92.251" width="28.0789" height="9.21783" rx="4.60891" fill="#E7E7E7"/>
<path d="M45.1152 11.0151V2" stroke="#EEE03D" stroke-width="4" stroke-linecap="round"/>
<path d="M23.6135 15.7563L18 8.36377" stroke="#EEE03D" stroke-width="4" stroke-linecap="round"/>
<path d="M66.4614 15.7995L73.3965 9.4248" stroke="#EEE03D" stroke-width="4" stroke-linecap="round"/>
<path d="M12.125 29.6992L3 26.3945" stroke="#EEE03D" stroke-width="4" stroke-linecap="round"/>
<path d="M79.1539 31.7316L87.7876 27.4546" stroke="#EEE03D" stroke-width="4" stroke-linecap="round"/>
</svg>
