<svg width="77" height="65" viewBox="0 0 77 65" fill="none" xmlns="http://www.w3.org/2000/svg">
<rect width="24.3763" height="45.8584" rx="3" fill="black"/>
<rect x="76.2842" y="49.2261" width="15.7739" height="24.6238" rx="3" transform="rotate(90 76.2842 49.2261)" fill="black"/>
<rect x="74.0112" y="51.3928" width="11.5929" height="9.84952" rx="2" transform="rotate(90 74.0112 51.3928)" fill="#2C2B2B"/>
<rect x="71.2861" y="54.4841" width="1.44436" height="3.59886" rx="0.722179" transform="rotate(90 71.2861 54.4841)" fill="#E7E7E7"/>
<rect x="71.2861" y="58.095" width="1.44436" height="3.59886" rx="0.722179" transform="rotate(90 71.2861 58.095)" fill="#E7E7E7"/>
<rect x="11.6055" y="41.8555" width="2.65179" height="2.85071" rx="1.3259" fill="#D9D9D9"/>
<rect x="10.8481" y="45.0095" width="4.35652" height="5.51137" rx="1" fill="black"/>
<rect x="55.2588" y="54.5476" width="6.08151" height="5.493" rx="1" transform="rotate(90 55.2588 54.5476)" fill="black"/>
<path d="M50.4856 57.8924H16.9683C14.7591 57.8924 12.9683 56.1015 12.9683 53.8924V47.5918" stroke="black" stroke-width="2"/>
<rect x="2.03125" y="40.7632" width="20.3136" height="4.0763" fill="black"/>
<rect x="1.41406" y="0.536621" width="21.972" height="42.7606" rx="3" fill="#181818"/>
<ellipse cx="12.4949" cy="3.29219" rx="1.23119" ry="1.23531" fill="black"/>
<path d="M10.1919 13.9029V16.0029H9.97589V14.0949H9.48089V13.9029H10.1919ZM12.1759 13.9029V14.0559L11.2969 16.0029H11.0629L11.9269 14.0949H10.8469V14.4879H10.6339V13.9029H12.1759ZM12.5639 14.7399C12.5199 14.7399 12.4819 14.7239 12.4499 14.6919C12.4199 14.6599 12.4049 14.6209 12.4049 14.5749C12.4049 14.5289 12.4199 14.4909 12.4499 14.4609C12.4819 14.4289 12.5199 14.4129 12.5639 14.4129C12.6079 14.4129 12.6459 14.4289 12.6779 14.4609C12.7099 14.4909 12.7259 14.5289 12.7259 14.5749C12.7259 14.6209 12.7099 14.6599 12.6779 14.6919C12.6459 14.7239 12.6079 14.7399 12.5639 14.7399ZM12.5639 16.0179C12.5199 16.0179 12.4819 16.0019 12.4499 15.9699C12.4199 15.9379 12.4049 15.8989 12.4049 15.8529C12.4049 15.8069 12.4199 15.7689 12.4499 15.7389C12.4819 15.7069 12.5199 15.6909 12.5639 15.6909C12.6079 15.6909 12.6459 15.7069 12.6779 15.7389C12.7099 15.7689 12.7259 15.8069 12.7259 15.8529C12.7259 15.8989 12.7099 15.9379 12.6779 15.9699C12.6459 16.0019 12.6079 16.0179 12.5639 16.0179ZM13.7516 14.8029C13.9716 14.8149 14.1386 14.8749 14.2526 14.9829C14.3686 15.0889 14.4266 15.2279 14.4266 15.3999C14.4266 15.5199 14.3976 15.6269 14.3396 15.7209C14.2816 15.8129 14.1956 15.8859 14.0816 15.9399C13.9676 15.9939 13.8286 16.0209 13.6646 16.0209C13.5126 16.0209 13.3686 15.9969 13.2326 15.9489C13.0986 15.8989 12.9906 15.8329 12.9086 15.7509L13.0136 15.5799C13.0836 15.6519 13.1766 15.7109 13.2926 15.7569C13.4086 15.8009 13.5326 15.8229 13.6646 15.8229C13.8366 15.8229 13.9696 15.7859 14.0636 15.7119C14.1576 15.6359 14.2046 15.5319 14.2046 15.3999C14.2046 15.2699 14.1576 15.1679 14.0636 15.0939C13.9696 15.0199 13.8276 14.9829 13.6376 14.9829H13.4876V14.8239L14.0696 14.0949H12.9956V13.9029H14.3456V14.0559L13.7516 14.8029ZM16.516 15.4509H16.096V16.0029H15.88V15.4509H14.695V15.2949L15.808 13.9029H16.048L14.974 15.2589H15.886V14.7729H16.096V15.2589H16.516V15.4509Z" fill="white"/>
<path d="M12.6289 39.0435C12.6289 39.0435 12.4765 38.3936 13.124 38.3936C13.7714 38.3936 13.619 39.0435 13.619 39.0435M12.3242 39.1157H13.9237V40.199H12.3242V39.1157Z" stroke="white" stroke-width="0.3" stroke-linecap="round" stroke-linejoin="round"/>
<path d="M64.5488 3.48586C63.5619 0.762857 60.4368 1.11355 58.9976 1.62927C56.5304 -1.09384 52.8296 0.494724 51.2876 1.6294C46.1064 0.14422 44.3999 3.89861 44.1943 5.96145C41.9738 6.95164 42.6523 9.88093 43.2691 11.2218C41.7888 14.4399 43.2691 16.6885 44.1943 17.4105C43.4542 21.8663 48.2036 22.5677 50.6708 22.3614C54.6183 25.5795 57.0444 23.7023 57.764 22.3614C62.4517 23.8467 64.6516 21.7425 65.1656 20.5048C70.8402 19.7622 69.7917 15.4507 68.558 13.3878C70.5318 10.9124 68.9692 9.05578 67.9412 8.43691C68.9281 4.47618 66.0908 3.48591 64.5488 3.48586Z" fill="#19B3DB"/>
<ellipse cx="66.3879" cy="25.1897" rx="2.77561" ry="2.78489" fill="#19B3DB"/>
<ellipse cx="71.0145" cy="29.8312" rx="1.85041" ry="1.8566" fill="#19B3DB"/>
<ellipse cx="74.4063" cy="33.2349" rx="1.54201" ry="1.54716" fill="#19B3DB"/>
<path d="M55.2814 12.9229C55.2814 12.5069 55.3734 12.1629 55.5574 11.8909C55.7494 11.6189 56.0254 11.3189 56.3854 10.9909C56.6494 10.7509 56.8414 10.5509 56.9614 10.3909C57.0894 10.2229 57.1534 10.0349 57.1534 9.82687C57.1534 9.53087 57.0334 9.29887 56.7934 9.13087C56.5614 8.95487 56.2494 8.86687 55.8574 8.86687C55.4814 8.86687 55.1454 8.94687 54.8494 9.10687C54.5614 9.25887 54.3174 9.47487 54.1174 9.75487L52.6654 8.90287C53.0014 8.39087 53.4534 7.99487 54.0214 7.71487C54.5974 7.43487 55.2774 7.29487 56.0614 7.29487C56.9814 7.29487 57.7174 7.49087 58.2694 7.88287C58.8294 8.27487 59.1094 8.81887 59.1094 9.51487C59.1094 9.84287 59.0534 10.1309 58.9414 10.3789C58.8374 10.6269 58.7054 10.8389 58.5454 11.0149C58.3934 11.1829 58.1934 11.3789 57.9454 11.6029C57.6494 11.8669 57.4334 12.0909 57.2974 12.2749C57.1614 12.4509 57.0934 12.6669 57.0934 12.9229H55.2814ZM56.1934 15.9349C55.8654 15.9349 55.5894 15.8309 55.3654 15.6229C55.1494 15.4069 55.0414 15.1469 55.0414 14.8429C55.0414 14.5389 55.1494 14.2869 55.3654 14.0869C55.5814 13.8789 55.8574 13.7749 56.1934 13.7749C56.5294 13.7749 56.8054 13.8789 57.0214 14.0869C57.2374 14.2869 57.3454 14.5389 57.3454 14.8429C57.3454 15.1469 57.2334 15.4069 57.0094 15.6229C56.7934 15.8309 56.5214 15.9349 56.1934 15.9349Z" fill="white"/>
</svg>
