<svg width="105" height="110" viewBox="0 0 105 110" fill="none" xmlns="http://www.w3.org/2000/svg">
<path d="M105 105C105 106.657 103.657 108 102 108H26C24.3431 108 23 106.657 23 105V40.2335C23.4285 36.9029 26.0824 28.3642 33.2599 20.0006C33.8121 19.357 34.6252 19 35.4732 19H92.2456C92.9965 19 93.7221 19.2743 94.2476 19.8106C97.5647 23.1953 103.257 30.8004 104.953 39.9749C104.985 40.1465 105 40.3212 105 40.4957V105Z" fill="#77BF87"/>
<path d="M32 4C32 1.79086 33.7909 0 36 0H92C94.2091 0 96 1.79086 96 4V22H32V4Z" fill="#2A8054"/>
<rect x="44" y="9" width="42" height="4" rx="2" fill="#C9EEF6"/>
<rect x="35" y="41" width="58" height="23" fill="#2A8054" fill-opacity="0.43"/>
<rect x="35" y="70" width="29" height="23" fill="#2A8054" fill-opacity="0.43"/>
<rect x="67" y="70" width="26" height="7" fill="#2A8054" fill-opacity="0.43"/>
<rect x="67" y="78" width="26" height="7" fill="#2A8054" fill-opacity="0.43"/>
<rect x="67" y="86" width="26" height="7" fill="#2A8054" fill-opacity="0.43"/>
<path d="M23.0273 81.2681L29.1217 87.2317L9.83795 106.938C8.29288 108.517 5.76037 108.545 4.18143 107L3.80488 106.631C2.22594 105.086 2.19848 102.554 3.74355 100.975L23.0273 81.2681Z" fill="#446875"/>
<rect x="23.0273" y="81.2681" width="8.52683" height="6.53213" transform="rotate(44.3788 23.0273 81.2681)" fill="#DFFDFF"/>
<rect x="28.3584" y="77.3442" width="6.39512" height="6.53213" transform="rotate(44.3788 28.3584 77.3442)" fill="#97C5D0"/>
<circle cx="49.0676" cy="62.175" r="23.175" fill="#DFFDFF" fill-opacity="0.44" stroke="#2D4853" stroke-width="6"/>
</svg>
