<svg width="243" height="112" viewBox="0 0 243 112" fill="none" xmlns="http://www.w3.org/2000/svg">
<rect x="68.325" y="30.3403" width="56.8116" height="33.4728" rx="4" fill="#F1F6F7"/>
<rect x="72.203" y="34.5259" width="49.0556" height="24.7955" rx="3.5" stroke="#95A7B8"/>
<rect x="99.8409" y="40.3608" width="17.7325" height="14.9687" rx="1.5" stroke="#95A7B8"/>
<rect x="135.845" y="86.3535" width="25.4884" height="39.9217" rx="3" transform="rotate(90 135.845 86.3535)" fill="black"/>
<rect x="104.335" y="44.2778" width="2.33388" height="5.8347" rx="1.16694" fill="black"/>
<rect x="110.17" y="44.2778" width="2.33388" height="5.8347" rx="1.16694" fill="black"/>
<rect x="76.5021" y="40.3608" width="17.7325" height="14.9687" rx="1.5" stroke="#95A7B8"/>
<rect x="80.9967" y="44.2778" width="2.33388" height="5.8347" rx="1.16694" fill="black"/>
<rect x="86.8313" y="44.2778" width="2.33388" height="5.8347" rx="1.16694" fill="black"/>
<rect x="132.16" y="89.8545" width="18.7325" height="15.9687" rx="2" transform="rotate(90 132.16 89.8545)" fill="#2C2B2B"/>
<rect x="127.742" y="94.8491" width="2.33388" height="5.8347" rx="1.16694" transform="rotate(90 127.742 94.8491)" fill="#E7E7E7"/>
<rect x="127.742" y="100.684" width="2.33388" height="5.8347" rx="1.16694" transform="rotate(90 127.742 100.684)" fill="#E7E7E7"/>
<rect x="30.9849" y="74.4434" width="4.29926" height="4.60635" rx="2.14963" fill="#D9D9D9"/>
<rect x="29.7563" y="79.5405" width="7.06306" height="8.9056" rx="1" fill="black"/>
<rect x="101.758" y="94.9517" width="9.82687" height="8.9056" rx="1" transform="rotate(90 101.758 94.9517)" fill="black"/>
<path d="M94.0194 100.357H37.194C34.9848 100.357 33.194 98.5658 33.194 96.3567V83.7124" stroke="black" stroke-width="2"/>
<rect x="14.095" y="72.4165" width="35.9295" height="6.14179" fill="black"/>
<path d="M52.1029 76.3504L52.1273 10.2757C52.1266 9.11783 51.6673 8.00833 50.8493 7.18974C50.0313 6.37112 48.9217 5.9112 47.7642 5.90988L16.8663 5.89833C15.7091 5.89909 14.6001 6.35919 13.7822 7.17728C12.9636 7.99528 12.5038 9.10422 12.5025 10.2618L12.4781 76.3365C12.4788 77.4937 12.9388 78.6033 13.7569 79.4212C14.5749 80.2399 15.6837 80.7003 16.8413 80.7017L47.7392 80.7132L47.7391 80.7139C48.8958 80.7123 50.0053 80.2524 50.8233 79.4342C51.6411 78.6168 52.1017 77.5073 52.1029 76.3504ZM47.7387 78.2203L16.8425 78.2091L16.8426 78.2084C15.8099 78.2075 14.9737 77.371 14.9725 76.3387L14.9734 73.2211L49.6112 73.2344L49.6105 76.3508C49.609 77.3833 48.7718 78.2194 47.7395 78.2206L47.7387 78.2203Z" fill="black"/>
<rect x="14.4613" y="7.67725" width="35.6224" height="69.0952" rx="3" fill="#181818"/>
<circle cx="32.4263" cy="12.1304" r="1.99608" fill="black"/>
<path d="M28.5648 29.3218V32.8218H28.2048V29.6418H27.3798V29.3218H28.5648ZM31.8714 29.3218V29.5768L30.4064 32.8218H30.0164L31.4564 29.6418H29.6564V30.2968H29.3014V29.3218H31.8714ZM32.5181 30.7168C32.4448 30.7168 32.3814 30.6901 32.3281 30.6368C32.2781 30.5834 32.2531 30.5184 32.2531 30.4418C32.2531 30.3651 32.2781 30.3018 32.3281 30.2518C32.3814 30.1984 32.4448 30.1718 32.5181 30.1718C32.5914 30.1718 32.6548 30.1984 32.7081 30.2518C32.7614 30.3018 32.7881 30.3651 32.7881 30.4418C32.7881 30.5184 32.7614 30.5834 32.7081 30.6368C32.6548 30.6901 32.5914 30.7168 32.5181 30.7168ZM32.5181 32.8468C32.4448 32.8468 32.3814 32.8201 32.3281 32.7668C32.2781 32.7134 32.2531 32.6484 32.2531 32.5718C32.2531 32.4951 32.2781 32.4318 32.3281 32.3818C32.3814 32.3284 32.4448 32.3018 32.5181 32.3018C32.5914 32.3018 32.6548 32.3284 32.7081 32.3818C32.7614 32.4318 32.7881 32.4951 32.7881 32.5718C32.7881 32.6484 32.7614 32.7134 32.7081 32.7668C32.6548 32.8201 32.5914 32.8468 32.5181 32.8468ZM34.4977 30.8218C34.8643 30.8418 35.1427 30.9418 35.3327 31.1218C35.526 31.2984 35.6227 31.5301 35.6227 31.8168C35.6227 32.0168 35.5743 32.1951 35.4777 32.3518C35.381 32.5051 35.2377 32.6268 35.0477 32.7168C34.8577 32.8068 34.626 32.8518 34.3527 32.8518C34.0993 32.8518 33.8593 32.8118 33.6327 32.7318C33.4093 32.6484 33.2293 32.5384 33.0927 32.4018L33.2677 32.1168C33.3843 32.2368 33.5393 32.3351 33.7327 32.4118C33.926 32.4851 34.1327 32.5218 34.3527 32.5218C34.6393 32.5218 34.861 32.4601 35.0177 32.3368C35.1743 32.2101 35.2527 32.0368 35.2527 31.8168C35.2527 31.6001 35.1743 31.4301 35.0177 31.3068C34.861 31.1834 34.6243 31.1218 34.3077 31.1218H34.0577V30.8568L35.0277 29.6418H33.2377V29.3218H35.4877V29.5768L34.4977 30.8218ZM39.1049 31.9018H38.4049V32.8218H38.0449V31.9018H36.0699V31.6418L37.9249 29.3218H38.3249L36.5349 31.5818H38.0549V30.7718H38.4049V31.5818H39.1049V31.9018Z" fill="white"/>
<path d="M32.6437 69.8998C32.6437 69.8998 32.3967 68.8496 33.4464 68.8496C34.496 68.8496 34.249 69.8998 34.249 69.8998M32.1498 70.0165H34.743V71.7669H32.1498V70.0165Z" stroke="white" stroke-width="0.3" stroke-linecap="round" stroke-linejoin="round"/>
<path d="M224.518 26.4295C222.918 22.0295 217.852 22.5962 215.518 23.4295C211.518 19.0293 205.518 21.5962 203.018 23.4297C194.618 21.0299 191.852 27.0964 191.518 30.4297C187.918 32.0297 189.018 36.763 190.018 38.9297C187.618 44.1297 190.018 47.763 191.518 48.9297C190.318 56.1297 198.018 57.263 202.018 56.9297C208.418 62.1297 212.352 59.0964 213.518 56.9297C221.118 59.3297 224.685 55.9297 225.518 53.9297C234.718 52.7297 233.018 45.763 231.018 42.4297C234.218 38.4297 231.685 35.4297 230.018 34.4297C231.618 28.0297 227.018 26.4296 224.518 26.4295Z" fill="#19B3DB"/>
<circle cx="227.5" cy="61.5" r="4.5" fill="#19B3DB"/>
<circle cx="235" cy="69" r="3" fill="#19B3DB"/>
<circle cx="240.5" cy="74.5" r="2.5" fill="#19B3DB"/>
<path d="M209.451 42.14C209.451 41.4467 209.605 40.8733 209.911 40.42C210.231 39.9667 210.691 39.4667 211.291 38.92C211.731 38.52 212.051 38.1867 212.251 37.92C212.465 37.64 212.571 37.3267 212.571 36.98C212.571 36.4867 212.371 36.1 211.971 35.82C211.585 35.5267 211.065 35.38 210.411 35.38C209.785 35.38 209.225 35.5133 208.731 35.78C208.251 36.0333 207.845 36.3933 207.511 36.86L205.091 35.44C205.651 34.5867 206.405 33.9267 207.351 33.46C208.311 32.9933 209.445 32.76 210.751 32.76C212.285 32.76 213.511 33.0867 214.431 33.74C215.365 34.3933 215.831 35.3 215.831 36.46C215.831 37.0067 215.738 37.4867 215.551 37.9C215.378 38.3133 215.158 38.6667 214.891 38.96C214.638 39.24 214.305 39.5667 213.891 39.94C213.398 40.38 213.038 40.7533 212.811 41.06C212.585 41.3533 212.471 41.7133 212.471 42.14H209.451ZM210.971 47.16C210.425 47.16 209.965 46.9867 209.591 46.64C209.231 46.28 209.051 45.8467 209.051 45.34C209.051 44.8333 209.231 44.4133 209.591 44.08C209.951 43.7333 210.411 43.56 210.971 43.56C211.531 43.56 211.991 43.7333 212.351 44.08C212.711 44.4133 212.891 44.8333 212.891 45.34C212.891 45.8467 212.705 46.28 212.331 46.64C211.971 46.9867 211.518 47.16 210.971 47.16Z" fill="white"/>
</svg>
