<svg width="39" height="110" viewBox="0 0 39 110" fill="none" xmlns="http://www.w3.org/2000/svg">
<path d="M37.5322 21.8882H1.55455L3.11221 23.6425C4.13842 24.8009 4.8159 26.2253 5.06625 27.7522C5.31659 29.2791 5.12983 30.8457 4.52683 32.2704L3.08638 35.6619C1.67672 38.973 0.954519 42.5362 0.965454 46.1355V104.462C0.957507 105.371 1.52474 106.185 2.38007 106.492C13.5569 110.263 25.6617 110.263 36.8395 106.492C37.6948 106.185 38.262 104.259 38.2531 104.462V45.6243C38.2561 42.3381 37.6471 39.0788 36.459 36.0151L34.8487 31.8248C33.8533 29.1843 34.2834 26.218 35.9881 23.9698L37.5322 21.8882Z" fill="#95A7B8"/>
<path d="M22.3121 5.51489V2.22363H16.7527V5.55927C18.6953 5.42946 20.5588 5.4081 22.3121 5.51491V5.51489Z" fill="#7D98AD"/>
<path d="M23.4416 2.22376C24.0459 2.22376 24.5357 1.73392 24.5357 1.12967C24.5357 0.527127 24.0485 0.0379971 23.446 0.0355921L15.6429 0.00444675C15.0283 0.00199376 14.5288 0.499516 14.5288 1.11409C14.5288 1.72694 15.0256 2.22374 15.6385 2.22375L23.4416 2.22376Z" fill="#004D88"/>
<path d="M1.74229 22.2376H37.3224C38.4343 20.5698 38.1434 18.3224 36.7665 16.6782H2.29823C1.18635 18.346 0.630424 19.4579 1.74229 22.2376Z" fill="#16628E"/>
<path d="M36.7664 16.6784L36.0239 9.21099C35.9426 8.46785 35.4781 7.82667 34.8067 7.53112C29.9447 5.47637 24.7325 4.42821 19.4723 4.44803C14.2121 4.46692 9.00725 5.55283 4.15985 7.64353C3.47832 7.92493 3.00825 8.57365 2.9427 9.32339L2.2981 16.6784H36.7664Z" fill="#004D88"/>
</svg>
