<svg width="122" height="109" viewBox="0 0 122 109" fill="none" xmlns="http://www.w3.org/2000/svg">
<path d="M91.7348 103.514C92.6764 101.506 92.1271 98.3686 91.7348 97.0814C72.7718 96.4378 34.5232 94.3002 32.8949 95.5216C30.1657 97.5687 30.7262 100.883 30.7263 103.514H91.7348Z" fill="#E7E7E7"/>
<rect x="93.2178" y="20.4688" width="2.33931" height="71.3488" transform="rotate(65.085 93.2178 20.4688)" fill="#95A7B8"/>
<rect x="93.7148" y="51.6226" width="2.33931" height="71.3488" transform="rotate(116.841 93.7148 51.6226)" fill="#95A7B8"/>
<rect x="63.7139" y="72.1738" width="2.33931" height="71.3488" transform="rotate(178.09 63.7139 72.1738)" fill="#95A7B8"/>
<path d="M92.201 98.0071V98.2376H92.2005C92.2086 98.3655 92.2086 98.4945 92.2005 98.6224H31.0381C31.0289 98.4945 31.0289 98.3655 31.0381 98.2376V98.0082V97.9117C32.6922 93.7571 38.4622 92.2573 44.2323 90.7953C47.5403 89.9484 51.3101 89.0062 52.5599 87.737C54.4839 85.8323 55.5032 77.9085 55.7723 71.3497C59.6478 71.9395 63.5903 71.9395 67.4668 71.3497V71.3486C67.7368 77.9078 68.7561 85.813 70.6792 87.736C71.9291 89.0052 75.6988 89.9475 79.0068 90.7943L79.0145 90.7962C84.7436 92.2577 90.6249 93.7579 92.201 97.9107V98.0071Z" fill="#95A7B8"/>
<path d="M32.3444 106.549C31.2621 105.467 30.6539 104 30.6539 102.469L30.6533 100.545H92.2005V102.469C92.2005 103.999 91.5923 105.467 90.51 106.549C89.4276 107.631 87.9606 108.239 86.4305 108.239H36.4239C34.8939 108.239 33.4257 107.631 32.3444 106.549Z" fill="#95A7B8"/>
<circle cx="61.4542" cy="36.4542" r="34.9542" stroke="#95A7B8" stroke-width="3"/>
<circle cx="61.6489" cy="36.2593" r="27.5464" stroke="#95A7B8" stroke-width="3"/>
<circle cx="61.7463" cy="35.5768" r="16.922" stroke="#95A7B8" stroke-width="3"/>
<path d="M55.3694 34.7011C56.9523 33.2509 61.3856 30.5286 66.455 31.2415C67.3986 28.2419 70.467 21.6263 75.1925 19.1604C77.7675 18.16 82.3937 15.6492 80.2985 13.609C77.2934 10.636 67.6922 6.23322 53.3276 12.4057C50.335 13.6917 45.0148 17.6924 47.6748 23.4078C49.6336 27.1452 53.9149 34.6362 55.3694 34.7011Z" fill="#06628E"/>
<path d="M66.4584 31.1386C67.013 33.2083 67.3808 38.3892 64.4156 42.5555C66.6358 44.7704 71.0778 50.5308 71.0841 55.8529C70.7838 58.5953 70.8756 63.8502 73.646 62.9304C77.6609 61.6328 85.9787 55.145 87.1305 39.5747C87.3704 36.3308 86.2796 29.7761 79.9965 29.5076C75.7868 29.5264 67.1856 29.879 66.4584 31.1386Z" fill="#06628E"/>
<path d="M64.7549 40.5781C62.6472 40.1924 57.8083 38.3049 55.3144 33.8405C52.3618 34.8975 45.2538 36.4429 40.4422 34.1683C38.093 32.7219 33.3055 30.5533 32.9496 33.4506C32.4018 37.6343 34.6999 47.9297 48.275 55.6418C51.1032 57.2485 57.4932 59.0714 60.4279 53.5094C62.2146 49.6976 65.5814 41.7749 64.7549 40.5781Z" fill="#06628E"/>
<ellipse cx="62.1656" cy="36.0514" rx="6.83939" ry="6.94301" fill="#004D88"/>
<path d="M80.4795 79.9609H111.079C113.664 79.9609 115.759 82.0562 115.759 84.6409V84.6409C115.759 87.2256 113.664 89.3209 111.079 89.3209H110.966C108.319 89.3209 106.173 87.1748 106.173 84.5275V83.1231" stroke="#FCFCFC" stroke-width="2" stroke-linecap="round"/>
<path d="M74 76.3608L104.6 76.3608C107.185 76.3608 109.28 74.2655 109.28 71.6808V71.6808C109.28 69.0961 107.185 67.0008 104.6 67.0008L104.487 67.0008C101.839 67.0008 99.693 69.147 99.693 71.7943L99.693 73.1987" stroke="#FCFCFC" stroke-width="2" stroke-linecap="round"/>
<path d="M92.001 26L117.001 26C119.21 26 121.001 24.179 121.001 21.9699V21.9699C121.001 19.7938 119.237 18 117.061 18V18C114.885 18 113.121 19.7641 113.121 21.9402L113.121 23.2973" stroke="#FCFCFC" stroke-width="2" stroke-linecap="round"/>
<path d="M87.001 29L112.501 29C114.434 29 116.001 30.567 116.001 32.5V32.5C116.001 34.433 114.434 36 112.501 36H112.061C109.885 36 108.121 34.2359 108.121 32.0598L108.121 31.3649" stroke="#FCFCFC" stroke-width="2" stroke-linecap="round"/>
<path d="M36.2803 61.96H5.68027C3.09558 61.96 1.00028 64.0553 1.00028 66.64V66.64C1.00028 69.2247 3.09558 71.32 5.68028 71.32H5.79375C8.44112 71.32 10.5872 69.1738 10.5872 66.5265V65.1221" stroke="#FCFCFC" stroke-width="2" stroke-linecap="round"/>
<path d="M42.7598 58.3599L12.1598 58.3599C9.57507 58.3599 7.47977 56.2646 7.47977 53.6799V53.6799C7.47977 51.0952 9.57508 48.9999 12.1598 48.9999L12.2732 48.9999C14.9206 48.9999 17.0667 51.146 17.0667 53.7933L17.0667 55.1977" stroke="#FCFCFC" stroke-width="2" stroke-linecap="round"/>
</svg>
