<svg width="101" height="109" viewBox="0 0 101 109" fill="none" xmlns="http://www.w3.org/2000/svg">
<rect x="13.5" y="15.5" width="75" height="28" rx="5.5" stroke="#EC7140" stroke-width="5"/>
<rect x="40.0225" y="24.8823" width="21.2426" height="18.0956" rx="4" fill="#CCC031"/>
<path d="M44.9454 41.9001C45.3267 43.5125 44.3287 45.1286 42.7163 45.5099L16.0444 51.8166C14.432 52.1979 12.8158 51.1998 12.4345 49.5874L6.77186 25.6392C6.63798 24.3595 6.85267 21.0686 8.59394 17.363C8.95459 16.5955 9.66938 16.0649 10.4946 15.8697L31.5621 10.8882C32.2928 10.7155 33.0673 10.8144 33.6798 11.2487C35.339 12.4254 37.7968 14.6821 39.1765 17.7119C39.2488 17.8707 39.303 18.0373 39.3431 18.207L44.9454 41.9001Z" fill="#77BF87"/>
<path d="M7.4888 12.7364C6.98045 10.5866 8.31116 8.43166 10.461 7.92331L28.0501 3.76429C30.1999 3.25595 32.3548 4.58666 32.8632 6.73651L34.0052 11.5663L8.63082 17.5662L7.4888 12.7364Z" fill="#2A8054"/>
<rect x="12.1699" y="11.2871" width="17.1111" height="1.62963" rx="0.814815" transform="rotate(-13.3035 12.1699 11.2871)" fill="#C9EEF6"/>
<rect x="11.6016" y="24.8179" width="23.6296" height="9.37037" transform="rotate(-13.3035 11.6016 24.8179)" fill="#2A8054" fill-opacity="0.4"/>
<rect x="14.3203" y="36.3159" width="11.8148" height="9.37037" transform="rotate(-13.3035 14.3203 36.3159)" fill="#2A8054" fill-opacity="0.4"/>
<rect x="27.0068" y="33.3159" width="10.5926" height="2.85185" transform="rotate(-13.3035 27.0068 33.3159)" fill="#2A8054" fill-opacity="0.4"/>
<rect x="27.7568" y="36.4878" width="10.5926" height="2.85185" transform="rotate(-13.3035 27.7568 36.4878)" fill="#2A8054" fill-opacity="0.4"/>
<rect x="28.5068" y="39.6592" width="10.5926" height="2.85185" transform="rotate(-13.3035 28.5068 39.6592)" fill="#2A8054" fill-opacity="0.4"/>
<path d="M69.2195 52.9477C70.8381 53.3018 72.4373 52.2767 72.7914 50.6582L79.3386 20.7304C79.6927 19.1119 78.6676 17.5127 77.049 17.1586L66.3826 14.8251C65.1398 14.5533 63.8607 15.0948 63.1909 16.1763L50.4733 36.7123C50.2943 37.0013 50.1658 37.3186 50.0931 37.6507L48.4142 45.3252C48.0601 46.9438 49.0851 48.543 50.7037 48.897L69.2195 52.9477Z" fill="#00ABD8"/>
<path d="M77.4701 20.0633C78.3774 20.2618 79.3254 20.0289 80.0374 19.4326L82.7341 17.1742C83.5642 16.479 83.9553 15.3905 83.7574 14.326L82.502 7.57202C82.2815 6.386 81.3721 5.44739 80.1937 5.18958L62.5049 1.31985C60.8863 0.965759 59.2872 1.99083 58.9331 3.6094L57.8133 8.72811C57.6068 9.67176 57.8674 10.6571 58.5133 11.3753L62.9514 16.3102C63.3713 16.7772 63.9273 17.1006 64.5409 17.2348L77.4701 20.0633Z" fill="#16628E"/>
<rect x="55.7861" y="3.13135" width="3.17593" height="5.95327" transform="rotate(12.3401 55.7861 3.13135)" fill="#00ABD8"/>
<rect x="64.5244" y="20.5122" width="12.25" height="10.5327" transform="rotate(12.3401 64.5244 20.5122)" fill="#16628E" fill-opacity="0.4"/>
<rect x="61.8818" y="32.5913" width="12.25" height="5.03738" transform="rotate(12.3401 61.8818 32.5913)" fill="#16628E" fill-opacity="0.4"/>
<rect x="60.5117" y="38.854" width="12.25" height="5.03738" transform="rotate(12.3401 60.5117 38.854)" fill="#16628E"/>
<rect x="74.2139" y="22.522" width="21.2426" height="18.0956" rx="4" transform="rotate(16.3101 74.2139 22.522)" fill="#CCC031"/>
<path d="M11.1912 55.0446C10.5601 50.2528 14.2896 46 19.1227 46H81.7632C86.636 46 90.3769 50.3193 89.6812 55.1422L82.9014 102.142C82.3336 106.078 78.9605 109 74.9834 109H25.313C21.2985 109 17.9057 106.025 17.3815 102.045L11.1912 55.0446Z" fill="#EC7140"/>
<rect x="49.4629" y="66.5811" width="5.50735" height="33.0441" rx="2.75368" fill="#C9EEF6"/>
<rect x="72.0449" y="66.5811" width="5.50735" height="33.0441" rx="2.75368" transform="rotate(19.0414 72.0449 66.5811)" fill="#C9EEF6"/>
<rect width="5.50735" height="33.0441" rx="2.75368" transform="matrix(-0.945283 0.326251 0.326251 0.945283 31.0674 66.5811)" fill="#C9EEF6"/>
<rect y="39" width="101" height="17" rx="8" fill="#E74E10"/>
</svg>
