<svg width="154" height="94" viewBox="0 0 154 94" fill="none" xmlns="http://www.w3.org/2000/svg">
<ellipse cx="77" cy="88" rx="77" ry="6" fill="#A4C8D0"/>
<path d="M58.5524 18.9886C58.1709 19.0487 57.4716 19.4039 57.7259 20.3435L57.687 20.9205L58.7072 20.8332C58.9025 20.682 59.1449 20.1013 58.5524 18.9886Z" fill="#2A8054"/>
<path d="M57.639 21.1929C57.3914 20.7747 56.7984 19.9092 56.4072 19.7931L56.93 18.7317C57.2629 19.1655 57.9425 20.2409 57.9983 21.0719L57.639 21.1929Z" fill="#7F6853"/>
<path d="M57.7168 27.5789C57.9733 26.9488 58.0737 25.2987 56.4236 23.7395L56.4364 22.4415L59.4169 21.4376L60.3135 22.4293C60.1417 23.1997 60.1598 25.046 61.6067 26.2687L61.4099 28.0224L59.0861 28.8052L57.7168 27.5789Z" fill="#F7F0A8"/>
<path d="M59.8412 22.364C60.3476 22.5872 61.3802 22.8581 61.4589 22.1566C61.5573 21.2798 61.333 19.6453 59.6488 20.1226C59.2787 20.3598 58.2957 20.8483 57.325 20.9053C56.8079 20.8732 55.663 20.9476 55.2197 21.5019C54.6312 21.9814 53.9103 23.2592 55.7349 24.5346C56.0554 24.5954 56.7091 23.419 56.9617 23.3339C57.2143 23.2488 57.5355 23.5344 58.4015 22.8489C59.2675 22.1635 59.8412 22.364 59.8412 22.364Z" fill="#EF5945"/>
<path d="M58.4425 27.4776C57.9912 27.3102 57.0806 27.1287 57.0488 27.7418C57.009 28.5083 57.2887 29.9157 58.7262 29.4137C59.0352 29.1885 59.8632 28.7132 60.7031 28.6132C61.1537 28.6141 62.1439 28.49 62.4999 27.9856C62.9859 27.5387 63.5453 26.3918 61.8948 25.3794C61.6134 25.3432 61.107 26.3987 60.8921 26.4857C60.6772 26.5727 60.3835 26.3415 59.6673 26.9817C58.9511 27.6218 58.4425 27.4776 58.4425 27.4776Z" fill="#EF5945"/>
<ellipse cx="59.5623" cy="24.6508" rx="0.266533" ry="0.586372" transform="rotate(-18.6148 59.5623 24.6508)" fill="#7F6853"/>
<ellipse cx="58.6531" cy="24.9569" rx="0.266533" ry="0.586372" transform="rotate(-18.6148 58.6531 24.9569)" fill="#7F6853"/>
<path d="M99.9705 24.5352C100.161 24.4385 104.665 26.4677 107.746 21.9096C108.142 21.509 109.002 21.0325 109.278 22.3309C109.171 23.144 108.014 25.3205 104.241 27.5216C103.221 27.3204 100.937 26.4413 99.9705 24.5352Z" fill="#FFEACD"/>
<path d="M97.3594 25.3799C97.2908 25.5823 99.9413 29.7515 95.8687 33.45C95.5286 33.899 95.1797 34.8189 96.504 34.9061C97.2936 34.6845 99.283 33.2293 100.924 29.1815C100.579 28.1998 99.3839 26.0652 97.3594 25.3799Z" fill="#EEE03D"/>
<path d="M95.6077 20.5166L96.3701 20.1299L96.7582 21.1313L96.1864 21.4214L95.6077 20.5166Z" fill="#5C4837"/>
<path d="M100.19 29.4573C100.256 29.2407 100.17 29.5304 100.19 29.4573C100.045 29.2864 100.347 29.6496 100.19 29.4573C103.79 32.0653 110.067 29.3208 111.508 27.9106C112.726 26.9095 112.296 26.3129 111.928 26.1398C111.316 25.8512 110.732 25.9077 109.302 26.6329C104.687 28.4947 101.7 26.0553 100.497 24.6284C98.3333 20.7408 96.8411 20.571 96.3655 20.972C94.6689 21.6803 96.8773 25.3875 99.0071 28.2413C99.4064 28.7763 100.113 29.3052 100.19 29.4573Z" fill="#FFD98C"/>
<path d="M33.7833 77.4932L31.1565 49.1236C29.2885 28.9499 44.3878 27.4087 52.171 29.1599C55.113 23.6963 62.5031 25.1323 65.8304 26.5333C74.6565 21.0698 83.8679 24.2568 87.3703 26.5333C94.5152 24.432 100.154 27.4088 102.08 29.1599C116.37 23.2758 121.694 33.3628 122.57 39.1418L117.841 46.4968V77.4932H33.7833Z" fill="#5C4837"/>
<rect x="124.671" y="42.8188" width="38.8768" height="13.6594" transform="rotate(90 124.671 42.8188)" fill="#7F6853"/>
<rect x="84.0081" y="42.8188" width="38.8768" height="13.6594" transform="rotate(90 84.0081 42.8188)" fill="#7F6853"/>
<rect x="40.6132" y="42.8188" width="38.8768" height="13.6594" transform="rotate(90 40.6132 42.8188)" fill="#7F6853"/>
<rect x="19.5986" y="38.6162" width="112.428" height="16.8116" fill="#7F6853"/>
<rect x="19.5986" y="71.1885" width="112.428" height="16.8116" fill="#7F6853"/>
<path d="M77.8811 29.3696V1" stroke="#72A234" stroke-linecap="round"/>
<path d="M77.9214 14.531C78.1764 12.3484 79.7117 8.7116 84.4592 7.61963C84.7297 9.70547 83.8008 14.0079 77.9214 14.531Z" fill="#72A234"/>
<path d="M77.8811 15.1849C77.8811 14.9874 77.8937 14.7678 77.9214 14.531M77.9214 14.531C78.1764 12.3484 79.7117 8.7116 84.4592 7.61963C84.7297 9.70547 83.8008 14.0079 77.9214 14.531Z" stroke="#72A234"/>
<path d="M77.8293 8.77529C77.5014 6.31992 75.5274 2.22847 69.4235 1C69.0757 3.34657 70.27 8.18682 77.8293 8.77529Z" fill="#72A234"/>
</svg>
