<svg width="159" height="108" viewBox="0 0 159 108" fill="none" xmlns="http://www.w3.org/2000/svg">
<rect x="99.8076" y="5.73096" width="56.3846" height="30.5385" rx="6.5" fill="#FCFCFC" stroke="#EC7140" stroke-width="5"/>
<rect x="106.192" y="38.769" width="42.8077" height="3.23077" fill="#607A95"/>
<rect x="115.885" width="25.8462" height="3.23077" fill="#607A95"/>
<path d="M116.286 25.6924C116.611 25.6924 116.767 25.5364 116.767 25.2244V17.2164C116.767 16.9044 116.611 16.7484 116.286 16.7484H115.012C114.752 16.7484 114.57 16.8784 114.466 17.1514C114.219 17.8404 113.79 18.1524 113.023 18.2434C112.711 18.2824 112.555 18.4384 112.555 18.7244V19.7644C112.555 20.0764 112.711 20.2324 113.023 20.2324H114.154V25.2244C114.154 25.5364 114.31 25.6924 114.635 25.6924H116.286ZM124.349 25.6924C124.648 25.6924 124.804 25.5364 124.804 25.2374V23.8594C124.804 23.5604 124.648 23.4044 124.349 23.4044H123.114C122.451 23.4044 121.749 23.5994 121.554 23.7034L121.333 23.8074L121.229 23.6384C121.424 23.4954 121.658 23.3264 121.957 23.1314L122.646 22.6504C122.971 22.4034 123.517 22.0134 123.764 21.7664C124.024 21.5064 124.362 21.1034 124.505 20.7784C124.648 20.4274 124.765 19.9984 124.765 19.5304C124.765 17.6714 123.543 16.6184 121.411 16.6184C119.227 16.6184 117.979 17.7364 117.979 19.6604V19.8814C117.979 20.1804 118.135 20.3364 118.434 20.3364H119.955C120.267 20.3364 120.423 20.1804 120.423 19.8814V19.6604C120.423 19.1014 120.722 18.8154 121.307 18.8154C121.853 18.8154 122.126 19.0754 122.126 19.5954C122.126 21.2204 118.304 21.9744 117.927 25.2114C117.888 25.5234 118.07 25.6924 118.382 25.6924H124.349ZM127.933 21.0774C128.245 21.0774 128.401 20.9214 128.401 20.6094V18.9974C128.401 18.6724 128.245 18.5164 127.933 18.5164H126.373C126.048 18.5164 125.892 18.6724 125.892 18.9974V20.6094C125.892 20.9214 126.048 21.0774 126.373 21.0774H127.933ZM127.933 25.6924C128.245 25.6924 128.401 25.5364 128.401 25.2244V23.5994C128.401 23.2874 128.245 23.1314 127.933 23.1314H126.373C126.048 23.1314 125.892 23.2874 125.892 23.5994V25.2244C125.892 25.5364 126.048 25.6924 126.373 25.6924H127.933ZM135.851 25.6924C136.15 25.6924 136.306 25.5364 136.306 25.2374V23.8594C136.306 23.5604 136.15 23.4044 135.851 23.4044H134.616C133.953 23.4044 133.251 23.5994 133.056 23.7034L132.835 23.8074L132.731 23.6384C132.926 23.4954 133.16 23.3264 133.459 23.1314L134.148 22.6504C134.473 22.4034 135.019 22.0134 135.266 21.7664C135.526 21.5064 135.864 21.1034 136.007 20.7784C136.15 20.4274 136.267 19.9984 136.267 19.5304C136.267 17.6714 135.045 16.6184 132.913 16.6184C130.729 16.6184 129.481 17.7364 129.481 19.6604V19.8814C129.481 20.1804 129.637 20.3364 129.936 20.3364H131.457C131.769 20.3364 131.925 20.1804 131.925 19.8814V19.6604C131.925 19.1014 132.224 18.8154 132.809 18.8154C133.355 18.8154 133.628 19.0754 133.628 19.5954C133.628 21.2204 129.806 21.9744 129.429 25.2114C129.39 25.5234 129.572 25.6924 129.884 25.6924H135.851ZM137.316 22.4294C137.316 24.6004 138.642 25.8354 140.93 25.8354C143.218 25.8354 144.531 24.6004 144.531 22.4294V20.0244C144.531 17.8534 143.218 16.6184 140.93 16.6184C138.642 16.6184 137.316 17.8534 137.316 20.0244V22.4294ZM141.918 22.3644C141.918 23.1964 141.606 23.5604 140.917 23.5604C140.241 23.5604 139.942 23.1964 139.942 22.3644V20.0764C139.942 19.2444 140.241 18.8674 140.93 18.8674C141.606 18.8674 141.918 19.2314 141.918 20.0764V22.3644Z" fill="#607A95"/>
<path fill-rule="evenodd" clip-rule="evenodd" d="M25.4506 15.1528C26.2792 15.2218 26.9864 15.9944 26.9837 16.8249V23.236C37.2255 23.3463 48.1211 29.9277 55.5194 41.4581C55.8045 41.4461 56.074 41.4204 56.3554 41.4232C56.9293 41.4287 57.506 41.4949 58.0624 41.563C61.6244 41.9952 64.8377 43.7445 66.5981 46.7896H66.6331C66.8143 47.1096 66.9292 47.4039 67.0515 47.6605C67.4065 48.4073 67.1021 49.4015 66.3894 49.8209L42.1387 63.8269C41.4103 64.2472 40.3747 64.0044 39.9093 63.3045C39.7751 63.1031 39.5856 62.853 39.3869 62.5035C37.6395 59.4601 37.7039 55.8006 39.1083 52.5035C39.4173 51.7769 39.7916 51.0366 40.223 50.3431C38.2327 46.8621 36.2802 44.6216 34.0904 43.2007C32.1139 41.9187 29.8781 41.2519 26.9828 40.9704V50.0993C26.9828 50.9748 26.1863 51.7713 25.3108 51.7713H1.89714C1.02158 51.7713 0.225105 50.9748 0.225105 50.0993L1.17606 16.8249C1.17606 15.9493 1.47632 16.1759 2.35188 16.1759L25.3108 15.1544C25.3577 15.1526 25.4037 15.1526 25.4497 15.1544L25.4506 15.1528ZM23.6387 18.4978H3.57004V48.4273H23.6387V18.4978ZM27.0536 26.581L26.9846 37.5908C30.4049 37.8915 33.3546 38.7368 35.9388 40.4133C38.4201 42.0228 40.4941 44.3725 42.454 47.5557C43.7084 46.2387 45.1745 45.02 46.8786 44.037C48.5093 43.0962 50.2043 42.4137 51.8957 41.9815C45.0697 32.0938 35.5145 26.7345 27.0536 26.581ZM56.3545 44.7681C53.9064 44.7469 51.138 45.4689 48.5501 46.9634C45.4829 48.7338 43.295 51.2428 42.2086 53.7922C41.2512 56.0408 41.1491 58.2362 41.93 60.0985L63.2531 47.7644C62.0299 46.1549 60.105 45.1672 57.6787 44.8729C57.2493 44.8205 56.8079 44.7727 56.3545 44.7681Z" fill="#7D98AD"/>
<path fill-rule="evenodd" clip-rule="evenodd" d="M88.5795 73.22C89.0136 73.2329 89.4266 73.415 89.7291 73.7267L96.7418 80.7505C97.3948 81.4044 97.3939 82.4639 96.74 83.116C96.0861 83.769 95.0275 83.7681 94.3745 83.1142L87.3618 76.0904C86.867 75.6094 86.7189 74.8736 86.9884 74.2391C87.2579 73.6035 87.8897 73.1989 88.5795 73.22L88.5795 73.22Z" fill="#00ABD8"/>
<path fill-rule="evenodd" clip-rule="evenodd" d="M77.8531 62.4959C78.2881 62.5088 78.7001 62.6899 79.0027 63.0017L83.9534 67.9524V67.9515C84.2725 68.2641 84.4537 68.6909 84.4555 69.1379C84.4583 69.5848 84.2817 70.0134 83.9663 70.3298C83.6508 70.6453 83.2213 70.8218 82.7743 70.82C82.3283 70.8172 81.9006 70.6361 81.5879 70.3169L76.6372 65.3672H76.6382C76.1434 64.8862 75.9944 64.1514 76.2629 63.5158C76.5324 62.8803 77.1633 62.4747 77.8531 62.4959L77.8531 62.4959Z" fill="#00ABD8"/>
<path fill-rule="evenodd" clip-rule="evenodd" d="M69.1789 53.8196C69.613 53.8324 70.0251 54.0145 70.3285 54.3254L73.2273 57.2242C73.5465 57.5369 73.7267 57.9636 73.7295 58.4106C73.7313 58.8566 73.5557 59.2862 73.2393 59.6016C72.9238 59.918 72.4952 60.0936 72.0483 60.0918C71.6022 60.09 71.1746 59.9088 70.8619 59.5896L67.9631 56.6909C67.4692 56.2099 67.3202 55.475 67.5888 54.8395C67.8582 54.2049 68.4891 53.7993 69.1789 53.8196Z" fill="#00ABD8"/>
<path fill-rule="evenodd" clip-rule="evenodd" d="M51.8905 94.3207C52.6851 94.283 53.3951 94.81 53.5901 95.5808L56.1654 105.18H56.1663C56.2859 105.61 56.2289 106.071 56.0081 106.458C55.7865 106.846 55.4195 107.129 54.9882 107.245C54.5569 107.361 54.0979 107.299 53.7116 107.074C53.3263 106.849 53.0467 106.479 52.9354 106.047L50.3601 96.4471C50.2203 95.956 50.3132 95.429 50.6112 95.0142C50.9101 94.6004 51.381 94.3447 51.8905 94.3208L51.8905 94.3207Z" fill="#00ABD8"/>
<path fill-rule="evenodd" clip-rule="evenodd" d="M47.9659 79.6708C48.7605 79.6331 49.4714 80.1592 49.6664 80.9308L51.4837 87.698C51.6033 88.1275 51.5463 88.5873 51.3246 88.9754C51.1039 89.3626 50.7369 89.645 50.3065 89.7608C49.8752 89.8767 49.4163 89.8151 49.0309 89.5907C48.6455 89.3663 48.365 88.9966 48.2537 88.5652L46.4364 81.7981H46.4355C46.2966 81.307 46.3895 80.7791 46.6875 80.3643C46.9855 79.9504 47.4563 79.6948 47.9659 79.6709V79.6708Z" fill="#00ABD8"/>
<path fill-rule="evenodd" clip-rule="evenodd" d="M44.7895 67.8304C45.5842 67.7936 46.2942 68.3215 46.4892 69.0923L47.5487 73.0505L47.5477 73.0496C47.6682 73.48 47.6103 73.9408 47.3896 74.328C47.1679 74.7161 46.8 74.9994 46.3687 75.1143C45.9374 75.2302 45.4784 75.1677 45.0921 74.9423C44.7068 74.717 44.4281 74.3473 44.3168 73.9141L43.2573 69.9558V69.9568C43.1185 69.4657 43.2114 68.9377 43.5103 68.5239C43.8082 68.1091 44.28 67.8543 44.7896 67.8304L44.7895 67.8304Z" fill="#00ABD8"/>
<path fill-rule="evenodd" clip-rule="evenodd" d="M60.9434 89.103C61.7371 89.0653 62.449 89.5922 62.6439 90.363L65.2192 99.9519H65.2202C65.3351 100.38 65.2753 100.837 65.0537 101.221C64.832 101.605 64.4669 101.886 64.0383 102.001C63.1462 102.24 62.2284 101.711 61.9893 100.819L59.414 91.2303V91.2312C59.2742 90.7401 59.3671 90.2122 59.665 89.7974C59.963 89.3835 60.433 89.1278 60.9434 89.103L60.9434 89.103Z" fill="#00ABD8"/>
<path fill-rule="evenodd" clip-rule="evenodd" d="M57.0184 74.4541C57.813 74.4163 58.524 74.9424 58.719 75.7131L60.5363 82.4692V82.4701C60.6614 82.9014 60.608 83.365 60.3873 83.7558C60.1666 84.1476 59.7987 84.4336 59.3646 84.5504C58.9305 84.6673 58.4688 84.6038 58.0816 84.3766C57.6944 84.1485 57.4148 83.7742 57.3072 83.3383L55.4899 76.5822C55.3501 76.0911 55.443 75.5632 55.74 75.1493C56.038 74.7346 56.5089 74.4789 57.0184 74.4541V74.4541Z" fill="#00ABD8"/>
<path fill-rule="evenodd" clip-rule="evenodd" d="M53.8447 62.6014C54.6384 62.5646 55.3493 63.0916 55.5434 63.8623L56.6029 67.8206C56.7261 68.2519 56.67 68.7136 56.4493 69.1036C56.2276 69.4935 55.8598 69.7787 55.4266 69.8945C54.9934 70.0104 54.5317 69.9479 54.1454 69.7198C53.7592 69.4926 53.4805 69.1192 53.3719 68.6842L52.3124 64.7267C52.1736 64.2355 52.2665 63.7076 52.5644 63.2938C52.8633 62.8799 53.3342 62.6242 53.8447 62.6012L53.8447 62.6014Z" fill="#00ABD8"/>
<path fill-rule="evenodd" clip-rule="evenodd" d="M80.3726 77.9596C80.8067 77.9725 81.2196 78.1537 81.5222 78.4646L88.5459 85.4772V85.4782C88.8715 85.789 89.0573 86.2176 89.0619 86.6673C89.0674 87.1171 88.8908 87.5493 88.5735 87.8675C88.2553 88.1858 87.8231 88.3633 87.3733 88.3587C86.9236 88.3541 86.495 88.1692 86.1832 87.8445L79.1595 80.8319C78.6647 80.3509 78.5157 79.616 78.7842 78.9805C79.0519 78.3459 79.6828 77.9403 80.3725 77.9596H80.3726Z" fill="#00ABD8"/>
<path fill-rule="evenodd" clip-rule="evenodd" d="M69.6476 67.2327C70.0817 67.2456 70.4946 67.4268 70.7972 67.7385L75.7479 72.6883C76.0633 73.0019 76.2418 73.4277 76.2427 73.8728C76.2436 74.3179 76.0679 74.7447 75.7534 75.0592C75.4389 75.3738 75.0112 75.5504 74.567 75.5494C74.1218 75.5485 73.696 75.3701 73.3824 75.0546L68.4318 70.104C67.9369 69.623 67.7889 68.8881 68.0574 68.2526C68.326 67.6171 68.9578 67.2124 69.6476 67.2327L69.6476 67.2327Z" fill="#00ABD8"/>
<path fill-rule="evenodd" clip-rule="evenodd" d="M60.9696 58.5588C61.4037 58.5707 61.8166 58.751 62.1201 59.0618L65.03 61.9606H65.0309C65.6848 62.6127 65.6866 63.6722 65.0346 64.3261C64.3825 64.9809 63.3239 64.9828 62.6691 64.3307L59.7592 61.4319C59.2635 60.9518 59.1136 60.217 59.3812 59.5815C59.6498 58.9451 60.2798 58.5395 60.9695 58.5588L60.9696 58.5588Z" fill="#00ABD8"/>
<path fill-rule="evenodd" clip-rule="evenodd" d="M70.8698 83.7398C71.4804 83.7343 72.0461 84.0626 72.344 84.5961L77.3168 93.2036C77.544 93.5881 77.6084 94.047 77.4952 94.4793C77.3821 94.9115 77.1007 95.2803 76.7144 95.5038C76.3272 95.7273 75.8674 95.7871 75.436 95.6693C75.0056 95.5516 74.6396 95.2665 74.4207 94.8766L69.4479 86.269V86.2699C69.1407 85.7549 69.1324 85.1157 69.4258 84.5933C69.7192 84.07 70.2701 83.7453 70.8697 83.7398L70.8698 83.7398Z" fill="#00ABD8"/>
<path fill-rule="evenodd" clip-rule="evenodd" d="M63.2882 70.6065C63.8989 70.6019 64.4645 70.9302 64.7625 71.4636L68.2628 77.5291C68.4937 77.9136 68.5608 78.3753 68.4477 78.8094C68.3355 79.2435 68.0531 79.6141 67.665 79.8385C67.2769 80.062 66.8143 80.1209 66.3821 80.0013C65.9498 79.8817 65.5838 79.5939 65.3667 79.2012L61.8654 73.1357C61.5583 72.6216 61.55 71.9815 61.8443 71.4591C62.1377 70.9367 62.6886 70.612 63.2882 70.6065H63.2882Z" fill="#00ABD8"/>
<path d="M20.292 24.1012C26.7018 23.0223 42.3013 25.0151 53.4201 41.6172C56.7837 42.0615 63.8536 43.8638 65.2244 47.5193L41.9966 61.7986C40.6004 61.037 38.6457 57.7242 41.9966 50.5655C39.2042 45.9327 30.9539 37.0097 20.292 38.3805V24.1012Z" fill="#7D98AD"/>
<path d="M0 17C0 15.8954 0.89543 15 2 15H25.4164C26.5209 15 27.4164 15.8954 27.4164 17V49.936C27.4164 51.0405 26.5209 51.936 25.4164 51.936H2C0.895431 51.936 0 51.0405 0 49.936V17Z" fill="#607A95"/>
<path d="M41.0001 64.8024L68 49.3022C67.1667 46.3022 63.1 40.1026 55.5 41.3026L39.9997 50.3024C38.1664 53.469 35.8001 61.2023 41.0001 64.8024Z" fill="#95A7B8"/>
<rect x="68.8652" y="47.2153" width="3.25518" height="34.7415" rx="1.62759" transform="rotate(59.9908 68.8652 47.2153)" fill="#607A95"/>
</svg>
