<svg width="81" height="105" viewBox="0 0 81 105" fill="none" xmlns="http://www.w3.org/2000/svg">
<path d="M59.7544 104.731L80.3332 88.1948V3.30713L59.7544 11.0242V104.731Z" fill="#E7E7E7"/>
<path d="M5.84836 96.2798L59.7543 104.732V11.0246L5 7.71729L5.84836 96.2798Z" fill="#FCFCFC"/>
<path d="M33.2959 0L80.3332 3.30731L59.7544 11.0244L5.36743 7.71706L33.2959 0Z" fill="#95A7B8"/>
<path d="M16.1689 20.3706L52.1164 22.4995L51.8307 30.6291L15.8894 28.3272L16.1689 20.3706Z" fill="#607A95"/>
<path d="M25.7583 12.8214L27.9424 24.8533L40.0604 26.4941L29.2923 32.2894L31.4764 44.3213L22.6373 35.8711L11.8692 41.6664L17.1743 30.6486L8.33516 22.1984L20.4531 23.8392L25.7583 12.8214Z" fill="#FF4D00"/>
<path d="M33.3577 15.8577L29.6091 27.4975L39.5209 34.6595L27.2924 34.6913L23.5438 46.3311L19.7347 34.7109L7.50625 34.7427L17.3806 27.5293L13.5716 15.9091L23.4833 23.0711L33.3577 15.8577Z" fill="#FF4D00"/>
<path d="M37.7054 20.473L29.9165 29.9001L36.4752 40.2209L25.1026 35.7263L17.3137 45.1534L18.074 32.9485L6.70141 28.454L18.5439 25.4055L19.3041 13.2006L25.8629 23.5214L37.7054 20.473Z" fill="#FF4D00"/>
<path d="M16.684 31.04C16.3987 31.04 16.1413 30.9787 15.912 30.856C15.6827 30.7307 15.5027 30.5587 15.372 30.34C15.2413 30.1187 15.176 29.872 15.176 29.6C15.176 29.328 15.2413 29.0827 15.372 28.864C15.5027 28.6427 15.6827 28.4707 15.912 28.348C16.1413 28.2227 16.3987 28.16 16.684 28.16C16.9693 28.16 17.2267 28.2227 17.456 28.348C17.6853 28.4707 17.8653 28.6413 17.996 28.86C18.1267 29.0787 18.192 29.3253 18.192 29.6C18.192 29.8747 18.1267 30.1213 17.996 30.34C17.8653 30.5587 17.6853 30.7307 17.456 30.856C17.2267 30.9787 16.9693 31.04 16.684 31.04ZM16.684 30.584C16.8707 30.584 17.0387 30.5427 17.188 30.46C17.3373 30.3747 17.4547 30.2573 17.54 30.108C17.6253 29.956 17.668 29.7867 17.668 29.6C17.668 29.4133 17.6253 29.2453 17.54 29.096C17.4547 28.944 17.3373 28.8267 17.188 28.744C17.0387 28.6587 16.8707 28.616 16.684 28.616C16.4973 28.616 16.3293 28.6587 16.18 28.744C16.0307 28.8267 15.9133 28.944 15.828 29.096C15.7427 29.2453 15.7 29.4133 15.7 29.6C15.7 29.7867 15.7427 29.956 15.828 30.108C15.9133 30.2573 16.0307 30.3747 16.18 30.46C16.3293 30.5427 16.4973 30.584 16.684 30.584ZM19.2632 28.636V29.488H20.6152V29.928H19.2632V31H18.7432V28.2H20.7872V28.636H19.2632ZM23.3901 30.564V31H21.2901V28.2H23.3341V28.636H21.8101V29.364H23.1621V29.792H21.8101V30.564H23.3901ZM25.8018 31L25.2298 30.18C25.2058 30.1827 25.1698 30.184 25.1218 30.184H24.4898V31H23.9698V28.2H25.1218C25.3644 28.2 25.5751 28.24 25.7538 28.32C25.9351 28.4 26.0738 28.5147 26.1698 28.664C26.2658 28.8133 26.3138 28.9907 26.3138 29.196C26.3138 29.4067 26.2618 29.588 26.1578 29.74C26.0564 29.892 25.9098 30.0053 25.7178 30.08L26.3618 31H25.8018ZM25.7898 29.196C25.7898 29.0173 25.7311 28.88 25.6137 28.784C25.4964 28.688 25.3244 28.64 25.0978 28.64H24.4898V29.756H25.0978C25.3244 29.756 25.4964 29.708 25.6137 29.612C25.7311 29.5133 25.7898 29.3747 25.7898 29.196ZM27.4245 28.64H26.4965V28.2H28.8725V28.64H27.9445V31H27.4245V28.64ZM30.9381 30.352H29.5381L29.2621 31H28.7261L29.9861 28.2H30.4981L31.7621 31H31.2181L30.9381 30.352ZM30.7661 29.944L30.2381 28.72L29.7141 29.944H30.7661Z" fill="white"/>
<ellipse rx="16.1526" ry="14.9681" transform="matrix(0.996073 0.0885398 0 1 32.0892 61.3982)" fill="#EEE03D"/>
<path d="M46.2161 69.8967C41.5071 74.3065 40.4083 76.9852 38.6293 82.6211L24.7639 81.3886C24.8947 79.3482 23.979 73.9556 19.27 68.7086L46.2161 69.8967Z" fill="#EEE03D"/>
<rect width="11.5563" height="3.13846" rx="1.56923" transform="matrix(0.996073 0.0885398 0 1 26.4646 68.1406)" fill="#D0BE05"/>
<rect width="8.92989" height="3.13846" rx="1.56923" transform="matrix(0.996073 0.0885398 0 1 27.7725 77.9136)" fill="#D0BE05"/>
<path d="M35.8823 70.4261C35.141 71.5673 33.7632 74.9213 34.1818 79.2075" stroke="#D0BE05" stroke-width="2"/>
<path d="M28.5572 69.7746C29.2984 71.0476 30.6762 74.6465 30.2577 78.8583" stroke="#D0BE05" stroke-width="2"/>
<rect width="6.82874" height="4.10414" rx="2.05207" transform="matrix(0.996073 0.0885398 0 1 28.5574 88.123)" fill="#95A7B8"/>
<rect width="14.7081" height="4.82841" rx="2.4142" transform="matrix(0.996073 0.0885398 0 1 24.6331 79.3247)" fill="#95A7B8"/>
<rect width="14.7081" height="4.82841" rx="2.4142" transform="matrix(0.996073 0.0885398 0 1 24.6331 84.1528)" fill="#E7E7E7"/>
</svg>
