<svg width="144" height="108" viewBox="0 0 144 108" fill="none" xmlns="http://www.w3.org/2000/svg">
<path d="M95.6588 7.83738L82.335 27.8231L58.8224 32.9175L45.4985 17.2424L49.8092 7.83738H58.8224C63.5249 10.058 75.9082 12.6183 87.8213 5.09424L95.6588 7.83738Z" fill="#FCFCFC"/>
<path d="M70.44 19.1168C78.0014 19.1168 84.2129 13.2342 84.7392 5.80518C83.1549 6.30859 80.0765 7.16847 76.1471 7.69466C71.1301 8.36663 63.7031 8.6172 56.1714 6.17077C56.8764 13.4258 63.0071 19.1168 70.44 19.1168V19.1168Z" fill="#16628E"/>
<path d="M126.548 36.1264C126.523 36.0762 124.05 31.1184 120.883 25.7691C116.526 18.4161 112.948 13.8208 110.249 12.1099C105.309 8.98141 97.755 6.70108 88.3407 5.48584C88.1653 10.0051 86.3225 14.2293 83.1074 17.4467C79.7238 20.8303 75.2273 22.6949 70.4404 22.6949C65.6558 22.6949 61.157 20.8304 57.7733 17.4467C54.6492 14.3182 52.8203 10.2383 52.5605 5.8605C43.4205 7.16913 35.9025 9.29426 30.75 12.0425C27.8423 13.5915 24.2924 18.0322 19.895 25.6128C16.754 31.0272 14.4168 35.9497 14.32 36.1581C13.9408 36.9565 14.2061 37.9132 14.9419 38.4087L35.4572 52.1898C35.9105 52.495 36.4492 52.5645 36.9378 52.4278C37.0096 55.6236 37.0563 58.9915 37.0791 62.5244C37.2055 81.8828 36.5415 99.5268 36.5358 99.7047V99.7719C36.5358 104.308 40.2247 108 44.7611 108H96.1231C100.66 108 104.353 104.308 104.353 99.7719C104.353 99.7491 104.351 99.7252 104.351 99.7047C104.345 99.5282 103.677 81.893 103.805 62.536C103.827 58.9985 103.875 55.6251 103.949 52.4269C104.107 52.4713 104.269 52.4941 104.432 52.4941C104.776 52.4941 105.121 52.395 105.426 52.1889L125.945 38.4078C126.689 37.9044 126.947 36.9295 126.55 36.1243L126.548 36.1264Z" fill="#16628E"/>
<path d="M138.765 5.09424C123.09 13.2453 98.2712 8.49051 87.8211 5.09424C74.654 12.6183 58.5609 8.22926 52.1603 5.09424C43.539 8.35988 21.4371 12.9318 2 5.09424" stroke="#CCC031" stroke-width="3" stroke-linecap="round"/>
<rect x="84.6865" width="5.48628" height="10.1888" fill="#EC7140"/>
<rect x="48.6338" y="0.783691" width="5.48628" height="10.1888" fill="#EC7140"/>
<path d="M94 91H136.5C140.09 91 143 93.9101 143 97.5V97.5C143 101.09 140.09 104 136.5 104H136.342C132.665 104 129.685 101.019 129.685 97.3424V95.3919" stroke="#FCFCFC" stroke-width="2" stroke-linecap="round"/>
<path d="M85 86L127.5 86C131.09 86 134 83.0898 134 79.5V79.5C134 75.9101 131.09 73 127.5 73L127.342 73C123.665 73 120.685 75.9807 120.685 79.6576L120.685 81.6081" stroke="#FCFCFC" stroke-width="2" stroke-linecap="round"/>
</svg>
