<svg width="122" height="81" viewBox="0 0 122 81" fill="none" xmlns="http://www.w3.org/2000/svg">
<ellipse cx="61" cy="75" rx="61" ry="6" fill="#A4C8D0"/>
<rect x="60.7804" y="60.1553" width="8.24407" height="2.35545" fill="#0F3653"/>
<rect x="56.6583" y="56.7617" width="1.21226" height="7.26736" transform="rotate(-49.7117 56.6583 56.7617)" fill="#0F3653"/>
<path d="M37.5627 57.3089C37.5627 65.6797 30.7769 72.4655 22.4062 72.4655C14.0354 72.4655 7.24957 65.6797 7.24957 57.3089C7.24957 48.9382 14.0354 42.1523 22.4062 42.1523C27.6998 42.1523 32.3631 44.8648 35.0767 48.9877C35.0897 49.0892 35.1077 49.1923 35.1311 49.297C35.3542 50.2965 35.9679 50.9003 36.1911 51.1095C36.2202 51.1367 36.2488 51.1628 36.2765 51.1874C37.1027 53.0561 37.5627 55.1252 37.5627 57.3089Z" stroke="#0F3653" stroke-width="6"/>
<path fill-rule="evenodd" clip-rule="evenodd" d="M39.7691 52.4316C39.9779 53.1268 40.1462 53.8393 40.2721 54.5673L45.0902 54.2615C45.2477 52.0136 46.0931 49.9566 47.4252 48.3004L47.3138 47.9722L43.1126 49.061L38.9114 50.1498C39.2468 50.8862 39.5336 51.6478 39.7691 52.4316ZM49.3668 53.9886L49.0519 53.0645C48.9619 53.3763 48.8944 53.6963 48.8484 54.0214L49.3668 53.9886Z" fill="#E74E10"/>
<path fill-rule="evenodd" clip-rule="evenodd" d="M83.2284 14.6371L92.6492 40.0707L94.379 44.7387L98.3262 55.3945C99.2146 55.7727 99.8382 56.654 99.8382 57.6824C99.8382 59.0544 98.727 60.1687 97.3591 60.1687C95.9871 60.1687 94.884 59.0534 94.884 57.6824C94.884 57.4616 94.9218 57.252 94.975 57.0486L90.9092 46.0748L89.1742 41.3941L84.8375 29.6865L65.0832 49.6392L62.3218 52.4316L58.6465 56.1438L56.9037 57.2379L49.3128 57.7204L45.4709 57.9619L40.5268 58.2758L35.553 58.5933L24.1652 59.316C23.7092 59.8344 23.0508 60.1687 22.3097 60.1687C20.9397 60.1687 19.8213 59.0533 19.8213 57.6824C19.8213 56.3083 20.9387 55.1981 22.3097 55.1981C22.3209 55.1981 22.3314 55.1996 22.3419 55.2012C22.3523 55.2027 22.3628 55.2042 22.3741 55.2042L24.111 53.9847L26.9881 51.959L31.9024 48.5046L35.9806 45.6359L44.4762 39.6645L40.4555 27.8883L44.0348 26.8599L47.7917 37.8654L82.4064 23.1223L79.3291 14.8149C79.0756 14.1341 79.2433 13.3693 79.7565 12.8551L82.1211 10.4843L80.8994 7.39687L80.0601 7.8743C79.6726 8.09512 79.2514 8.1994 78.8364 8.1994C77.9745 8.1994 77.1352 7.74854 76.6792 6.94499C76.0025 5.75502 76.4175 4.24196 77.6075 3.56519L80.3822 1.98567C81.5743 1.30992 83.0863 1.72498 83.7631 2.91498C84.1342 3.56618 84.1679 4.31147 83.9359 4.96576L86.0275 10.2483C86.2995 10.9373 86.139 11.7214 85.6145 12.2459L83.2284 14.6371ZM55.9607 53.5716L53.2127 53.7464L51.7017 49.3218L50.4662 45.7029L48.995 41.3937L81.8876 27.3827L62.6818 46.7825L60.0491 49.4424L55.9607 53.5716ZM28.7024 55.3013L34.0757 51.5237C34.6247 52.5696 35.0408 53.6962 35.2964 54.8831L28.7024 55.3013ZM49.0519 53.0645L49.3668 53.9886L48.8484 54.0214C48.8944 53.6963 48.9619 53.3763 49.0519 53.0645ZM46.9132 46.7966L45.7294 43.3299L38.1529 48.6583C38.1842 48.7142 38.2179 48.7681 38.2515 48.822C38.2905 48.8844 38.3294 48.9467 38.3645 49.012L46.9132 46.7966Z" fill="#E74E10"/>
<path d="M40.5833 54.5007L45.4278 54.097L47.9872 49.3287L47.1797 47.7139L38.9685 50.0599C38.9685 50.0599 39.3722 50.8673 39.7759 52.0784C40.1796 53.2896 40.5833 54.5007 40.5833 54.5007Z" fill="#C9EEF6"/>
<path d="M82.0776 10.4946L80.6054 6.86327L84.0404 5.09668L86.0033 10.0039C86.2323 10.4292 86.3959 11.476 85.6107 12.2612L83.2553 14.7148L79.3295 14.9111C79.0678 14.5839 78.9369 13.6352 79.7221 12.85L82.0776 10.4946Z" fill="#95A7B8"/>
<rect x="83.7639" width="4.96956" height="9.61169" rx="2.48478" transform="rotate(60 83.7639 0)" fill="#0F3653"/>
<path d="M44.0959 26.7866L40.3665 27.8662L44.3903 39.7416L47.8254 37.8769L44.0959 26.7866Z" fill="#95A7B8"/>
<circle cx="97.1917" cy="57.3089" r="15.1566" stroke="#0F3653" stroke-width="6"/>
<mask id="path-11-inside-1_479_3" fill="white">
<ellipse cx="54.5" cy="55" rx="10.5" ry="10"/>
</mask>
<path d="M48 55C48 50.3619 51.7013 48 54.5 48V82C68.8967 82 82 70.6838 82 55H48ZM54.5 48C57.2987 48 61 50.3619 61 55H27C27 70.6838 40.1033 82 54.5 82V48ZM61 55C61 59.6381 57.2987 62 54.5 62V28C40.1033 28 27 39.3162 27 55H61ZM54.5 62C51.7013 62 48 59.6381 48 55H82C82 39.3162 68.8967 28 54.5 28V62Z" fill="#0F3653" mask="url(#path-11-inside-1_479_3)"/>
<path d="M52.6344 46.3174L21.2692 54.398C17.935 55.257 17.7772 59.9335 21.0459 61.0154V61.0154C21.2902 61.0963 21.5429 61.1495 21.7992 61.1742L54.0084 64.2777" stroke="#0F3653"/>
<path d="M43.2699 27.1368C44.1992 26.8045 45.104 26.4764 45.9198 26.2831C48.3356 25.7004 52.2306 25.9458 52.8082 25.9458C53.3858 25.9458 56.2851 25.2853 53.9644 23.3019C51.6488 21.3124 50.0447 20.6478 45.9198 20.9792C41.7957 21.3124 38.9783 22.1395 34.1732 21.3124C33.9299 21.2715 32.515 21.7255 32.515 23.3019C32.515 24.8712 35.6728 27.7767 37.9843 28.1908C38.5118 28.2848 39.0915 28.2562 39.6906 28.1652C40.0004 28.1069 41.15 27.8197 43.2699 27.1368Z" fill="#0F3653"/>
</svg>
