<svg width="80" height="107" viewBox="0 0 80 107" fill="none" xmlns="http://www.w3.org/2000/svg">
<path d="M24.1545 26.9543C24.1545 24.422 26.2074 22.3691 28.7397 22.3691C31.272 22.3691 33.3249 24.422 33.3249 26.9543V76.476H24.1545V26.9543Z" fill="white" stroke="#E7E7E7" stroke-width="3"/>
<path d="M46.6228 26.9543C46.6228 24.422 48.6756 22.3691 51.208 22.3691C53.7403 22.3691 55.7931 24.422 55.7931 26.9543V76.476H46.6228V26.9543Z" fill="white" stroke="#E7E7E7" stroke-width="3"/>
<path d="M34.4526 22.2733C34.4526 19.2239 36.9246 16.752 39.974 16.752C43.0233 16.752 45.4953 19.2239 45.4953 22.2733V76.4759H34.4526V22.2733Z" fill="white" stroke="#E7E7E7" stroke-width="3"/>
<rect x="32.9526" y="100.444" width="14.0427" height="6.55325" rx="3.27662" fill="#0D506E"/>
<rect x="28.2717" y="85.4653" width="23.4045" height="17.7874" rx="3" fill="#E7E7E7"/>
<path d="M39.5056 71.8907C39.8801 70.7673 39.6616 42.4011 39.5056 28.3584" stroke="#E7E7E7" stroke-width="2" stroke-linecap="round"/>
<rect x="19.8459" y="70.4863" width="39.3195" height="17.7874" rx="5" fill="#95A7B8"/>
<path d="M39.7244 9.96467V2" stroke="white" stroke-width="4" stroke-linecap="round"/>
<path d="M20.7279 14.1532L15.7686 7.62207" stroke="white" stroke-width="4" stroke-linecap="round"/>
<path d="M58.5832 14.1914L64.7102 8.55957" stroke="white" stroke-width="4" stroke-linecap="round"/>
<path d="M10.5781 26.4708L2.51636 23.5513" stroke="white" stroke-width="4" stroke-linecap="round"/>
<path d="M69.7964 28.2674L77.4241 24.4888" stroke="white" stroke-width="4" stroke-linecap="round"/>
</svg>
