<svg width="75" height="108" viewBox="0 0 75 108" fill="none" xmlns="http://www.w3.org/2000/svg">
<ellipse cx="37.5" cy="102" rx="37.5" ry="6" fill="#A4C8D0"/>
<path d="M53.6181 25.4283C53.6181 25.4283 44.6227 5.19976 44.7771 0.971191C44.7771 0.971191 31.2262 1.96166 17.6753 3.10452L27.4814 26.2283L53.6181 25.4283Z" fill="#F1F6F7"/>
<path d="M65.2498 4.55155C65.4571 4.17687 65.3211 3.70459 64.9464 3.49729L61.7787 1.74473C61.4039 1.53733 60.9316 1.67332 60.7244 2.04781L59.8481 3.63167L64.3735 6.13541L65.2498 4.55155Z" fill="#00ABD8"/>
<path d="M63.62 12.8386L63.7121 6.97926L61.5982 5.80967L59.5678 4.68634L54.5694 7.8315L53.9435 8.96284C53.6306 9.52843 54.1962 9.84135 53.8832 10.4071C53.5701 10.9731 53.0045 10.6602 52.6917 11.2255C52.3785 11.7915 52.9441 12.1044 52.6312 12.67C52.3183 13.2355 51.7527 12.9226 51.4397 13.4884C51.1266 14.0544 51.6922 14.3673 51.3793 14.9328C51.0664 15.4984 50.5008 15.1855 50.1877 15.7515L48.3102 19.1449C47.6185 20.3952 48.0713 21.9678 49.321 22.6592L53.8464 25.1629C55.0961 25.8543 56.6693 25.4018 57.3607 24.1522L59.2389 20.7573C59.5518 20.1917 58.9863 19.8788 59.2993 19.3131C59.6122 18.7475 60.1778 19.0604 60.4909 18.4945C60.8038 17.9289 60.2382 17.6159 60.5512 17.0502C60.8641 16.4846 61.4297 16.7975 61.7428 16.2316C62.0556 15.6662 61.49 15.3533 61.8032 14.7873C62.1161 14.2217 62.6817 14.5347 62.9947 13.9689L63.62 12.8386ZM55.8922 7.52869L59.2592 5.04833L61.3728 6.21772L63.4865 7.38711L63.1743 11.5576L55.8922 7.52869Z" fill="#F2FAFC"/>
<path d="M52.5482 10.984C52.8661 10.4093 53.6232 10.8282 53.9415 10.2529L61.8974 14.6545C61.5791 15.2298 62.3411 15.6498 62.0231 16.2245C61.7048 16.7998 61.1127 16.4723 60.7946 17.0472C60.4765 17.6223 61.0685 17.9499 60.7504 18.5248C60.4322 19.1001 59.6516 18.7137 59.3521 19.2551L51.4005 14.8558C51.7 14.3144 50.9572 13.8597 51.2755 13.2843C51.5937 12.7092 52.1858 13.0367 52.5039 12.4618C52.8219 11.8869 52.2299 11.5594 52.5482 10.984Z" fill="#00ABD8"/>
<path d="M63.6579 12.0909L55.1903 7.40616L59.4259 4.62306L59.95 3.67563L64.2811 6.07184L63.7569 7.01927L63.6579 12.0909Z" fill="#F2FAFC"/>
<rect x="59.8148" y="3.60156" width="5.25912" height="0.61872" transform="rotate(28.9539 59.8148 3.60156)" fill="#00ABD8"/>
<path d="M28.3404 12.2556L30.3504 14.1963C30.5814 14.3118 31.3838 15.2079 31.1128 17.8005C30.7489 21.282 35.462 27.3814 40.4005 23.692C42.064 22.2826 44.4899 18.5491 40.8857 14.8894C40.2619 14.2425 38.0855 12.9626 34.3704 13.018C33.6599 13.0286 32.3466 12.8101 30.3504 10.3149L28.7562 8.58211C28.918 7.88899 28.8533 6.58594 27.3007 6.91863C27.0465 7.14967 26.3545 7.47517 26.5209 8.25146C25.9664 8.11284 25.1243 8.48507 25.2907 9.7604C25.2445 10.1301 25.4535 10.7585 26.7288 10.3149L28.3404 12.2556Z" fill="#7F6853"/>
<path d="M28.3404 12.2556L30.3504 14.1963L32.343 12.2556C31.7885 11.8556 31.5806 11.5784 30.3504 10.3149L28.7562 8.58211C28.918 7.88899 28.8533 6.58594 27.3007 6.91863C27.0465 7.14967 26.3545 7.47517 26.5209 8.25146C25.9664 8.11284 25.1243 8.48507 25.2907 9.7604C25.2445 10.1301 25.4709 10.8971 26.7462 10.4535L28.3404 12.2556Z" fill="#F7F0A8"/>
<path d="M46.9987 8.24052C46.616 8.30085 45.9143 8.65719 46.1695 9.59992L46.1305 10.1789L47.154 10.0913C47.3499 9.93953 47.5932 9.35696 46.9987 8.24052Z" fill="#2A8054"/>
<path d="M46.0824 10.4521C45.834 10.0325 45.2391 9.16414 44.8466 9.04767L45.3711 7.98282C45.7051 8.41804 46.387 9.49692 46.443 10.3307L46.0824 10.4521Z" fill="#7F6853"/>
<path d="M46.1604 16.8596C46.4177 16.2274 46.5185 14.5719 44.8629 13.0076L44.8757 11.7052L47.8661 10.698L48.7656 11.693C48.5933 12.4659 48.6115 14.3184 50.0631 15.5451L49.8657 17.3046L47.5342 18.09L46.1604 16.8596Z" fill="#F7F0A8"/>
<path d="M48.292 11.627C48.8001 11.8509 49.836 12.1228 49.915 11.419C50.0137 10.5392 49.7887 8.89934 48.0989 9.37821C47.7275 9.61615 46.7413 10.1063 45.7673 10.1635C45.2486 10.1313 44.0999 10.206 43.6551 10.7621C43.0647 11.2432 42.3414 12.5252 44.172 13.8048C44.4936 13.8658 45.1495 12.6855 45.4029 12.6001C45.6563 12.5148 45.9786 12.8013 46.8474 12.1136C47.7163 11.4259 48.292 11.627 48.292 11.627Z" fill="#EF5945"/>
<path d="M46.8887 16.7574C46.4359 16.5894 45.5223 16.4073 45.4903 17.0225C45.4504 17.7915 45.7311 19.2035 47.1733 18.6998C47.4834 18.4739 48.3141 17.997 49.1568 17.8967C49.6089 17.8977 50.6023 17.7731 50.9596 17.2671C51.4472 16.8187 52.0084 15.668 50.3524 14.6522C50.0701 14.6159 49.562 15.6749 49.3464 15.7622C49.1308 15.8495 48.8361 15.6175 48.1175 16.2598C47.3989 16.9021 46.8887 16.7574 46.8887 16.7574Z" fill="#EF5945"/>
<ellipse cx="48.012" cy="13.9214" rx="0.267416" ry="0.588314" transform="rotate(-18.6148 48.012 13.9214)" fill="#7F6853"/>
<ellipse cx="47.0998" cy="14.229" rx="0.267416" ry="0.588314" transform="rotate(-18.6148 47.0998 14.229)" fill="#7F6853"/>
<path d="M17.9051 11.6857C18.2937 11.3132 19.1964 10.6199 19.6985 10.8261L22.1196 11.6857L23.0163 13.4908C23.1658 13.6054 23.375 13.9034 23.0163 14.1784L22.1196 15.5537C22.4783 15.9548 23.0522 16.843 22.4783 17.1868L21.2229 18.2183C21.0735 18.4761 20.5594 18.8371 19.6985 18.2183C19.4116 18.2183 18.8018 17.8172 18.5328 17.6166L17.5465 18.2183C17.4269 18.4188 17.0264 18.6996 16.3807 18.2183L15.0357 17.8745C14.8563 17.9318 14.4259 17.8745 14.139 17.1868L13.5113 15.5537C13.4814 15.4104 13.4934 15.0551 13.7803 14.7801C14.0672 14.505 14.6172 14.0352 14.8563 13.8346V12.5453C14.8563 12.3161 14.9639 11.7889 15.3944 11.5138L16.0221 11.084C16.2014 10.9408 16.6318 10.7402 16.9188 11.084L17.9051 11.6857Z" fill="white"/>
<path d="M39.6104 18.7939H37.8871H8.96193L17.1394 97.1867C17.4266 99.9225 19.7244 102 22.4784 102H37.8871H39.6273H55.0361C57.79 102 60.0878 99.9225 60.3751 97.1867L68.5525 18.7939H39.6104Z" fill="#607A95"/>
<path d="M69.4819 23.2866H8.52276C7.12043 23.2866 5.97153 22.1383 5.97153 20.7366V19.0647C5.97153 17.663 7.12043 16.5146 8.52276 16.5146H69.4819C70.8842 16.5146 72.0331 17.663 72.0331 19.0647V20.7366C72.0331 22.1551 70.8842 23.2866 69.4819 23.2866Z" fill="#607A95"/>
<path opacity="0.2" d="M23.323 23.2861L29.0337 102H49.9504L55.2218 23.2861H23.323Z" fill="white"/>
</svg>
