<svg width="137" height="109" viewBox="0 0 137 109" fill="none" xmlns="http://www.w3.org/2000/svg">
<path d="M36.2042 4H120.946C123.082 4 124.507 5.8511 124.507 8.0736V103.609H33V7.33301C33 5.48191 34.424 4.00004 36.2049 4.00004L36.2042 4Z" fill="#93CCF6" stroke="#0F3653" stroke-width="7"/>
<path fill-rule="evenodd" clip-rule="evenodd" d="M97.9598 58.3614C97.9598 59.9058 97.5626 61.0651 96.7683 61.0651C95.9739 61.0651 95.5768 59.9068 95.5768 58.3614C95.5768 56.817 95.9739 55.6576 96.7683 55.6576C97.5626 55.6576 97.9598 56.8159 97.9598 58.3614ZM113.056 94.6615L101.535 89.6412V60.6782H113.056V94.6615ZM113.056 54.1117H101.535V25.5343L113.056 20.1278V54.1117ZM92.0011 22.0585V97.7517L102.727 102H121V7L92 22.0612L92.0011 22.0585Z" fill="#004D88"/>
<path fill-rule="evenodd" clip-rule="evenodd" d="M66 96.5V20.9028L36 7V102H47.6L66 96.5ZM57.1994 89.2556L45.1994 94.662V60.6782H57.1994V89.2556ZM61.5998 60.2926C60.8 60.2926 60.4001 59.1343 60.4001 57.5888C60.4001 56.4305 60.8 55.2722 61.5998 55.2722C62.3997 55.2722 62.7996 56.4305 62.7996 57.5888C62.7996 59.1332 62.3997 60.2926 61.5998 60.2926ZM57.1994 54.1139H45.1994V20.13L57.1994 25.5365V54.1139Z" fill="#004D88"/>
<path d="M26.4139 95.709H133.086C135.01 95.709 136.569 97.6601 136.569 99.2424V105.467C136.569 107.418 135.01 109 133.086 109H26.4139C24.49 109 22.9307 107.049 22.9307 105.467V99.2424C22.9307 97.2913 24.49 95.709 26.4139 95.709Z" fill="#0F3653"/>
<ellipse cx="61.5" cy="58" rx="2.5" ry="4" fill="#EEE03D"/>
<ellipse cx="97" cy="58" rx="2" ry="4" fill="#EEE03D"/>
<path d="M44.4453 28.5273L6.76198 28.5273C3.57898 28.5273 0.998645 25.947 0.998645 22.764V22.764C0.998645 19.581 3.57898 17.0007 6.76198 17.0007L6.90172 17.0007C10.1619 17.0007 12.8048 19.6436 12.8048 22.9038L12.8048 24.6332" stroke="#FCFCFC" stroke-width="2" stroke-linecap="round"/>
<path d="M52.4258 32.9604L14.7424 32.9604C11.5594 32.9604 8.97911 35.5408 8.97911 38.7238V38.7238C8.97911 41.9068 11.5594 44.4871 14.7424 44.4871H14.8822C18.1424 44.4871 20.7853 41.8442 20.7853 38.584L20.7853 36.8546" stroke="#FCFCFC" stroke-width="2" stroke-linecap="round"/>
</svg>
