<svg width="154" height="106" viewBox="0 0 154 106" fill="none" xmlns="http://www.w3.org/2000/svg">
<path fill-rule="evenodd" clip-rule="evenodd" d="M25.4506 13.1528C26.2792 13.2218 26.9864 13.9944 26.9837 14.8249V21.236C37.2255 21.3463 48.1211 27.9277 55.5194 39.4581C55.8045 39.4461 56.074 39.4204 56.3554 39.4232C56.9293 39.4287 57.506 39.4949 58.0624 39.563C61.6244 39.9952 64.8377 41.7445 66.5981 44.7896H66.6331C66.8143 45.1096 66.9292 45.4039 67.0515 45.6605C67.4065 46.4073 67.1021 47.4015 66.3894 47.8209L42.1387 61.8269C41.4103 62.2472 40.3747 62.0044 39.9093 61.3045C39.7751 61.1031 39.5856 60.853 39.3869 60.5035C37.6395 57.4601 37.7039 53.8006 39.1083 50.5035C39.4173 49.7769 39.7916 49.0366 40.223 48.3431C38.2327 44.8621 36.2802 42.6216 34.0904 41.2007C32.1139 39.9187 29.8781 39.2519 26.9828 38.9704V48.0993C26.9828 48.9748 26.1863 49.7713 25.3108 49.7713H1.89714C1.02158 49.7713 0.225105 48.9748 0.225105 48.0993L1.17606 14.8249C1.17606 13.9493 1.47632 14.1759 2.35188 14.1759L25.3108 13.1544C25.3577 13.1526 25.4037 13.1526 25.4497 13.1544L25.4506 13.1528ZM23.6387 16.4978H3.57004V46.4273H23.6387V16.4978ZM27.0536 24.581L26.9846 35.5908C30.4049 35.8915 33.3546 36.7368 35.9388 38.4133C38.4201 40.0228 40.4941 42.3725 42.454 45.5557C43.7084 44.2387 45.1745 43.02 46.8786 42.037C48.5093 41.0962 50.2043 40.4137 51.8957 39.9815C45.0697 30.0938 35.5145 24.7345 27.0536 24.581ZM56.3545 42.7681C53.9064 42.7469 51.138 43.4689 48.5501 44.9634C45.4829 46.7338 43.295 49.2428 42.2086 51.7922C41.2512 54.0408 41.1491 56.2362 41.93 58.0985L63.2531 45.7644C62.0299 44.1549 60.105 43.1672 57.6787 42.8729C57.2493 42.8205 56.8079 42.7727 56.3545 42.7681Z" fill="#7D98AD"/>
<path fill-rule="evenodd" clip-rule="evenodd" d="M88.58 71.22C89.0141 71.2329 89.427 71.415 89.7296 71.7267L96.7423 78.7505C97.3953 79.4044 97.3943 80.4639 96.7404 81.116C96.0865 81.769 95.028 81.7681 94.3749 81.1142L87.3623 74.0904C86.8675 73.6094 86.7194 72.8736 86.9889 72.2391C87.2583 71.6035 87.8902 71.1989 88.58 71.22L88.58 71.22Z" fill="#00ABD8"/>
<path fill-rule="evenodd" clip-rule="evenodd" d="M77.8526 60.4959C78.2876 60.5088 78.6997 60.6899 79.0022 61.0017L83.9529 65.9524V65.9515C84.272 66.2641 84.4532 66.6909 84.455 67.1379C84.4578 67.5848 84.2812 68.0134 83.9658 68.3298C83.6503 68.6453 83.2208 68.8218 82.7738 68.82C82.3278 68.8172 81.9001 68.6361 81.5874 68.3169L76.6368 63.3672H76.6377C76.1429 62.8862 75.9939 62.1514 76.2624 61.5158C76.5319 60.8803 77.1628 60.4747 77.8526 60.4959L77.8526 60.4959Z" fill="#00ABD8"/>
<path fill-rule="evenodd" clip-rule="evenodd" d="M69.1789 51.8196C69.613 51.8324 70.0251 52.0145 70.3285 52.3254L73.2273 55.2242C73.5465 55.5369 73.7267 55.9636 73.7295 56.4106C73.7313 56.8566 73.5557 57.2862 73.2393 57.6016C72.9238 57.918 72.4952 58.0936 72.0483 58.0918C71.6022 58.09 71.1746 57.9088 70.8619 57.5896L67.9631 54.6909C67.4692 54.2099 67.3202 53.475 67.5888 52.8395C67.8582 52.2049 68.4891 51.7993 69.1789 51.8196Z" fill="#00ABD8"/>
<path fill-rule="evenodd" clip-rule="evenodd" d="M51.8905 92.3207C52.6851 92.283 53.3951 92.81 53.5901 93.5808L56.1654 103.18H56.1663C56.2859 103.61 56.2289 104.071 56.0081 104.458C55.7865 104.846 55.4195 105.129 54.9882 105.245C54.5569 105.361 54.0979 105.299 53.7116 105.074C53.3263 104.849 53.0467 104.479 52.9354 104.047L50.3601 94.4471C50.2203 93.956 50.3132 93.429 50.6112 93.0142C50.9101 92.6004 51.381 92.3447 51.8905 92.3208L51.8905 92.3207Z" fill="#00ABD8"/>
<path fill-rule="evenodd" clip-rule="evenodd" d="M47.9659 77.6708C48.7605 77.6331 49.4714 78.1592 49.6664 78.9308L51.4837 85.698C51.6033 86.1275 51.5463 86.5873 51.3246 86.9754C51.1039 87.3626 50.7369 87.645 50.3065 87.7608C49.8752 87.8767 49.4163 87.8151 49.0309 87.5907C48.6455 87.3663 48.365 86.9966 48.2537 86.5652L46.4364 79.7981H46.4355C46.2966 79.307 46.3895 78.7791 46.6875 78.3643C46.9855 77.9504 47.4563 77.6948 47.9659 77.6709V77.6708Z" fill="#00ABD8"/>
<path fill-rule="evenodd" clip-rule="evenodd" d="M44.7895 65.8304C45.5842 65.7936 46.2942 66.3215 46.4892 67.0923L47.5487 71.0505L47.5477 71.0496C47.6682 71.48 47.6103 71.9408 47.3896 72.328C47.1679 72.7161 46.8 72.9994 46.3687 73.1143C45.9374 73.2302 45.4784 73.1677 45.0921 72.9423C44.7068 72.717 44.4281 72.3473 44.3168 71.9141L43.2573 67.9558V67.9568C43.1185 67.4657 43.2114 66.9377 43.5103 66.5239C43.8082 66.1091 44.28 65.8543 44.7896 65.8304L44.7895 65.8304Z" fill="#00ABD8"/>
<path fill-rule="evenodd" clip-rule="evenodd" d="M60.9434 87.103C61.7371 87.0653 62.449 87.5922 62.6439 88.363L65.2192 97.9519H65.2202C65.3351 98.3795 65.2753 98.8366 65.0537 99.2211C64.832 99.6055 64.4669 99.886 64.0383 100.001C63.1462 100.24 62.2284 99.7112 61.9893 98.8191L59.414 89.2303V89.2312C59.2742 88.7401 59.3671 88.2122 59.665 87.7974C59.963 87.3835 60.433 87.1278 60.9434 87.103L60.9434 87.103Z" fill="#00ABD8"/>
<path fill-rule="evenodd" clip-rule="evenodd" d="M57.0184 72.4541C57.813 72.4163 58.524 72.9424 58.719 73.7131L60.5363 80.4692V80.4701C60.6614 80.9014 60.608 81.365 60.3873 81.7558C60.1666 82.1476 59.7987 82.4336 59.3646 82.5504C58.9305 82.6673 58.4688 82.6038 58.0816 82.3766C57.6944 82.1485 57.4148 81.7742 57.3072 81.3383L55.4899 74.5822C55.3501 74.0911 55.443 73.5632 55.74 73.1493C56.038 72.7346 56.5089 72.4789 57.0184 72.4541V72.4541Z" fill="#00ABD8"/>
<path fill-rule="evenodd" clip-rule="evenodd" d="M53.8447 60.6014C54.6384 60.5646 55.3493 61.0916 55.5434 61.8623L56.6029 65.8206C56.7261 66.2519 56.67 66.7136 56.4493 67.1036C56.2276 67.4935 55.8598 67.7787 55.4266 67.8945C54.9934 68.0104 54.5317 67.9479 54.1454 67.7198C53.7592 67.4926 53.4805 67.1192 53.3719 66.6842L52.3124 62.7267C52.1736 62.2355 52.2665 61.7076 52.5644 61.2938C52.8633 60.8799 53.3342 60.6242 53.8447 60.6012L53.8447 60.6014Z" fill="#00ABD8"/>
<path fill-rule="evenodd" clip-rule="evenodd" d="M80.3721 75.9596C80.8062 75.9725 81.2191 76.1537 81.5217 76.4646L88.5454 83.4772V83.4782C88.871 83.789 89.0568 84.2176 89.0614 84.6673C89.0669 85.1171 88.8903 85.5493 88.573 85.8675C88.2548 86.1858 87.8226 86.3633 87.3728 86.3587C86.9231 86.3541 86.4945 86.1692 86.1827 85.8445L79.159 78.8319C78.6642 78.3509 78.5152 77.616 78.7837 76.9805C79.0514 76.3459 79.6823 75.9403 80.3721 75.9596H80.3721Z" fill="#00ABD8"/>
<path fill-rule="evenodd" clip-rule="evenodd" d="M69.6471 65.2327C70.0812 65.2456 70.4941 65.4268 70.7967 65.7385L75.7474 70.6883C76.0628 71.0019 76.2413 71.4277 76.2422 71.8728C76.2431 72.3179 76.0674 72.7447 75.7529 73.0592C75.4384 73.3738 75.0107 73.5504 74.5665 73.5494C74.1214 73.5485 73.6955 73.3701 73.3819 73.0546L68.4313 68.104C67.9365 67.623 67.7884 66.8881 68.057 66.2526C68.3255 65.6171 68.9573 65.2124 69.6471 65.2327L69.6471 65.2327Z" fill="#00ABD8"/>
<path fill-rule="evenodd" clip-rule="evenodd" d="M60.9696 56.5588C61.4037 56.5707 61.8166 56.751 62.1201 57.0618L65.03 59.9606H65.0309C65.6848 60.6127 65.6866 61.6722 65.0346 62.3261C64.3825 62.9809 63.3239 62.9828 62.6691 62.3307L59.7592 59.4319C59.2635 58.9518 59.1136 58.217 59.3812 57.5815C59.6498 56.9451 60.2798 56.5395 60.9695 56.5588L60.9696 56.5588Z" fill="#00ABD8"/>
<path fill-rule="evenodd" clip-rule="evenodd" d="M70.8698 81.7398C71.4804 81.7343 72.0461 82.0626 72.344 82.5961L77.3168 91.2036C77.544 91.5881 77.6084 92.047 77.4952 92.4793C77.3821 92.9115 77.1007 93.2803 76.7144 93.5038C76.3272 93.7273 75.8674 93.7871 75.436 93.6693C75.0056 93.5516 74.6396 93.2665 74.4207 92.8766L69.4479 84.269V84.2699C69.1407 83.7549 69.1324 83.1157 69.4258 82.5933C69.7192 82.07 70.2701 81.7453 70.8697 81.7398L70.8698 81.7398Z" fill="#00ABD8"/>
<path fill-rule="evenodd" clip-rule="evenodd" d="M63.2887 68.6065C63.8994 68.6019 64.465 68.9302 64.763 69.4636L68.2633 75.5291C68.4942 75.9136 68.5613 76.3753 68.4482 76.8094C68.336 77.2435 68.0536 77.6141 67.6655 77.8385C67.2774 78.062 66.8148 78.1209 66.3826 78.0013C65.9503 77.8817 65.5843 77.5939 65.3672 77.2012L61.8659 71.1357C61.5587 70.6216 61.5505 69.9815 61.8448 69.4591C62.1382 68.9367 62.6891 68.612 63.2887 68.6065H63.2887Z" fill="#00ABD8"/>
<path d="M20.292 22.1012C26.7018 21.0223 42.3013 23.0151 53.4201 39.6172C56.7837 40.0615 63.8536 41.8638 65.2244 45.5193L41.9966 59.7986C40.6004 59.037 38.6457 55.7242 41.9966 48.5655C39.2042 43.9327 30.9539 35.0097 20.292 36.3805V22.1012Z" fill="#7D98AD"/>
<path d="M0 15C0 13.8954 0.89543 13 2 13H25.4164C26.5209 13 27.4164 13.8954 27.4164 15V47.936C27.4164 49.0405 26.5209 49.936 25.4164 49.936H2C0.895431 49.936 0 49.0405 0 47.936V15Z" fill="#607A95"/>
<path d="M40.9996 62.8024L67.9995 47.3022C67.1662 44.3022 63.0995 38.1026 55.4995 39.3026L39.9992 48.3024C38.1659 51.469 35.7996 59.2023 40.9996 62.8024Z" fill="#95A7B8"/>
<rect x="68.8652" y="45.2153" width="3.25518" height="34.7415" rx="1.62759" transform="rotate(59.9908 68.8652 45.2153)" fill="#607A95"/>
<rect x="94.8076" y="5.73096" width="56.3846" height="30.5385" rx="6.5" fill="#FCFCFC" stroke="#EC7140" stroke-width="5"/>
<rect x="101.192" y="38.769" width="42.8077" height="3.23077" fill="#607A95"/>
<rect x="110.885" width="25.8462" height="3.23077" fill="#607A95"/>
<path d="M122.441 22.4684C122.714 22.4684 122.883 22.3384 122.948 22.0914C122.987 21.9224 123.026 21.7794 123.039 21.6624H123.104C124.976 21.6624 125.951 20.8564 125.951 19.2964V19.1144C125.951 17.3464 124.716 16.4624 122.246 16.4624C121.466 16.4624 120.738 16.5404 120.049 16.6964C119.75 16.7614 119.646 16.9564 119.711 17.2684L119.997 18.5294C120.062 18.8284 120.257 18.9454 120.569 18.8544C121.05 18.7374 121.531 18.6724 121.999 18.6724C123 18.6724 123.364 18.8414 123.364 19.3614V19.4784C123.364 19.9724 123 20.1674 121.999 20.1674H121.609C121.297 20.1674 121.115 20.3494 121.167 20.6744C121.232 21.1554 121.349 21.6234 121.492 22.0914C121.583 22.3384 121.765 22.4684 122.038 22.4684H122.441ZM123.013 25.6924C123.338 25.6924 123.494 25.5364 123.494 25.2244V23.5994C123.494 23.2874 123.338 23.1314 123.013 23.1314H121.453C121.141 23.1314 120.985 23.2874 120.985 23.5994V25.2244C120.985 25.5364 121.141 25.6924 121.453 25.6924H123.013Z" fill="#607A95"/>
</svg>
