<svg width="277" height="97" viewBox="0 0 277 97" fill="none" xmlns="http://www.w3.org/2000/svg">
<ellipse cx="137" cy="91" rx="136" ry="6" fill="#A4C8D0"/>
<path d="M14.4604 8.72363H244.532L260.888 16.3563L272.664 36.8556V73.4927L242.351 57.1368V39.0364H3.55656L4.64694 16.3563L14.4604 8.72363Z" fill="#BADAF1"/>
<path fill-rule="evenodd" clip-rule="evenodd" d="M15.6277 5.26339H68.2524C68.2524 2.63285 69.1293 0 73.5158 0H164.736C168.244 0 169.123 2.63053 169.123 5.26339H237.535C258.586 5.26339 276.128 22.805 276.128 43.8561V70.1685C276.128 77.1854 270.865 82.4466 263.85 82.4466H231.397V79.816C231.397 71.9222 225.257 64.9048 216.486 64.9048C208.592 64.9048 202.451 71.9216 202.451 79.816V82.4466H94.5699V79.816C94.5699 71.9222 88.4294 64.9048 79.6587 64.9048C71.7648 64.9048 65.6244 71.9216 65.6244 79.816V82.4466H12.9996C5.98275 82.4466 0.721558 77.1832 0.721558 70.1685V20.1741C0.721558 12.2803 6.86204 5.26281 15.6328 5.26281L15.6277 5.26339ZM47.2024 12.2768V34.2049H87.5491V12.2768H47.2024ZM42.8159 34.2049V12.2768H15.6266C10.3631 12.2768 6.85576 15.7842 6.85576 20.1706V34.2049H42.8159ZM91.9333 12.2768V34.2049H132.28V12.2768H91.9333ZM136.664 12.2768V34.2049H177.011V12.2768H136.664ZM181.395 12.2768V34.2049H206.831H222.618V12.2768H181.395ZM226.126 12.2768V34.2049C234.02 35.0817 240.16 35.0818 242.791 36.8354V12.277H237.527L226.126 12.2768ZM247.177 13.1536V56.1306L269.982 68.4086V43.8502C269.982 29.8159 260.335 17.5379 247.177 13.1513V13.1536Z" fill="#00ABD8"/>
<rect x="247.149" y="61.9341" width="5.23386" height="1.74462" rx="0.87231" fill="#004D88"/>
<path d="M216.63 77.6358C215.753 77.6306 214.958 78.1519 214.613 78.9579C214.269 79.7649 214.44 80.6995 215.049 81.3307C215.658 81.962 216.587 82.1666 217.405 81.851C218.223 81.5343 218.772 80.7581 218.798 79.8811C218.816 79.2941 218.596 78.7245 218.187 78.302C217.779 77.8784 217.218 77.6389 216.63 77.6358H216.63Z" fill="#0F3653"/>
<path d="M216.618 67.6035C213.383 67.6035 210.281 68.887 207.991 71.1722C205.702 73.4573 204.413 76.558 204.406 79.7924C204.399 83.0268 205.677 86.132 207.958 88.4261C210.239 90.7201 213.336 92.0147 216.572 92.0281C219.806 92.0404 222.914 90.768 225.213 88.492C227.511 86.2157 228.811 83.1207 228.83 79.8863C228.849 76.6353 227.571 73.511 225.278 71.2059C222.987 68.9007 219.869 67.6038 216.618 67.6038L216.618 67.6035ZM216.618 84.9931C215.24 84.9965 213.918 84.4506 212.943 83.4768C211.969 82.5019 211.423 81.1794 211.426 79.8012C211.431 78.423 211.984 77.1038 212.963 76.1346C213.943 75.1654 215.269 74.6272 216.646 74.6384C218.025 74.6495 219.342 75.2099 220.305 76.1948C221.269 77.1797 221.801 78.5078 221.782 79.8858C221.763 81.244 221.211 82.5408 220.245 83.4967C219.279 84.4516 217.977 84.9897 216.617 84.993L216.618 84.9931Z" fill="#0F3653"/>
<path d="M80.1135 77.6358C79.2366 77.6306 78.4419 78.1519 78.0964 78.9579C77.752 79.7649 77.9237 80.6995 78.5323 81.3307C79.1419 81.962 80.0703 82.1666 80.8886 81.851C81.7069 81.5343 82.2559 80.7581 82.2816 79.8811C82.2991 79.2941 82.0791 78.7245 81.6709 78.302C81.2628 77.8784 80.7015 77.6389 80.1135 77.6358H80.1135Z" fill="#0F3653"/>
<path d="M80.101 67.6035C76.8664 67.6035 73.7645 68.887 71.4749 71.1722C69.1852 73.4573 67.896 76.558 67.8895 79.7924C67.8828 83.0268 69.1608 86.132 71.4415 88.4261C73.7223 90.7201 76.8196 92.0147 80.0553 92.0281C83.2899 92.0404 86.3973 90.768 88.696 88.492C90.9946 86.2157 92.2948 83.1207 92.3139 79.8863C92.3329 76.6353 91.0549 73.511 88.7619 71.2059C86.4699 68.9007 83.3524 67.6038 80.1013 67.6038L80.101 67.6035ZM80.101 84.9931C78.7238 84.9965 77.4013 84.4506 76.4263 83.4768C75.4525 82.5019 74.9065 81.1794 74.9099 79.8012C74.9143 78.423 75.4669 77.1038 76.4463 76.1346C77.4268 75.1654 78.7527 74.6272 80.1299 74.6384C81.5081 74.6495 82.8251 75.2099 83.7889 76.1948C84.7527 77.1797 85.2841 78.5078 85.2652 79.8858C85.2463 81.244 84.6947 82.5408 83.7287 83.4967C82.7627 84.4516 81.4602 84.9897 80.1008 84.993L80.101 84.9931Z" fill="#0F3653"/>
<path d="M67.8894 5.23386C67.8894 2.34328 70.2327 0 73.1233 0H166.46C169.351 0 171.694 2.34328 171.694 5.23386H67.8894Z" fill="#00ABD8"/>
<rect x="7.26386" y="46.2324" width="235.088" height="8.7231" fill="#004D88"/>
</svg>
