<svg width="149" height="108" viewBox="0 0 149 108" fill="none" xmlns="http://www.w3.org/2000/svg">
<path d="M17.9121 10.3676C17.5773 10.4204 16.9634 10.7321 17.1866 11.557L17.1524 12.0635L18.048 11.9869C18.2194 11.8541 18.4322 11.3444 17.9121 10.3676Z" fill="#2A8054"/>
<path d="M17.1103 12.3023C16.893 11.9351 16.3725 11.1753 16.029 11.0734L16.488 10.1417C16.7802 10.5225 17.3768 11.4665 17.4258 12.196L17.1103 12.3023Z" fill="#7F6853"/>
<path d="M17.1787 17.9084C17.4039 17.3553 17.4921 15.9068 16.0435 14.5381L16.0547 13.3986L18.6712 12.5173L19.4582 13.3879C19.3075 14.0641 19.3234 15.685 20.5935 16.7583L20.4207 18.2978L18.3808 18.9849L17.1787 17.9084Z" fill="#F7F0A8"/>
<path d="M19.0436 13.3303C19.4881 13.5262 20.3945 13.7641 20.4636 13.1483C20.55 12.3785 20.3531 10.9437 18.8746 11.3627C18.5497 11.5709 17.6869 11.9998 16.8347 12.0498C16.3808 12.0216 15.3757 12.0869 14.9865 12.5735C14.4699 12.9944 13.8371 14.1161 15.4388 15.2357C15.7202 15.2891 16.2941 14.2564 16.5158 14.1817C16.7375 14.107 17.0195 14.3577 17.7797 13.756C18.5399 13.1543 19.0436 13.3303 19.0436 13.3303Z" fill="#EF5945"/>
<path d="M17.8159 17.8193C17.4198 17.6724 16.6204 17.513 16.5925 18.0513C16.5575 18.7241 16.8031 19.9596 18.065 19.5189C18.3363 19.3212 19.0631 18.904 19.8004 18.8162C20.196 18.817 21.0652 18.708 21.3778 18.2653C21.8044 17.873 22.2955 16.8661 20.8466 15.9774C20.5995 15.9457 20.155 16.8722 19.9664 16.9486C19.7777 17.025 19.5199 16.822 18.8911 17.384C18.2624 17.946 17.8159 17.8193 17.8159 17.8193Z" fill="#EF5945"/>
<ellipse cx="18.7986" cy="15.3379" rx="0.233977" ry="0.514748" transform="rotate(-18.6148 18.7986 15.3379)" fill="#7F6853"/>
<ellipse cx="18.0005" cy="15.607" rx="0.233977" ry="0.514748" transform="rotate(-18.6148 18.0005 15.607)" fill="#7F6853"/>
<path d="M49.1556 7.40218C48.7654 7.46369 48.05 7.82702 48.3101 8.78824L48.2703 9.37853L49.314 9.28922C49.5137 9.13451 49.7617 8.54052 49.1556 7.40218Z" fill="#2A8054"/>
<path d="M48.2213 9.65695C47.968 9.22909 47.3614 8.34369 46.9612 8.22493L47.496 7.1392C47.8365 7.58296 48.5318 8.683 48.5889 9.53312L48.2213 9.65695Z" fill="#7F6853"/>
<path d="M48.3009 16.19C48.5633 15.5453 48.6661 13.8573 46.978 12.2624L46.9911 10.9345L50.0401 9.90747L50.9573 10.922C50.7816 11.7101 50.8001 13.5989 52.2802 14.8496L52.0789 16.6437L49.7017 17.4444L48.3009 16.19Z" fill="#F7F0A8"/>
<path d="M50.4743 10.8549C50.9924 11.0832 52.0486 11.3604 52.1291 10.6428C52.2298 9.74574 52.0003 8.07373 50.2774 8.56199C49.8988 8.80461 48.8933 9.30441 47.9002 9.36271C47.3712 9.32988 46.2 9.40598 45.7465 9.97303C45.1445 10.4635 44.4071 11.7707 46.2736 13.0754C46.6014 13.1376 47.2702 11.9341 47.5286 11.8471C47.787 11.7601 48.1156 12.0522 49.0014 11.351C49.8873 10.6498 50.4743 10.8549 50.4743 10.8549Z" fill="#EF5945"/>
<path d="M49.0435 16.086C48.5818 15.9147 47.6503 15.729 47.6177 16.3563C47.577 17.1403 47.8632 18.5801 49.3337 18.0665C49.6498 17.8362 50.4968 17.3499 51.3561 17.2476C51.817 17.2486 52.83 17.1216 53.1942 16.6057C53.6914 16.1485 54.2636 14.9752 52.5751 13.9395C52.2873 13.9025 51.7692 14.9822 51.5494 15.0712C51.3296 15.1603 51.0291 14.9237 50.2964 15.5786C49.5637 16.2335 49.0435 16.086 49.0435 16.086Z" fill="#EF5945"/>
<ellipse cx="50.1889" cy="13.1943" rx="0.27266" ry="0.599851" transform="rotate(-18.6148 50.1889 13.1943)" fill="#7F6853"/>
<ellipse cx="49.2587" cy="13.5078" rx="0.27266" ry="0.599851" transform="rotate(-18.6148 49.2587 13.5078)" fill="#7F6853"/>
<path d="M34.1313 11.4961L36.1807 13.4749C36.4163 13.5926 37.2345 14.5063 36.9581 17.1497C36.587 20.6995 41.3926 26.9185 46.428 23.1567C48.1241 21.7197 50.5975 17.913 46.9227 14.1816C46.2866 13.522 44.0676 12.2169 40.2796 12.2735C39.5552 12.2843 38.216 12.0614 36.1807 9.5173L34.5553 7.75054C34.7202 7.04384 34.6543 5.71523 33.0712 6.05445C32.8121 6.29001 32.1065 6.6219 32.2761 7.41341C31.7108 7.27207 30.8522 7.65161 31.0218 8.95194C30.9747 9.32885 31.1878 9.96959 32.4881 9.5173L34.1313 11.4961Z" fill="#7F6853"/>
<path d="M34.1313 11.4961L36.1807 13.4749L38.2124 11.4961C37.6471 11.0883 37.4351 10.8056 36.1807 9.5173L34.5553 7.75054C34.7202 7.04383 34.6543 5.71523 33.0712 6.05445C32.8121 6.29001 32.1065 6.6219 32.2761 7.41341C31.7108 7.27207 30.8522 7.65161 31.0218 8.95194C30.9747 9.32885 31.2055 10.1109 32.5059 9.65864L34.1313 11.4961Z" fill="#F7F0A8"/>
<ellipse cx="74.5" cy="102" rx="74.5" ry="6" fill="#A4C8D0"/>
<path d="M125.871 25.4287C125.871 25.4287 116.876 5.20023 117.03 0.97168C117.03 0.97168 103.48 1.96215 89.9287 3.105L99.7348 26.2287L125.871 25.4287Z" fill="#F1F6F7"/>
<path d="M134.859 4.55154C135.066 4.17686 134.93 3.70458 134.556 3.49728L131.388 1.74473C131.013 1.53733 130.541 1.67331 130.334 2.04781L129.457 3.63166L133.983 6.13539L134.859 4.55154Z" fill="#00ABD8"/>
<path d="M133.23 12.839L133.322 6.97974L131.208 5.81015L129.177 4.68682L124.179 7.83197L123.553 8.96331C123.24 9.5289 123.806 9.84182 123.493 10.4076C123.18 10.9735 122.614 10.6606 122.301 11.226C121.988 11.792 122.554 12.1049 122.241 12.6704C121.928 13.236 121.362 12.9231 121.049 13.4888C120.736 14.0548 121.302 14.3677 120.989 14.9333C120.676 15.4988 120.11 15.186 119.797 15.7519L117.92 19.1454C117.228 20.3956 117.681 21.9683 118.93 22.6596L123.456 25.1634C124.706 25.8547 126.279 25.4022 126.97 24.1526L128.848 20.7578C129.161 20.1922 128.596 19.8793 128.909 19.3135C129.222 18.7479 129.787 19.0608 130.1 18.4949C130.413 17.9293 129.848 17.6164 130.161 17.0506C130.474 16.4851 131.039 16.798 131.352 16.232C131.665 15.6666 131.1 15.3537 131.413 14.7878C131.726 14.2222 132.291 14.5351 132.604 13.9694L133.23 12.839ZM125.502 7.52917L128.869 5.04881L130.982 6.2182L133.096 7.38759L132.784 11.5581L125.502 7.52917Z" fill="#F2FAFC"/>
<path d="M122.157 10.984C122.475 10.4093 123.232 10.8282 123.551 10.2529L131.507 14.6545C131.188 15.2298 131.95 15.6498 131.632 16.2245C131.314 16.7998 130.722 16.4722 130.404 17.0472C130.086 17.6223 130.678 17.9498 130.36 18.5248C130.041 19.1001 129.261 18.7137 128.961 19.255L121.01 14.8558C121.309 14.3144 120.566 13.8597 120.885 13.2843C121.203 12.7092 121.795 13.0367 122.113 12.4618C122.431 11.8869 121.839 11.5594 122.157 10.984Z" fill="#00ABD8"/>
<path d="M133.267 12.0909L124.8 7.40615L129.035 4.62305L129.559 3.67563L133.89 6.07183L133.366 7.01925L133.267 12.0909Z" fill="#F2FAFC"/>
<rect x="129.424" y="3.60205" width="5.2591" height="0.618718" transform="rotate(28.9539 129.424 3.60205)" fill="#00ABD8"/>
<path d="M83.1555 7.40456C82.8527 7.10178 82.3612 7.10193 82.0584 7.40472L79.4986 9.96458C79.1956 10.2675 79.1958 10.759 79.4984 11.0616L80.7783 12.3416L84.4354 8.68449L83.1555 7.40456Z" fill="#00ABD8"/>
<path d="M90.6694 11.2615L85.0638 9.55344L83.3555 11.2617L81.7147 12.9025L83.3557 18.5754L84.27 19.4897C84.727 19.9467 85.1841 19.4897 85.6413 19.9469C86.0986 20.4042 85.6416 20.8613 86.0984 21.3182C86.5558 21.7756 87.0129 21.3185 87.4699 21.7755C87.9269 22.2325 87.4699 22.6896 87.9271 23.1468C88.3845 23.6042 88.8415 23.1471 89.2986 23.6042C89.7556 24.0612 89.2986 24.5183 89.7559 24.9756L92.4982 27.7179C93.5085 28.7283 95.1451 28.7278 96.155 27.7179L99.812 24.0609C100.822 23.051 100.822 21.414 99.812 20.4041L97.0686 17.6607C96.6115 17.2037 96.1545 17.6607 95.6973 17.2035C95.2402 16.7465 95.6973 16.2894 95.24 15.8321C94.7829 15.375 94.3258 15.8321 93.8686 15.3749C93.4116 14.9178 93.8686 14.4608 93.4113 14.0034C92.9544 13.5465 92.4973 14.0036 92.04 13.5462C91.5829 13.0892 92.04 12.6321 91.5828 12.1749L90.6694 11.2615ZM83.4303 17.2206L81.9773 13.2992L83.6853 11.5911L85.3934 9.88303L89.3151 11.3358L83.4303 17.2206Z" fill="#F2FAFC"/>
<path d="M85.8266 21.3898C85.3622 20.9254 85.974 20.3136 85.509 19.8486L91.9382 13.4194C92.4031 13.8844 93.0174 13.2681 93.4819 13.7326C93.9468 14.1975 93.4683 14.676 93.9329 15.1406C94.3977 15.6053 94.8761 15.1269 95.3407 15.5915C95.8056 16.0564 95.2185 16.6997 95.656 17.1372L89.2302 23.563C88.7927 23.1255 88.1504 23.7136 87.6855 23.2487C87.2207 22.784 87.6991 22.3055 87.2346 21.8409C86.77 21.3763 86.2915 21.8548 85.8266 21.3898Z" fill="#00ABD8"/>
<path d="M89.9619 11.0186L83.1191 17.8613L81.6152 13.0215L80.8496 12.2559L84.3496 8.75586L85.1152 9.52149L89.9619 11.0186Z" fill="#F2FAFC"/>
<rect x="80.7407" y="12.3662" width="5.2591" height="0.618718" transform="rotate(-45 80.7407 12.3662)" fill="#00ABD8"/>
<path d="M94.955 12.5543C95.3436 12.1819 96.2463 11.4885 96.7484 11.6948L99.1695 12.5543L100.066 14.3594C100.216 14.474 100.425 14.772 100.066 15.0471L99.1695 16.4223C99.5282 16.8234 100.102 17.7116 99.5282 18.0555L98.2728 19.0869C98.1234 19.3448 97.6093 19.7058 96.7484 19.0869C96.4615 19.0869 95.8517 18.6858 95.5827 18.4852L94.5964 19.0869C94.4768 19.2875 94.0763 19.5683 93.4307 19.0869L92.0856 18.7431C91.9063 18.8004 91.4759 18.7431 91.1889 18.0555L90.5612 16.4223C90.5313 16.2791 90.5433 15.9238 90.8302 15.6487C91.1172 15.3737 91.6671 14.9038 91.9063 14.7032V13.4139C91.9063 13.1847 92.0139 12.6575 92.4443 12.3825L93.072 11.9527C93.2513 11.8094 93.6817 11.6089 93.9687 11.9527L94.955 12.5543Z" fill="#E3E3E3"/>
<path d="M128.955 12.5543C129.344 12.1819 130.246 11.4885 130.748 11.6948L133.17 12.5543L134.066 14.3594C134.216 14.474 134.425 14.772 134.066 15.0471L133.17 16.4223C133.528 16.8234 134.102 17.7116 133.528 18.0555L132.273 19.0869C132.123 19.3448 131.609 19.7058 130.748 19.0869C130.462 19.0869 129.852 18.6858 129.583 18.4852L128.596 19.0869C128.477 19.2875 128.076 19.5683 127.431 19.0869L126.086 18.7431C125.906 18.8004 125.476 18.7431 125.189 18.0555L124.561 16.4223C124.531 16.2791 124.543 15.9238 124.83 15.6487C125.117 15.3737 125.667 14.9038 125.906 14.7032V13.4139C125.906 13.1847 126.014 12.6575 126.444 12.3825L127.072 11.9527C127.251 11.8094 127.682 11.6089 127.969 11.9527L128.955 12.5543Z" fill="#E3E3E3"/>
<path d="M111.718 18.7944H109.995H81.0698L89.2472 97.187C89.5344 99.9228 91.8322 102 94.5862 102H109.995H111.735H127.144C129.898 102 132.196 99.9228 132.483 97.187L140.66 18.7944H111.718Z" fill="#2A8054"/>
<path d="M141.59 23.2866H80.6307C79.2284 23.2866 78.0795 22.1382 78.0795 20.7366V19.0647C78.0795 17.663 79.2284 16.5146 80.6307 16.5146H141.59C142.992 16.5146 144.141 17.663 144.141 19.0647V20.7366C144.141 22.1551 142.992 23.2866 141.59 23.2866Z" fill="#2A8054"/>
<path opacity="0.2" d="M95.4311 23.2866L101.142 102H122.058L127.33 23.2866H95.4311Z" fill="white"/>
<g opacity="0.6">
<path d="M114.892 56.0152L117.372 60.2949C117.372 60.2949 118.03 61.3212 117.604 62.3476L119.803 58.6489C120.094 58.1647 120.21 57.5838 120.113 57.0222C120.084 56.8576 120.036 56.693 119.968 56.5671C119.687 56.0346 118.457 53.9431 118.457 53.9431L120.5 52.8006L115.376 52.6069L113.041 57.0706L114.892 56.0152Z" fill="white" fill-opacity="0.31"/>
<path d="M116.519 59.5303H112.906V63.6938H115.308C115.308 63.6938 117.895 63.4904 117.265 60.9633L116.519 59.5303Z" fill="white" fill-opacity="0.31"/>
<path d="M108.76 59.3172L103.809 59.201C103.809 59.201 102.589 59.23 101.93 58.3296L103.945 62.1348C104.207 62.6383 104.643 63.0353 105.175 63.2483C105.33 63.3064 105.495 63.3548 105.64 63.3645C106.241 63.4032 108.672 63.4419 108.672 63.4419L108.585 65.7754L111.414 61.5054L108.818 57.187L108.76 59.3172Z" fill="white" fill-opacity="0.31"/>
<path d="M104.904 58.8813L106.783 55.8022L103.228 53.6333L101.978 55.686C101.978 55.686 100.806 58.0001 103.296 58.7747L104.904 58.8813Z" fill="white" fill-opacity="0.31"/>
<path d="M109.031 52.2875L111.53 48.0175C111.53 48.0175 112.102 46.933 113.197 46.7975L108.895 46.7103C108.324 46.7006 107.762 46.8846 107.326 47.2429C107.2 47.3494 107.074 47.4656 106.997 47.5914C106.677 48.0949 105.457 50.2057 105.457 50.2057L103.451 48.9954L105.815 53.5462L110.843 53.3719L109.031 52.2875Z" fill="white" fill-opacity="0.31"/>
<path d="M111.298 49.1313L113.08 52.2685L116.703 50.2061L115.512 48.1147C115.512 48.1147 114.059 45.9748 112.17 47.7661L111.298 49.1313Z" fill="white" fill-opacity="0.31"/>
</g>
<path d="M59.3621 5.10488L61.8873 7.06975L63.8809 8.62095C64.2846 8.88983 65.1849 9.21934 65.5563 8.38642C65.9585 7.19128 66.3841 4.53677 64.8695 3.47979C64.2615 2.91412 62.5459 2.04798 60.5469 3.10874C59.8169 3.41429 58.5579 4.24129 59.3621 5.10488Z" fill="#95A7B8"/>
<path d="M61.9042 6.70219L54.3215 17.0371" stroke="#95A7B8" stroke-width="0.5" stroke-linecap="round"/>
<path d="M53.1896 18.5374C51.9992 18.46 49.9776 18.255 49.9273 17.896C49.9903 17.7651 49.5874 17.2114 54.0488 16.8309L54.6975 17.1062C54.7956 18.6787 54.8688 21.8166 54.3097 21.3091L53.1896 18.5374Z" fill="#CCCCCC"/>
<path d="M53.4961 12.8815L56.7751 13.6427L58.8167 16.8955" stroke="#95A7B8" stroke-width="0.5" stroke-linecap="round"/>
<path d="M54.6972 11.0051L57.9763 11.7662L60.0179 15.019" stroke="#95A7B8" stroke-width="0.5" stroke-linecap="round"/>
<path d="M55.966 9.60762L59.2451 10.3688L61.2867 13.6215" stroke="#95A7B8" stroke-width="0.5" stroke-linecap="round"/>
<path d="M57.2009 7.97041L60.4799 8.73158L62.5215 11.9843" stroke="#95A7B8" stroke-width="0.5" stroke-linecap="round"/>
<circle cx="61.9448" cy="4.37744" r="0.604204" transform="rotate(-97.9688 61.9448 4.37744)" fill="white"/>
<path d="M24.0583 12.041C24.2792 11.929 29.499 14.2805 33.0687 8.99837C33.5275 8.53419 34.525 7.98198 34.8438 9.48663C34.72 10.4289 33.3794 12.9511 29.0076 15.5018C27.8247 15.2686 25.1788 14.25 24.0583 12.041Z" fill="#FFEACD"/>
<path d="M21.0325 13.0195C20.9531 13.2541 24.0245 18.0855 19.305 22.3715C18.9109 22.8918 18.5065 23.9578 20.0413 24.0589C20.9563 23.8021 23.2617 22.1157 25.1633 17.425C24.7639 16.2874 23.3786 13.8137 21.0325 13.0195Z" fill="#EDBC58"/>
<path d="M19.0027 7.38331L19.8863 6.93514L20.336 8.09565L19.6733 8.43177L19.0027 7.38331Z" fill="#6E4535"/>
<path d="M24.3128 17.7453C24.3894 17.4943 24.2892 17.83 24.3128 17.7453C24.1452 17.5472 24.4943 17.9682 24.3128 17.7453C28.4841 20.7675 35.7582 17.5872 37.4289 15.9529C38.84 14.7928 38.3413 14.1015 37.9155 13.9009C37.2059 13.5665 36.5294 13.6319 34.8726 14.4722C29.5237 16.6298 26.0625 13.8029 24.6683 12.1493C22.1611 7.64432 20.432 7.4475 19.8808 7.91221C17.9147 8.73299 20.4739 13.029 22.942 16.3361C23.4047 16.9562 24.2234 17.569 24.3128 17.7453Z" fill="#FFD98C"/>
<path d="M40.0156 18.7939H38.2922H9.36713L17.5446 97.1865C17.8318 99.9223 20.1296 101.999 22.8835 101.999H38.2922H40.0324H55.4411C58.1951 101.999 60.4929 99.9223 60.7801 97.1865L68.9575 18.7939H40.0156Z" fill="#FF4D00"/>
<path d="M69.887 23.2866H8.9281C7.52577 23.2866 6.37688 22.1382 6.37688 20.7366V19.0647C6.37688 17.663 7.52577 16.5146 8.9281 16.5146H69.887C71.2893 16.5146 72.4382 17.663 72.4382 19.0647V20.7366C72.4382 22.1551 71.2893 23.2866 69.887 23.2866Z" fill="#FF4D00"/>
<path opacity="0.2" d="M23.7285 23.2861L29.4392 102H50.3558L55.6272 23.2861H23.7285Z" fill="white"/>
<g opacity="0.6">
<path d="M43.3968 56.0152L45.8767 60.2949C45.8767 60.2949 46.5354 61.3212 46.1092 62.3476L48.3081 58.6489C48.5988 58.1647 48.715 57.5838 48.6181 57.0222C48.5891 56.8576 48.5406 56.693 48.4728 56.5671C48.1919 56.0346 46.9616 53.9431 46.9616 53.9431L49.0056 52.8006L43.8812 52.6069L41.5466 57.0706L43.3968 56.0152Z" fill="white" fill-opacity="0.31"/>
<path d="M45.0242 59.5303H41.4109V63.6938H43.8133C43.8133 63.6938 46.3998 63.4904 45.7701 60.9633L45.0242 59.5303Z" fill="white" fill-opacity="0.31"/>
<path d="M37.2647 59.3172L32.3146 59.201C32.3146 59.201 31.094 59.23 30.4353 58.3296L32.4502 62.1348C32.7118 62.6383 33.1477 63.0353 33.6805 63.2483C33.8355 63.3064 34.0002 63.3548 34.1455 63.3645C34.7461 63.4032 37.1775 63.4419 37.1775 63.4419L37.0903 65.7754L39.9189 61.5054L37.3228 57.187L37.2647 59.3172Z" fill="white" fill-opacity="0.31"/>
<path d="M33.4093 58.8813L35.2886 55.8022L31.7334 53.6333L30.4838 55.686C30.4838 55.686 29.3117 58.0001 31.8012 58.7747L33.4093 58.8813Z" fill="white" fill-opacity="0.31"/>
<path d="M37.5362 52.2875L40.0355 48.0175C40.0355 48.0175 40.607 46.933 41.7017 46.7975L37.4006 46.7103C36.8291 46.7006 36.2672 46.8846 35.8313 47.2429C35.7054 47.3494 35.5794 47.4656 35.5019 47.5914C35.1823 48.0949 33.9617 50.2057 33.9617 50.2057L31.9565 48.9954L34.3201 53.5462L39.3477 53.3719L37.5362 52.2875Z" fill="white" fill-opacity="0.31"/>
<path d="M39.8029 49.1313L41.5853 52.2685L45.2083 50.2061L44.0167 48.1147C44.0167 48.1147 42.5637 45.9748 40.6747 47.7661L39.8029 49.1313Z" fill="white" fill-opacity="0.31"/>
</g>
</svg>
