<svg width="90" height="110" viewBox="0 0 90 110" fill="none" xmlns="http://www.w3.org/2000/svg">
<path d="M37.5322 21.8882H1.55455L3.11221 23.6425C4.13842 24.8009 4.8159 26.2253 5.06625 27.7522C5.31659 29.2791 5.12983 30.8457 4.52683 32.2704L3.08638 35.6619C1.67672 38.973 0.954519 42.5362 0.965454 46.1355V104.462C0.957507 105.371 1.52474 106.185 2.38007 106.492C13.5569 110.263 25.6617 110.263 36.8395 106.492C37.6948 106.185 38.262 104.259 38.2531 104.462V45.6243C38.2561 42.3381 37.6471 39.0788 36.459 36.0151L34.8487 31.8248C33.8533 29.1843 34.2834 26.218 35.9881 23.9698L37.5322 21.8882Z" fill="#95A7B8"/>
<path d="M22.3121 5.51489V2.22363H16.7527V5.55927C18.6953 5.42946 20.5588 5.4081 22.3121 5.51491V5.51489Z" fill="#7D98AD"/>
<path d="M23.4416 2.22376C24.0459 2.22376 24.5357 1.73392 24.5357 1.12967C24.5357 0.527127 24.0485 0.0379971 23.446 0.0355921L15.6429 0.00444675C15.0283 0.00199376 14.5288 0.499516 14.5288 1.11409C14.5288 1.72694 15.0256 2.22374 15.6385 2.22375L23.4416 2.22376Z" fill="#004D88"/>
<path d="M1.74229 22.2376H37.3224C38.4343 20.5698 38.1434 18.3224 36.7665 16.6782H2.29823C1.18635 18.346 0.630424 19.4579 1.74229 22.2376Z" fill="#16628E"/>
<path d="M36.7664 16.6784L36.0239 9.21099C35.9426 8.46785 35.4781 7.82667 34.8067 7.53112C29.9447 5.47637 24.7325 4.42821 19.4723 4.44803C14.2121 4.46692 9.00725 5.55283 4.15985 7.64353C3.47832 7.92493 3.00825 8.57365 2.9427 9.32339L2.2981 16.6784H36.7664Z" fill="#004D88"/>
<path d="M79.7535 23.7877C79.7535 22.2487 78.504 21 76.965 21H63.9535C62.4137 21 61.165 22.2494 61.165 23.7877V30.2934H79.7535V23.7877Z" fill="#00ABD8"/>
<path d="M51.8718 52.6878V57.3348C51.8718 59.658 54.195 59.658 54.195 61.9818C54.195 64.3067 51.8718 64.3066 51.8718 66.6288C51.8718 68.9537 54.195 68.9537 54.195 71.2766C54.195 73.5996 51.8718 73.5998 51.8718 75.9237C51.8718 78.2485 54.195 78.2485 54.195 80.5715C54.195 82.8945 51.8718 82.8947 51.8718 85.2193V99.1581C51.8718 104.293 56.0323 108.451 61.1652 108.451H79.7536C84.8866 108.451 89.047 104.291 89.047 99.1581V85.2136C89.047 82.8904 86.7238 82.8904 86.7238 80.5666C86.7238 78.2434 89.047 78.2434 89.047 75.9188C89.047 73.5956 86.7238 73.5956 86.7238 71.2718C86.7238 68.9486 89.047 68.9486 89.047 66.624C89.047 64.3016 86.7238 64.3016 86.7238 61.977C86.7238 59.6538 89.047 59.6538 89.047 57.33V52.687L87.5 49.4341H85.4165H55.5048H53.5L51.8718 52.6878Z" fill="#F5F5F5" fill-opacity="0.7"/>
<path d="M51 66.1174C51 63.7568 54.1098 63.7569 54.1098 61.3936H86.7886C86.7886 63.7567 89.9158 63.7517 89.9158 66.1125C89.9158 68.4755 87.4838 68.4755 87.4838 70.8371C87.4838 73.1993 89.9158 73.1994 89.9158 75.561C89.9158 77.924 86.7886 78.0669 86.7886 80.2906H54.1272C54.1272 78.0669 51 77.9292 51 75.5659C51 73.2037 53.432 73.2035 53.432 70.8421C53.432 68.4807 51 68.4806 51 66.1174Z" fill="#00ABD8"/>
<path d="M87.5 49.5H53.5L61.5315 33.8889V30H79.4336V33.8889L87.5 49.5Z" fill="#8EDDEE" fill-opacity="0.26"/>
<rect x="61.0068" y="30.2563" width="18.902" height="2.22376" fill="#00ABD8"/>
</svg>
