<svg width="154" height="108" viewBox="0 0 154 108" fill="none" xmlns="http://www.w3.org/2000/svg">
<ellipse cx="77" cy="102" rx="77" ry="6" fill="#A4C8D0"/>
<rect x="20" y="29" width="115" height="62" fill="white"/>
<rect x="15" y="13" width="124" height="16" rx="2" fill="#607A95"/>
<rect x="31" width="92" height="24" rx="2" fill="#EEE03D"/>
<rect x="33" y="34" width="31" height="57" fill="#0F3653"/>
<rect x="69.2988" y="59.1133" width="24.9967" height="32.3256" rx="2" fill="#E4EAF8"/>
<path d="M69.2988 61.1133C69.2988 60.0087 70.1943 59.1133 71.2988 59.1133H92.2955C93.4001 59.1133 94.2955 60.0087 94.2955 61.1133V64.7408H69.2988V61.1133Z" fill="#CCD2DB"/>
<circle cx="81.7973" cy="77.8931" r="9.35741" fill="white"/>
<circle cx="91.7438" cy="61.9269" r="1.37417" fill="white"/>
<circle cx="88.341" cy="61.9269" r="1.37417" fill="white"/>
<circle cx="81.7973" cy="77.8931" r="6.85741" stroke="#607A95" stroke-width="5"/>
<rect x="70.7383" y="60.5527" width="4.71142" height="1.17786" rx="0.588928" fill="#607A95"/>
<rect x="70.7383" y="62.123" width="4.71142" height="1.17786" rx="0.588928" fill="#607A95"/>
<rect x="76.104" y="62.123" width="1.57047" height="1.17786" rx="0.588928" fill="#607A95"/>
<path d="M78.2554 77.8024C78.7237 77.285 80.2223 76.5607 82.4702 77.8024C82.9619 77.9892 84.2404 78.0955 85.4206 77.0264" stroke="#CCD2DB" stroke-width="0.5" stroke-linecap="round"/>
<path d="M78.2554 78.6979C78.7237 78.1805 80.2223 77.4563 82.4702 78.6979C82.9619 78.8847 84.2404 78.991 85.4206 77.9219" stroke="#CCD2DB" stroke-width="0.5" stroke-linecap="round"/>
<path d="M78.2554 79.5934C78.7237 79.076 80.2223 78.3518 82.4702 79.5934C82.9619 79.7802 84.2404 79.8865 85.4206 78.8174" stroke="#CCD2DB" stroke-width="0.5" stroke-linecap="round"/>
<rect x="96.2495" y="59.1133" width="24.9967" height="32.3256" rx="2" fill="#E4EAF8"/>
<path d="M96.2495 61.1133C96.2495 60.0087 97.1449 59.1133 98.2495 59.1133H119.246C120.351 59.1133 121.246 60.0087 121.246 61.1133V64.7408H96.2495V61.1133Z" fill="#CCD2DB"/>
<circle cx="108.748" cy="77.8931" r="9.35741" fill="white"/>
<circle cx="102.453" cy="61.9132" r="1.37417" fill="white"/>
<circle cx="99.0504" cy="61.9132" r="1.37417" fill="white"/>
<circle cx="108.748" cy="77.8931" r="6.85741" stroke="#607A95" stroke-width="5"/>
<rect x="104.806" y="60.5391" width="4.71142" height="1.17786" rx="0.588928" fill="#607A95"/>
<rect x="104.806" y="62.1094" width="4.71142" height="1.17786" rx="0.588928" fill="#607A95"/>
<rect x="119.543" y="60.5391" width="2.85226" height="0.950753" rx="0.475376" transform="rotate(90 119.543 60.5391)" fill="#607A95"/>
<rect x="118.117" y="60.5391" width="2.85226" height="0.950753" rx="0.475376" transform="rotate(90 118.117 60.5391)" fill="#607A95"/>
<path d="M113.508 78.7313C113.508 80.7575 111.098 82.848 108.707 82.848C106.317 82.848 103.949 80.7575 103.949 78.7313C104.049 78.1831 105.418 77.2891 109.239 78.6048C109.338 78.6891 110.111 78.9084 110.947 78.6048C111.693 78.2252 113.508 77.7192 113.508 78.7313Z" fill="#81BEEB"/>
<path d="M77.8977 48H70.1023C69.5117 48 69.0497 48.5092 69.107 49.0971L69.8875 57.0971C69.9375 57.6093 70.3681 58 70.8828 58H77.1172C77.6319 58 78.0625 57.6093 78.1125 57.0971L78.893 49.0971C78.9503 48.5092 78.4884 48 77.8977 48Z" fill="#FF4D00"/>
<rect x="82" y="55" width="4" height="3" rx="1" fill="#81BEEB"/>
<rect x="98" y="53" width="11" height="5" rx="2" fill="#EEE03D"/>
<rect x="99" y="50" width="9" height="3" rx="1.5" fill="#FFAD4F"/>
<path d="M99 47C99 45.8954 99.8954 45 101 45H103.25C105.321 45 107 46.6789 107 48.75C107 49.4404 106.44 50 105.75 50H101C99.8954 50 99 49.1046 99 48V47Z" fill="#81BEEB"/>
<rect x="73" y="49" width="3" height="1" rx="0.5" fill="#FFAD4F"/>
<rect x="64" y="34" width="62" height="57" fill="#C8EFFE" fill-opacity="0.58"/>
<path d="M64 43.375L78.1429 34H86L64 49V43.375Z" fill="#89D5EF" fill-opacity="0.13"/>
<path d="M64 53.2308L91.2 34H98L64 59V53.2308Z" fill="#89D5EF" fill-opacity="0.13"/>
<path d="M94 92L126 69V73.8936L99.8182 92H94Z" fill="#89D5EF" fill-opacity="0.13"/>
<path d="M64 70.2727L105.723 34H113L64 76V70.2727Z" fill="#89D5EF" fill-opacity="0.13"/>
<path d="M65 91L126 39V45.2018L71.7778 91H65Z" fill="#89D5EF" fill-opacity="0.13"/>
<rect x="15" y="91" width="124" height="12" rx="2" fill="#607A95"/>
<circle cx="37" cy="64" r="1" fill="#EEE03D"/>
<path d="M50.63 14.17V9.36C50.63 9.12 50.51 9 50.26 9H48.9C48.66 9 48.54 9.12 48.54 9.36V15.64C48.54 15.88 48.66 16 48.9 16H53.35C53.6 16 53.72 15.88 53.72 15.64V14.53C53.72 14.29 53.6 14.17 53.35 14.17H50.63ZM59.0389 9.3C58.9789 9.1 58.8489 9 58.6389 9H56.4989C56.2889 9 56.1489 9.1 56.0889 9.3L54.1489 15.59C54.0689 15.84 54.1789 16 54.4489 16H55.9089C56.1189 16 56.2589 15.9 56.3089 15.69L56.5189 14.9H58.6489L58.8489 15.69C58.9089 15.9 59.0489 16 59.2589 16H60.6789C60.9489 16 61.0589 15.84 60.9789 15.59L59.0389 9.3ZM57.1189 12.64C57.3589 11.77 57.4789 11.14 57.4889 10.75H57.6889V10.81C57.7189 11 57.7689 11.55 58.0589 12.64L58.2189 13.24H56.9589L57.1189 12.64ZM64.7489 16C64.9589 16 65.0989 15.9 65.1489 15.7L66.9889 9.41C67.0689 9.16 66.9389 9 66.6889 9H65.2589C65.0489 9 64.9089 9.1 64.8589 9.31L64.0589 12.53C63.8889 13.2 63.8089 13.73 63.8089 14.14H63.6089V14.06C63.5789 13.85 63.5689 13.25 63.3689 12.53L62.5689 9.31C62.5189 9.1 62.3789 9 62.1689 9H60.6989C60.4289 9 60.3189 9.16 60.3889 9.41L62.2189 15.7C62.2789 15.9 62.4189 16 62.6289 16H64.7489ZM71.2752 9.3C71.2152 9.1 71.0852 9 70.8752 9H68.7352C68.5252 9 68.3852 9.1 68.3252 9.3L66.3852 15.59C66.3052 15.84 66.4152 16 66.6852 16H68.1452C68.3552 16 68.4952 15.9 68.5452 15.69L68.7552 14.9H70.8852L71.0852 15.69C71.1452 15.9 71.2852 16 71.4952 16H72.9152C73.1852 16 73.2952 15.84 73.2152 15.59L71.2752 9.3ZM69.3552 12.64C69.5952 11.77 69.7152 11.14 69.7252 10.75H69.9252V10.81C69.9552 11 70.0052 11.55 70.2952 12.64L70.4552 13.24H69.1952L69.3552 12.64ZM75.6092 16C75.8392 16 75.9592 15.88 75.9592 15.65V13.95C75.9592 13.46 75.9092 13.03 75.8092 12.65H75.9992L78.0192 15.77C78.1192 15.92 78.2592 16 78.4392 16H79.6692C79.9092 16 80.0292 15.88 80.0292 15.65V9.35C80.0292 9.12 79.9092 9 79.6692 9H78.3992C78.1692 9 78.0492 9.12 78.0492 9.35V10.99C78.0492 11.48 78.0992 11.91 78.1992 12.28H78.0092L76.0392 9.23C75.9492 9.08 75.8092 9 75.6192 9H74.3392C74.0992 9 73.9792 9.12 73.9792 9.35V15.65C73.9792 15.88 74.0992 16 74.3392 16H75.6092ZM81.4586 9C81.2186 9 81.0986 9.12 81.0986 9.36V15.64C81.0986 15.88 81.2186 16 81.4586 16H84.0186C86.0286 16 87.0886 15.03 87.0886 13.19V11.81C87.0886 9.98 86.0186 9 84.0186 9H81.4586ZM84.9986 13.16C84.9986 13.92 84.7086 14.22 84.0186 14.22H83.1686V10.76H84.0186C84.7086 10.76 84.9986 11.07 84.9986 11.83V13.16ZM90.0141 14.27V13.25H92.2941C92.5441 13.25 92.6641 13.13 92.6641 12.89V12C92.6641 11.75 92.5441 11.63 92.2941 11.63H90.0141V10.7H92.6141C92.8641 10.7 92.9841 10.58 92.9841 10.34V9.36C92.9841 9.12 92.8641 9 92.6141 9H88.3141C88.0741 9 87.9541 9.12 87.9541 9.36V15.64C87.9541 15.88 88.0741 16 88.3141 16H92.7341C92.9741 16 93.0941 15.88 93.0941 15.64V14.64C93.0941 14.39 92.9741 14.27 92.7341 14.27H90.0141ZM98.7923 14.41C98.5923 14 98.3023 13.78 97.9223 13.75V13.6C98.8723 13.53 99.3923 12.84 99.3923 11.63V11.28C99.3923 9.76 98.5123 9 96.7423 9H94.2223C93.9823 9 93.8623 9.12 93.8623 9.36V15.64C93.8623 15.88 93.9823 16 94.2223 16H95.5423C95.7823 16 95.9023 15.88 95.9023 15.64V13.92H96.0723C96.3523 13.92 96.4823 14.04 96.6323 14.4L97.1823 15.72C97.2523 15.91 97.3923 16 97.6023 16H99.1023C99.3823 16 99.4923 15.82 99.3623 15.57L98.7923 14.41ZM97.3123 11.63C97.3123 12.04 97.1123 12.23 96.6323 12.23H95.9023V10.67H96.6323C97.1023 10.67 97.3123 10.85 97.3123 11.28V11.63ZM101.69 8.58C101.86 8.58 102.01 8.52 102.14 8.4L102.62 7.96C102.87 7.73 102.78 7.52 102.45 7.52H101.16C100.95 7.52 100.81 7.61 100.74 7.8L100.6 8.16C100.51 8.41 100.61 8.58 100.89 8.58H101.69ZM101.97 16C102.21 16 102.33 15.88 102.33 15.64V9.36C102.33 9.12 102.21 9 101.97 9H100.57C100.33 9 100.21 9.12 100.21 9.36V15.64C100.21 15.88 100.33 16 100.57 16H101.97ZM107.984 9.3C107.924 9.1 107.794 9 107.584 9H105.444C105.234 9 105.094 9.1 105.034 9.3L103.094 15.59C103.014 15.84 103.124 16 103.394 16H104.854C105.064 16 105.204 15.9 105.254 15.69L105.464 14.9H107.594L107.794 15.69C107.854 15.9 107.994 16 108.204 16H109.624C109.894 16 110.004 15.84 109.924 15.59L107.984 9.3ZM106.064 12.64C106.304 11.77 106.424 11.14 106.434 10.75H106.634V10.81C106.664 11 106.714 11.55 107.004 12.64L107.164 13.24H105.904L106.064 12.64Z" fill="#607A95"/>
</svg>
